<svg width="280" height="164" viewBox="0 0 280 164" xmlns="http://www.w3.org/2000/svg" xmlns:xlink="http://www.w3.org/1999/xlink"><defs><path d="M.18 155.542v-84.77C35.052 69.618 64.18 40.13 72.897.344h29.386c6.144 13.66 9.556 28.773 9.556 44.671 0 60.811-49.927 110.152-111.66 110.526z" id="path-1"/><path d="M36.53 118.499C14.883 107.89.026 86.025.026 60.77A63.033 63.033 0 0 1 7.153 31.59C21.198 25.346 33.433 14.46 42.632.445c7.637 18.35 26.084 31.29 47.628 31.29 1.306 0 2.601-.048 3.883-.142C91.94 55.434 85.591 80.42 71.858 95.95c-9.621 10.88-21.723 18.001-35.327 22.549z" id="path-3"/><path d="M87.96 133.429c-23.113-6.919-37.106-22.226-48.943-44.416-.725-1.36-4.535-.865-5.618-3.978-.958-2.752-.218-4.637.647-6.16.322-.567-2.387-8.58-3.318-11.078-3.526-9.467-6.096-33.514-4.2-44.85C11.805 17.708 6.104 11.573 2.865 6.618c-5.288-8.086 2.001-7.864 4.888-1.793 6.861-.432 3.543 4.34 15.751 4.424 11.742.08 12.462-6.765 18.754-4.027 3.122 1.358 1.08 6.342-.285 9.428-3.886 8.785-2.831 16.094-1.762 23.592 3.844 26.975 21.95 51.156 42.573 61.108 3.476-4.044 8.243-6.336 13.239-5.811 9.09.955 15.496 10.873 14.31 22.153-1.185 11.28-9.514 19.649-18.603 18.694a13.542 13.542 0 0 1-3.769-.957z" id="path-5"/><path d="M15.385 6.164C11.165.808 6.982.193 2.833 4.318c-6.222 6.189 9.953 26.255 16.63 25.254C25.934 28.602 41.32 9.1 33.017 2.93 28.864-.155 22.986.922 15.385 6.164z" id="path-7"/><path d="M30.566.93C16.209 4.335 9.03 6.813 9.03 8.362c0 1.548 2.701 2.478 8.104 2.787-8.645-.31-12.735.388-12.272 2.091.463 1.704 2.856 3.407 7.178 5.11-7.873-2.197-11.81-2.197-11.81 0 0 2.198 3.937 4.754 11.81 7.667-8.49-1.859-11.81-.93-9.957 2.787 1.852 3.717 7.178 8.44 15.977 14.17l1.39 2.556 6.483 8.363 2.166-9.757c-4.686-1.704-6.874-4.104-6.565-7.201.371-3.727 5.326-4.879 6.565-1.162.295.885 1.503.497 3.623-1.161-1.98-8.356-.668-15.325 3.937-20.907 5.557-6.737 13.625-2.985 17.598-3.485 4.738-.596 1.621-3.02 2.547-2.787-5.557-6.66-13.97-8.828-25.24-6.505z" id="path-9"/><path d="M19.068.158c1.709-.516 5.167 3.78 5.72 7.296.477 3.028-.187 4.658 1.43 10.482 1.618 5.823 8.581 10.249 7.538 10.744-1.044.494-3.929.627-8.73-1.66 2.608 2.514 3.374 3.545.767 3.545-2.608 0-5.597-1.414-8.968-4.243 2.077 1.563 2.572 2.663 1.484 3.3-1.632.957-8.783-2.426-13.168-7.49C.755 17.066-.312 9.98.582 7.7c.894-2.28 7.048-1.517 7.85-2.829.803-1.312 6.003-3.315 10.636-4.714z" id="path-11"/></defs><g id="m_home" fill="none" fill-rule="evenodd" transform="translate(-16 -265)"><g id="angel_main" transform="translate(15 262)"><g id="back_hand" transform="rotate(22 -98.32 650.33)"><g id="Group-7" transform="rotate(-10 105.323 6.72)"><ellipse id="Oval-5" fill="#9D6C78" cx="22.17" cy="9.237" rx="5.308" ry="9.102"/><path d="M22.046.196c-3.95 0-4.97 5.718-4.97 9.38 0 3.713 3.57 8.4 5.698 8.4L1.415 16.193C-.935 13.843.65 12.37.65 8.966c0-3.66.494-3.583 3.17-5.987L22.047.196z" id="Combined-Shape" fill="#C4A1AC" fill-rule="nonzero"/></g><path d="M21.303 19.149c1.33-6.745 12.191-4.924 15.92-7.356 3.728-2.432 6.66-4.866 8.382-4.671 1.722.194 1.756 2.085 1.058 2.88 1.166-.42 2.834 1.425 1.438 3.016 1.148.13 1.5 1.09 1.058 2.88 2.069 1.44-.229 4.171-6.893 8.196-6.665 4.024-11.526 5.698-16.835 3.828-2.436-2.439-4.72-5.777-4.128-8.773z" id="Path-13" fill="#C68981" transform="scale(1 -1) rotate(41 83.422 0)"/></g><path id="collar" fill="#C4A1AC" transform="rotate(6 237.014 92.94)" d="M238.469 83.855l1.697 16.375-6.304 1.794z"/><ellipse id="Oval-4" fill="#E1B2A1" transform="rotate(6 214.249 29.35)" cx="214.249" cy="29.349" rx="25.917" ry="25.157"/><g id="Oval-9" transform="rotate(6 .079 1306.277)"><mask id="mask-2" fill="#fff"><use xlink:href="#path-1"/></mask><use id="Mask" fill="#E1B2A1" xlink:href="#path-1"/><ellipse fill="#DCA591" mask="url(#mask-2)" transform="rotate(-11 107.853 40.132)" cx="107.853" cy="40.132" rx="15.24" ry="22.095"/><path d="M5.884 163.05c-.082-.77-2.963-16.84-8.645-48.21 9.94 3.33 20.434 2.235 31.48-3.282 11.046-5.517 20.472-12.97 28.279-22.36l30.121 46.206c-33.85 14.287-51.249 21.402-52.198 21.345-1.423-.085-28.915 7.458-29.037 6.302z" id="Path-17" fill="#DCA591" mask="url(#mask-2)"/></g><g id="shirt" transform="rotate(6 -335.018 1438.885)"><mask id="mask-4" fill="#fff"><use xlink:href="#path-3"/></mask><use id="Mask" fill="#EBE0E0" xlink:href="#path-3"/><path d="M81.689 42.949l6.553 11.423c-2.34 7.462-6.163 15.154-11.469 23.073-5.305 7.92-15.136 15.154-29.492 21.703l-1.872 18.276c24.81-10.356 38.62-22.083 41.43-35.181 2.808-13.098 6.085-30.994 9.83-53.686l-14.98 14.392z" id="Path-14" stroke="#7F4156" stroke-width=".7" fill="#7F4156" mask="url(#mask-4)"/></g><path d="M188.697 49.614c7.735 18.532 26.418 31.599 48.236 31.599 1.323 0 2.635-.048 3.933-.143-2.183 6.624-3.933 11.238-6.45 18.159-27.767-2.538-41.566-22.273-48.186-46.04a98.718 98.718 0 0 0 2.467-3.575z" id="Combined-Shape" fill="#FFF" transform="rotate(6 213.548 74.422)"/><g id="leg2" transform="rotate(7 -33.177 254.306)"><path d="M5.543 11.987C3.296 9.705 2.76 8.344 3.936 7.904c1.175-.44 2.513-.037 4.015 1.209-.835-.838-.812-1.422.069-1.752.881-.33 2.062-.114 3.541.647 3.399-.332 5.929-.315 7.59.05 2.49.547 1.646.93 7.698-2.321-5.608 5.88-12.71 7.964-21.306 6.25z" id="Path-18-Copy" fill="#CA937F" transform="rotate(9 15.09 9.152)"/><path d="M111.686 84.39c-4.103.862-5.15.162-9.428.162-24.367 0-40.725-7.325-55.804-28.552-.58-.817-3.296.013-3.986-2.059-.69-2.072 1.175-2.308.473-3.2-3.523-4.471-10.368-18.67-15.325-32.943C12.982 16.724 3.776 14.422 0 10.892c1.35-4.42 8.261 1.612 12.038-1.842 3.777-3.453 8.497.691 15.578-4.374C31.63-.618 34.698.303 35.642 1.684c.944 1.381 1.073 3.246 1.364 4.395 9.83 38.798 41.244 60.98 70.293 57.688 3.082-.349 3.454 6.14 6.473 5.703l-2.086 14.92z" id="Combined-Shape" fill="#DCA591"/><path d="M33.639 1.635c-2.595-.592-3.593.692-2.096 1.779 1.497 1.086 4.69-1.186 2.096-1.779z" id="Path-19" fill="#FFF" opacity=".4" transform="rotate(145 32.732 2.595)"/></g><path d="M122.857 75.734a63.92 63.92 0 0 0 17.215-2.36c-5.109 10.975-7.957 23.184-7.957 36.05 0 18.582 5.476 34.893 15.59 48.996-6.296 4.136-14.433 5.89-22.62 6.434-15.498 1.03-56.578-11.04-41.26-23.574-9.328-12.87 15.63-50.839 29.816-66.213 3.023.44 6.098.667 9.216.667z" id="Combined-Shape" fill="#EBE0E0" transform="rotate(6 114.083 119.145)"/><path d="M81.357 127.681c-4.69-5.556-7.2-13.138-7.2-22.098 0-19.333 16.243-35.005 36.28-35.005 20.038 0 20.134 2.09 11.504 35.005-7.128 27.185-.922 6.773-18.643 6.936-.347.003 1.753 15.666 2.427 22.348-5.225-4.646-12.262-7.492-20.002-7.492-1.484 0-2.942.105-4.366.306z" id="Combined-Shape" fill="#F5EBEB" transform="rotate(6 100.774 102.723)"/><path d="M137.195 75.083c-5.151 11.218-7.553 21.87-7.553 35.02 0 18.993 6.463 37.55 16.662 51.964-4.233 3.7-16.931 6.62-25.499 3.846-4.784-11.566-7.423-24.23-7.423-37.506 0-18.559.803-37.572 9.77-52.41 3.634-2.947 9.983-3.632 14.043-.914z" id="Combined-Shape" fill="#FFF" transform="rotate(6 129.843 120.193)"/><path d="M5.755 19.103c-1.258-2.952-1.258-4.428 0-4.428s2.358.854 3.302 2.563c-.472-1.087-.236-1.631.707-1.631.944 0 1.966.621 3.067 1.864.463-1.087 1.402-1.165 2.817-.233 2.123 1.399 5.438 4.428 12.278 3.496-7.39 3.574-14.78 3.03-22.171-1.631z" id="Path-18" fill="#DCA591" transform="rotate(6 16.369 18.867)"/><ellipse id="Oval-4-Copy-6" fill="#C4A1AC" transform="rotate(6 97.622 128.928)" cx="97.622" cy="128.928" rx="13.659" ry="20.614"/><g id="Path-15" transform="translate(0 12.578)"><mask id="mask-6" fill="#fff"><use xlink:href="#path-5"/></mask><use id="Combined-Shape" fill="#E1B2A1" fill-rule="nonzero" xlink:href="#path-5"/><path d="M112.687 106.834c-1.396 5.098-10.235 14.136-20.238 13.673-10.003-.464-35.127-6.258-49.55-32.445-2.11-3.833-7.21-4.403-4.652-9.965 1.074-2.333-4.095-9.46-7.444-23.174-1.315-5.385-2.556-16.123-3.722-32.212l-10.003 2.78 21.634 88.758c33.188 17.304 49.55 25.878 49.084 25.724-.465-.155 6.979-1.39 22.332-3.708 2.637-23.02 3.49-32.83 2.56-29.431z" fill="#DCA591" mask="url(#mask-6)"/></g><path d="M41.582 18.345c-2.858-2.164-5.172 1.118-3.053 2.88 2.118 1.762 5.91-.716 3.053-2.88z" id="Path-19" fill="#FFF" opacity=".35" transform="rotate(-26 40.157 19.727)"/><g id="hairs1" transform="rotate(6 -317.693 257.167)" fill="#9D796C"><path d="M61.424 67.934c-.408 2.223-.436 3.355-.085 3.396.35.041.796-1.046 1.335-3.262l-1.25-.134z" id="Path-11-Copy" transform="rotate(128 61.885 69.633)"/><path d="M43.538 62.96c-.408 2.222-.437 3.355-.086 3.396.351.04.796-1.047 1.336-3.262l-1.25-.135z" id="Path-11-Copy-36" transform="rotate(152 43.998 64.658)"/><path d="M31.578 51.833c-.296 1.614-.317 2.436-.062 2.466.254.03.578-.76.97-2.369l-.908-.097z" id="Path-11-Copy-37" transform="rotate(152 31.912 53.066)"/><path d="M12.899 40.752c-.296 1.614-.317 2.436-.062 2.466.254.03.578-.76.97-2.369l-.908-.097z" id="Path-11-Copy-38" transform="rotate(152 13.233 41.985)"/><path d="M13.867 19.89c-.296 1.614-.317 2.436-.062 2.466.254.03.578-.76.97-2.369l-.908-.097z" id="Path-11-Copy-39" transform="rotate(176 14.201 21.123)"/><path d="M11.92 1.866c-.135 2.25-.075 3.391.18 3.421.255.03.374-1.098.357-3.384l-.537-.037z" id="Path-11-Copy-41" transform="rotate(-171 12.2 3.577)"/><path d="M11.058 26.732c-.135 2.251-.075 3.392.18 3.422.255.03.374-1.098.358-3.385l-.538-.037z" id="Path-11-Copy-42" transform="rotate(151 11.339 28.443)"/><path d="M27.739 38.813c-.135 2.25-.075 3.391.18 3.421.254.03.373-1.098.357-3.384l-.537-.037z" id="Path-11-Copy-43" transform="rotate(173 28.019 40.524)"/><path d="M24.008 48.685c-.135 2.25-.075 3.391.18 3.421.255.03.374-1.098.357-3.384l-.537-.037z" id="Path-11-Copy-44" transform="rotate(135 24.288 50.396)"/><path d="M25.237 69.892c-.135 2.251-.075 3.392.18 3.422.254.03.374-1.099.357-3.385l-.537-.037z" id="Path-11-Copy-45" transform="rotate(112 25.517 71.603)"/><path d="M52.038 85.034c-.135 2.115-.029 3.186.318 3.213.347.028.676-1.017.986-3.132l-1.304-.08z" id="Path-11-Copy-46" transform="rotate(112 52.662 86.641)"/><path d="M75.854 100.27c-.135 2.115-.03 3.186.318 3.214.347.027.676-1.017.986-3.133l-1.304-.08z" id="Path-11-Copy-59" transform="rotate(66 76.478 101.877)"/><path d="M64.435 79.437c.078 2.625.29 3.95.638 3.978.347.028.53-1.373.549-4.203l-1.187.225z" id="Path-11-Copy-47" transform="rotate(112 65.029 81.314)"/><path d="M61.964 98.363c.165 1.995.42 3.006.768 3.034.347.027.675-1.017.986-3.133l-1.754.1z" id="Path-11-Copy-48" transform="rotate(84 62.841 99.83)"/><path d="M34.723 80.871c-.536 2.11-.63 3.179-.284 3.206.347.028.676-1.017.986-3.133l-.702-.073z" id="Path-11-Copy-49" transform="rotate(84 34.83 82.475)"/><path d="M69.279 89.644c-.536 2.11-.63 3.178-.284 3.206.347.027.676-1.017.986-3.133l-.702-.073z" id="Path-11-Copy-50" transform="rotate(84 69.386 91.247)"/><path d="M43.543 88.351c.012 1.225.086 1.848.222 1.871.136.024.38-.644.731-2.004l-.953.133z" id="Path-11-Copy-51" transform="rotate(84 44.02 89.22)"/><path d="M13.19 52.338c.012 1.225.086 1.848.222 1.872.136.023.38-.645.731-2.005l-.953.133z" id="Path-11-Copy-52" transform="rotate(84 13.666 53.208)"/><path d="M27.253 61.468c.012 1.224.086 1.848.222 1.871.136.024.38-.645.732-2.004l-.954.133z" id="Path-11-Copy-53" transform="rotate(122 27.73 62.337)"/><path d="M40.296 53.747c.012 1.224.086 1.848.222 1.87.136.024.38-.644.731-2.004l-.953.134z" id="Path-11-Copy-61" transform="rotate(172 40.773 54.616)"/><path d="M20.564 27.382c.012 1.224.086 1.848.223 1.871.136.023.38-.645.73-2.004l-.953.133z" id="Path-11-Copy-55" transform="rotate(-179 21.041 28.251)"/><path d="M3.753.141c.012 1.225.086 1.848.222 1.871.137.024.38-.645.732-2.004l-.954.133z" id="Path-11-Copy-56" transform="rotate(-179 4.23 1.01)"/><path d="M5.621 18.148c.012 1.224.086 1.848.222 1.87.136.024.38-.644.732-2.003l-.954.133z" id="Path-11-Copy-57" transform="rotate(-179 6.098 19.017)"/><path d="M14.677 9.443c.012 1.225.086 1.848.222 1.872.136.023.38-.645.73-2.005l-.952.133z" id="Path-11-Copy-58" transform="rotate(-168 15.153 10.313)"/><path d="M45.932 76.704c.012 1.225.086 1.848.222 1.872.136.023.38-.645.731-2.005l-.953.133z" id="Path-11-Copy-54" transform="rotate(122 46.409 77.574)"/><path d="M73.017 74.857c.012 1.225.086 1.849.222 1.872.136.023.38-.645.731-2.005l-.953.133z" id="Path-11-Copy-60" transform="rotate(122 73.493 75.727)"/><path d="M.969 9.256c-.296 1.615-.317 2.437-.062 2.466.255.03.578-.76.97-2.368l-.908-.098z" id="Path-11-Copy-40" transform="rotate(133 1.303 10.49)"/></g><g id="baloon" transform="rotate(-10 553.842 -1344.773)"><path id="Rectangle-10" fill="#FFF" transform="rotate(-5 21.204 44.426)" d="M20.494 9.253h1.419v70.345h-1.419z"/><g id="Group-9"><mask id="mask-8" fill="#fff"><use xlink:href="#path-7"/></mask><use id="Mask" fill="#FF92B3" transform="rotate(-4 18.426 15.412)" xlink:href="#path-7"/><g id="flag" mask="url(#mask-8)"><g transform="rotate(9 -67.786 121.028)"><path id="Rectangle-13" fill="#8E334E" d="M0 6.471h15.195v3.236H0z"/><path id="Rectangle-13-Copy" fill="#6983BC" d="M0 3.236h15.195v3.236H0z"/><path id="Rectangle-13-Copy-2" fill="#FFF" d="M0 0h15.195v3.236H0z"/></g></g></g><path d="M32.284 3.45c-2.032-1.327-8.515 1.63-4.967 4.192 3.548 2.563 7-2.866 4.967-4.192z" id="Path-19" fill-opacity=".4" fill="#FFF" transform="rotate(6 29.582 5.721)"/><path d="M10.11 3.675c-1.284-.839-5.38 1.03-3.139 2.65 2.242 1.618 4.423-1.812 3.139-2.65z" id="Path-19-Copy-2" fill-opacity=".4" fill="#FFF" transform="rotate(6 8.402 5.11)"/></g><g id="hairs2" transform="rotate(-4 376.014 -779.854)" fill="#9D796C"><path d="M25.464 41.625c-.246 1.53-.264 2.31-.052 2.338.212.028.48-.72.807-2.246l-.755-.092z" id="Path-11-Copy-37" transform="rotate(152 25.742 42.794)"/><path d="M9.256 31.803c-.246 1.53-.264 2.31-.052 2.338.212.028.481-.72.807-2.245l-.755-.093z" id="Path-11-Copy-38" transform="rotate(152 9.534 32.973)"/><path d="M10.392 13.577c-.247 1.224-.264 1.847-.052 1.87.212.023.48-.576.806-1.796l-.754-.074z" id="Path-11-Copy-39" transform="rotate(176 10.67 14.512)"/><path d="M14.972 9.828c-.106 1.846-.06 2.781.14 2.806.2.024.293-.9.28-2.775l-.42-.03z" id="Path-11-Copy-41" transform="rotate(-171 15.267 11.231)"/><path d="M7.472 20.164c-.105 1.846-.058 2.782.141 2.806.2.025.293-.9.28-2.775l-.42-.03z" id="Path-11-Copy-42" transform="rotate(151 7.768 21.568)"/><path d="M21.76 30.414c-.105 1.846-.059 2.781.141 2.805.2.025.293-.9.28-2.775l-.42-.03z" id="Path-11-Copy-43" transform="rotate(173 22.056 31.817)"/><path d="M18.455 38.897c-.105 1.846-.058 2.781.141 2.806.2.024.293-.901.28-2.776l-.42-.03z" id="Path-11-Copy-44" transform="rotate(135 18.75 40.3)"/><path d="M19.923 57.161c-.106 1.846-.06 2.782.14 2.806.2.024.293-.9.28-2.775l-.42-.03z" id="Path-11-Copy-45" transform="rotate(112 20.218 58.564)"/><path d="M4.886 26.942c.012 1.143.086 1.725.222 1.746.136.022.38-.601.731-1.87l-.953.124z" id="Path-11-Copy-52" transform="rotate(84 5.362 27.754)"/><path d="M21.452 49.7c.012 1.143.086 1.725.222 1.746.136.022.38-.602.731-1.87l-.953.124z" id="Path-11-Copy-53" transform="rotate(122 21.928 50.511)"/><path d="M32.892 43.152c.012 1.143.086 1.725.223 1.746.136.022.38-.601.73-1.87l-.953.124z" id="Path-11-Copy-61" transform="rotate(172 33.37 43.964)"/><path d="M17.857 19.646c.012 1.142.086 1.724.222 1.746.137.022.38-.602.732-1.87l-.954.124z" id="Path-11-Copy-55" transform="rotate(-179 18.334 20.457)"/><path d="M6.896.163c.012 1.142.086 1.724.222 1.746.136.021.38-.602.731-1.87l-.953.124z" id="Path-11-Copy-56" transform="rotate(-179 7.372 .974)"/><path d="M2.86 12.752c.012 1.142.086 1.724.222 1.746.136.022.38-.602.732-1.87l-.954.124z" id="Path-11-Copy-57" transform="rotate(132 3.337 13.563)"/><path d="M10.964 5.269c.012 1.142.086 1.724.222 1.746.136.022.38-.602.732-1.87l-.954.124z" id="Path-11-Copy-58" transform="rotate(-168 11.44 6.08)"/><path d="M14.89 26.05c.012 1.142.086 1.724.222 1.746.136.022.38-.602.732-1.87l-.954.124z" id="Path-11-Copy-60" transform="rotate(173 15.367 26.861)"/><path d="M1.369 5.038c-.246 1.53-.264 2.31-.052 2.338.212.028.48-.72.807-2.246l-.755-.092z" id="Path-11-Copy-40" transform="rotate(133 1.647 6.207)"/></g><g id="hand" transform="translate(161.714 81.759)"><path d="M1.408 30.646c0-15.109 13.535-26.96 29.792-26.96 4.535 0-3.05-1.227-3.05 3.227s-.156 7.373-4.691 7.373c-7.582 0-10.322 9.447-10.322 15.208 0 5.762 10.481 11.982 18.063 11.982l33.817 1.007c-2.304 5.844-9.945 13.685-13.22 18.522-33.629 3.5-50.39-15.25-50.39-30.359z" id="Combined-Shape" fill-opacity=".1" fill="#000"/><path d="M78.588 33.642c6.568 0 7.272 8.22 7.272 12.673 0 4.454 1.25 1.383-3.284 1.383 0 0 .452 2.458 0 2.534-19.862 3.38-37.457 4.609-52.783 3.687C13.536 53.92 0 42.07 0 26.96 0 11.85 13.536 0 29.793 0c4.535 0 8.21 3.61 8.21 8.065 0 4.454-3.675 8.065-8.21 8.065-7.582 0-13.372 5.068-13.372 10.83 0 5.76 5.79 10.83 13.372 10.83 16.265 1.382 32.53 0 48.795-4.148z" id="Rectangle-12" fill="#FDF7F7" fill-rule="nonzero"/><g id="Group-7" transform="rotate(-10 227.148 -362.761)"><ellipse id="Oval-5" fill="#9E5C6C" cx="22.521" cy="10.139" rx="5.63" ry="10.139"/><path d="M22.382 0C17.57 0 16.33 6.353 16.33 10.42c0 4.127 2.792 9.843 5.384 9.843l-20.33-1.556C-.425 14.182-1.43 7.84 5.553 2.115L22.382 0z" id="Combined-Shape" fill-opacity=".66" fill="#D3C9C9" fill-rule="nonzero"/><path d="M22.382 0c-4.19 0-5.272 6.353-5.272 10.42 0 4.127 2.432 9.843 4.69 9.843l-15.566-.716C3.74 16.936 2.89 14.092 2.89 10.311c0-4.067.68-6.314 3.518-8.984L22.382 0z" id="Combined-Shape" fill="#FFF" fill-rule="nonzero"/></g><path d="M87.553 32.544c-1.429 2.666-1.429 5.548 0 8.646 4.286 3.534 10.206 4.545 17.758 3.032 7.552-1.514 10.614-3.29 9.185-5.331 1.02-1.523 1.02-2.539 0-3.047 1.837-1.015.919-3.3-.306-3.3.919-.507 1.531-2.284 0-3.046-1.53-.761-3.368 1.016-7.654 2.031-4.287 1.015-10.716 1.27-10.41 0 .204-.846 2.755-.677 7.654.508l3.062-.508c-1.633-2.03-4.287-3.13-7.96-3.3-3.473-.16-5.896.085-7.961 1.27-1.213.695-2.708 1.814-3.368 3.045z" id="Path-13" fill="#E1B2A1" transform="rotate(-20 101.008 36.544)"/><path d="M87.908 34.508c-1.429 2.666-1.429 5.548 0 8.646 3.369 2.65 7.277 3.886 11.725 3.71 1.878-.075 1.49-2.703-.435-2.9 1.837-1.016 1.166-3.21-.059-3.21 1.584-.904 1.043-2.814-.059-3.208.902-.413 1.253-3.048-.895-3.254-1.122-.108-1.81-.364-1.704-.8.204-.845 2.755-.676 7.654.508.409-2.369-1.224-3.638-4.899-3.807-3.472-.16-5.895.085-7.96 1.269-1.213.695-2.708 1.814-3.368 3.046z" id="Path-13" fill="#DCA591" transform="rotate(-20 95.516 38.515)"/></g><path d="M113.297 75.149c-5.771-1.494-7.991 1.742-4.661 4.481s10.432-2.987 4.661-4.481z" id="Path-19" fill="#FFF" transform="rotate(6 111.281 77.566)"/><path d="M105.66 83.912c-12.985-2.988-17.98 3.485-10.488 8.963 7.491 5.477 23.474-5.976 10.488-8.963z" id="Path-19-Copy" fill="#FFF" transform="rotate(6 101.124 88.747)"/><g id="Path-21" transform="rotate(6 89.913 1718.518)"><mask id="mask-10" fill="#fff"><use xlink:href="#path-9"/></mask><use id="Mask" fill="#DD7657" xlink:href="#path-9"/><path d="M37.975-1.858C31.801-.155 27.633 1.472 25.471 3.02c-2.16 1.549-1.235 3.252 2.779 5.11-7.255-1.238-11.115-1.238-11.578 0-.463 1.24 2.779 3.33 9.726 6.273-5.25-1.424-7.873-1.037-7.873 1.161s1.698 5.14 5.094 8.827c-5.712-2.323-8.027-2.323-6.947 0 1.553 3.338 15.416 11.212 15.514 11.383 1.388 2.406 3.318 3.636 5.79 3.689-1.827-9.13-.437-16.487 4.167-22.069 5.558-6.736 13.625-2.984 17.599-3.484 4.737-.596 1.62-3.02 2.547-2.788C56.732 4.463 48.627.136 37.975-1.858z" fill="#E99177" mask="url(#mask-10)"/></g><g id="Path-22" transform="rotate(6 -265.209 2153.554)"><mask id="mask-12" fill="#fff"><use xlink:href="#path-11"/></mask><use id="Mask" fill="#E48467" xlink:href="#path-11"/><path d="M21.928 18.816c10.011 7.506 2.307-14.878 2.86-11.362.477 3.028-.187 4.658 1.43 10.482 1.618 5.823 8.581 10.249 7.538 10.744-1.044.494-3.929.627-8.73-1.66 2.608 2.514 3.374 3.545.767 3.545-2.608 0-5.597-1.414-8.968-4.243 2.077 1.563 2.572 2.663 1.484 3.3-1.632.957-8.783-2.426-13.168-7.49-4.386-5.065 2.963 3.025 3.44-.935 2.145 1.863 6.435 3.028 6.435-.233 2.86 3.727 12.156 3.908 6.912-2.148z" fill="#DD7657" mask="url(#mask-12)"/></g><ellipse id="Oval-6" fill="#E48467" transform="rotate(6 235.613 49.265)" cx="235.613" cy="49.265" rx="12.258" ry="11.53"/><path d="M242.079 42.009c-3.109-4.032-8.883-1.998-8.918 2.298-.01 1.338.416 4.155 1.304 5.307 8.609-1.01 8.004-7.1 7.614-7.605z" id="Oval-6-Copy" fill="#DCA591" transform="rotate(24 237.714 44.723)"/><path d="M240.99 46.298c-3.545 1.462 0 5.603 1.52 6.09 1.519.488 2.025-7.551-1.52-6.09z" id="Path-28" fill="#F4A189" transform="rotate(-9 241.567 49.265)"/><path d="M239.934 37.036c2.103 0 5.228-1.693 5.133-4.675-.094-2.98-3.207-.92-5.31-.92-2.103 0-3.093.043-3.093 2.359s1.168 3.236 3.27 3.236z" id="Oval-7" fill="#E1B2A1" transform="rotate(8 240.866 33.892)"/><path d="M221.982 19.1c.597.59 1.054 2.12 1.373 4.594-3.502-.141-6.126 1.045-7.872 3.559-.994-.981-1.873-1.591-2.635-1.83 2.387-5.194 5.431-7.302 9.134-6.323z" id="Path-23" fill="#E48467" transform="rotate(-9 218.101 23.06)"/><path d="M239.861 15.338c.359.44.628 1.097.807 1.97-1.165-.041-2.006.635-2.52 2.03-.845-.427-2.107-1.06-3.784-1.899 1.22-1.974 3.052-2.674 5.497-2.101z" id="Path-23-Copy" fill="#DD7657" transform="rotate(49 237.516 17.241)"/><path d="M240.576 20.965c.852-.093 1.691 4.308 1.691 5.505s-2.826 2.831-4.35 2.633a3.37 3.37 0 0 1-2.299-1.342c-.081-.111-.412-.592-.496-.703-.352-.465-.576-.566-.963-.374-.548.272-.312.32-.35 1.35-.047 1.313.15 2.139-.336 3.198-1.1 2.398-9.508 6.803-11.746 6.487-1.221-.173-3.108-2.414-5.729-5.984l-.312-.718c-.554-1.307 5.43-4.374 7.733-5.026.93-.263 2.409-.681 3.65-.82.991-.111 1.307-.134 3.574-.279 1.587-.1 2.134-.327 3.408-.815 1.275-.488 2.175-2.633 6.525-3.112zm-.182.843c-.965-.727-4.1 1.454-5.066 2.423-.965.97.483 2.423-.24 1.938-1.755-1.174-2.172 1.696-2.413.727-.241-.969-.563-.969-2.316-.969-4.342 0-10.951 3.008-11.192 4.846-.242 1.838 2.602 4.7 3.618 4.845 2.033.292 8.403-2.627 9.407-4.845.454-1.002.438-1.394.483-2.665.043-1.206-.175-2.908.724-3.392.898-.485 3.135 3.634 4.583 3.634 1.206 0 1.555-.456 2.894-1.212 1.34-.755.483-4.603-.482-5.33z" id="Path-25" fill="#603741" fill-rule="nonzero" transform="rotate(6 228.959 29.35)"/><path d="M215.646 27.952l-11.904 10.917.7 1.661c8.559-6.487 12.76-9.73 12.605-9.73-.156 0-.623-.95-1.401-2.848z" id="Path-26" fill="#603741" transform="rotate(6 210.396 34.241)"/><path d="M243.098 31.608c-2.996.958-3.813 2.633-1.906 2.633 1.906 0 4.903-3.59 1.906-2.633z" id="Path-27" fill="#F5CABB" transform="rotate(13 242.267 32.843)"/></g></g></svg>