<svg width="578" height="431" viewBox="0 0 578 431" xmlns="http://www.w3.org/2000/svg" xmlns:xlink="http://www.w3.org/1999/xlink"><defs><path id="path-1" d="M0 .058h77.943v76.709H0z"/></defs><g id="design" fill="none" fill-rule="evenodd"><g id="postcard_overlay_1"><g id="Group-12" transform="translate(107 39)"><g id="Group-7" transform="scale(-1 1) rotate(-8 566.176 1029.358)"><path d="M115.32 28.875c1.48-1.873.74-3.56-2.22-5.059s-5.982-2.623-9.065-3.372c1.092-2.709.65-4.25-1.323-4.625-1.973-.374-1.781 1.018.575 4.178-19.032-4.293-29.164-6.126-30.397-5.502-1.85.937-12.12-7.504-19.335-9.19-7.216-1.687-28.887-1.725-42.208 11.391-13.32 13.116-9.805 26.045-8.14 26.607 1.11.375 1.85-.25 2.22-1.873 1.234.749 1.542 1.686.925 2.81-.925 1.687-7.03 4.122-6.29 19.862.74 15.74 18.13 15.552 20.536 11.992 2.405-3.56.74-9.744-4.255-6.746-4.996 2.998-.926-6.183 1.48-7.495a51.605 51.605 0 0 1 4.625-2.248c5.056 10.243 8.387 15.74 9.99 16.489 2.405 1.124 10.36 2.81 14.985 0s6.66-9.182 2.405-9.744c-4.255-.562-6.29 2.998-5.365-2.248.617-3.498 1.234-5.684 1.85-6.558h7.77c.007 11.867.624 18.425 1.85 19.674 1.84 1.874 11.1 1.312 15.911-1.124 4.81-2.436 7.4-7.12 2.59-9.744-4.81-2.623-9.435 4.497-7.955 1.125.987-2.249 4.378-5.56 10.175-9.931 3.577 10.992 7.462 17.176 11.655 18.55 6.29 2.06 8.51.75 11.1-1.5 2.59-2.248 3.803-6.145 2.406-8.993-.972-1.982-4.62-1.691-6.29 0-4.07 4.122-2.405.187-4.81-8.807-2.406-8.994 1.295-5.059 3.7-5.246 2.405-.188 9.62-2.061 13.875-5.809 2.22.886 6.66-1.874 9.62-3.747 2.96-1.874-.271-.644-4.32-4.731 7.037 3.343 10.795 1.733 13.2-3.14 1.91-3.01-1.914-4.76-11.47-5.246z" id="Path-47" fill="#CD718E"/><path d="M115.983 28.162c1.48-1.868.74-3.55-2.22-5.044-2.96-1.494-5.982-2.615-9.066-3.362 1.1-3.45.236-5.442-2.59-5.979-2.827-.536-3.049 1.064-.666 4.8-17.966-4.928-27.566-7.08-28.8-6.457-1.85.934-4.203-.591-12.992-4.31C49.263 22.208 38.291 28.425 23.596 28.8c-1.353 9.623-2.935 13.698.052 21.186 2.987 7.489 9.354 8.888 16.66 8.068 4.87-.547 5.672-7.958 2.405-22.232 4.317 4.11 8.388 5.978 12.212 5.605 3.824-.374 7.277-2.865 10.361-7.473-4.687 20.55-4.934 28.148-.74 22.792 6.291-8.033 7.956-16.067 26.089-21.298-.555 1.308-3.7 6.913.925 8.034 4.626 1.12 9.621-1.495 12.582-3.363 1.973-1.245 3.207-2.99 3.7-5.231 9.745 1.868 15.42 1.183 17.023-2.055.863-1.993-2.097-3.55-8.882-4.67z" id="Path-47" fill="#F598B5"/><path d="M111.467 31.726c-.176 0-4.42-2.753-3.535-4.025.59-.848 1.517-.717 2.781.394.419-1.453 1.113-1.928 2.083-1.424 1.455.755-1.152 5.055-1.329 5.055z" id="Path-42-Copy-2" fill="#CD718E" transform="rotate(-1 110.523 29.101)"/><path d="M93.654 52.029c-6.101-5.94-8.814-14.127-8.137-24.562.376-5.79 2.624-10.6 2.961-13.034.16-1.147-4.113-2.962-5.092-.726-.782 1.784-4.014 12.3-1.643 24.339.648 3.292 3.46 7.983 8.436 14.073l3.475-.09z" id="Path-2" fill="#FFF"/><path d="M89.367 6.831c-.647 1.463-1.558 6.202-1.41 6.17 1.165-.254 8.488-3.328 7.053-7.54-.83-2.442-4.55-1.098-5.643 1.37zm2.635 6.75c-.785.348-2.934.876-6.447 1.584.66-6.013 1.696-10.162 3.107-12.447 2.386-3.865 7.191-2.953 8.357.47 1.692 4.97-.484 8.386-5.017 10.393z" id="Path-48" fill="#FFF" fill-rule="nonzero"/><path d="M82.205 9.986c.823.683 3.703 2.144 3.71 2.045.045-.785-.619-5.993-3.58-5.871-1.717.07-1.52 2.674-.13 3.826zm4.806-.407c.083.562.037 2.02-.137 4.375-3.743-1.54-6.222-2.97-7.437-4.29-2.055-2.231-.61-5.101 1.798-5.2 3.494-.143 5.298 1.873 5.776 5.115z" id="Path-48-Copy" fill="#FFF" fill-rule="nonzero"/></g><g id="Group-7-Copy" transform="rotate(-8 769.002 -1562.918)"><path d="M115.32 28.744c1.48-1.879.74-3.57-2.22-5.073-2.96-1.503-5.982-2.63-9.065-3.381 1.092-2.715.65-4.26-1.323-4.637-1.973-.375-1.781 1.02.575 4.189-19.032-4.304-29.164-6.143-30.397-5.516-1.85.939-12.12-7.524-19.335-9.215-7.216-1.69-28.887-1.73-42.208 11.421-13.32 13.151-9.805 26.114-8.14 26.678 1.11.375 1.85-.251 2.22-1.88 1.234.752 1.542 1.692.925 2.819-.925 1.69-7.03 4.133-6.29 19.914.74 15.78 18.13 15.593 20.536 12.023 2.405-3.57.74-9.769-4.255-6.763-4.996 3.006-.926-6.2 1.48-7.515a51.547 51.547 0 0 1 4.625-2.254c5.056 10.27 8.387 15.78 9.99 16.532 2.405 1.127 10.36 2.818 14.985 0s6.66-9.205 2.405-9.769c-4.255-.564-6.29 3.006-5.365-2.254.617-3.507 1.234-5.699 1.85-6.576h7.77c.007 11.899.624 18.474 1.85 19.726 1.84 1.879 11.1 1.315 15.911-1.127 4.81-2.442 7.4-7.139 2.59-9.769-4.81-2.63-9.435 4.509-7.955 1.127.987-2.254 4.378-5.573 10.175-9.957 3.577 11.022 7.462 17.221 11.655 18.6 6.29 2.066 8.51.75 11.1-1.504s3.803-6.161 2.406-9.017c-.972-1.987-4.62-1.696-6.29 0-4.07 4.133-2.405.187-4.81-8.83-2.406-9.018 1.295-5.072 3.7-5.26 2.405-.188 9.62-2.067 13.875-5.824 2.22.888 6.66-1.879 9.62-3.758 2.96-1.878-.271-.644-4.32-4.743 7.037 3.352 10.795 1.738 13.2-3.147 1.91-3.02-1.914-4.773-11.47-5.26z" id="Path-47" fill="#CD718E"/><path d="M115.983 28.029c1.48-1.873.74-3.559-2.22-5.057-2.96-1.499-5.982-2.623-9.066-3.372 1.1-3.458.236-5.456-2.59-5.994-2.827-.538-3.049 1.066-.666 4.813-17.966-4.941-27.566-7.1-28.8-6.475-1.85.937-2.006-1.46-13.669-5.473-6.79 5.748-11.133 6.327-11.673 15.34-.539 9.012-8.073 7.144-14.41 5.533-6.337-1.611-10.325.054-11.618 3.626-3.302 9.13-.897 17.396-.168 19.163C24.32 57.943 32.537 61.37 40.308 58c5.18-2.248 6.574-7.645 4.181-16.192 3.577.405 7.278.42 11.102.046 3.824-.375 7.055-3.047 9.695-8.017-4.687 20.604-4.934 28.221-.74 22.852 6.291-8.055 7.956-16.11 26.089-21.354-.555 1.311-3.7 6.93.925 8.055 4.626 1.123 9.621-1.499 12.582-3.372 1.973-1.249 3.207-2.997 3.7-5.245 9.745 1.873 15.42 1.186 17.023-2.06.863-1.998-2.097-3.56-8.882-4.683z" id="Path-47" fill="#F598B5"/><path d="M93.3 51.872c-6.102-5.955-8.814-14.164-8.137-24.626.376-5.805 2.624-10.627 2.961-13.068.16-1.15-4.113-2.97-5.093-.728-.78 1.788-4.582 11.113-.752 25.151.799 2.93 3.314 7.384 7.546 13.361l3.475-.09z" id="Path-2" fill="#FFF"/><path d="M90.78 7.169c-.648 1.466-1.56 6.218-1.412 6.185 1.166-.254 8.489-3.336 7.054-7.56-.831-2.447-4.55-1.1-5.643 1.375zm2.634 6.767c-.785.35-2.934.878-6.447 1.588.66-6.028 1.696-10.188 3.107-12.479C92.46-.83 97.265.084 98.43 3.516c1.692 4.983-.485 8.408-5.017 10.42z" id="Path-48" fill="#FFF" fill-rule="nonzero"/><path d="M81.16 10.182c.824.684 3.704 2.15 3.71 2.05.045-.787-.618-6.008-3.58-5.887-1.717.07-1.52 2.682-.13 3.837zm4.807-.408c.082.563.037 2.025-.137 4.386-3.743-1.544-6.222-2.978-7.437-4.3-2.056-2.238-.61-5.116 1.797-5.214 3.494-.144 5.299 1.877 5.777 5.128z" id="Path-48-Copy" fill="#FFF" fill-rule="nonzero"/><path d="M111.436 31.962c-.177 0-4.42-2.76-3.535-4.036.59-.85 1.516-.719 2.78.395.419-1.457 1.113-1.933 2.083-1.428 1.456.758-1.151 5.07-1.328 5.07z" id="Path-42-Copy-2" fill="#CD718E" transform="rotate(-1 110.492 29.33)"/></g><g id="crown" transform="rotate(1 -189.787 4515.655)"><g id="Group-3" transform="translate(0 23.93)"><mask id="mask-2" fill="#fff"><use xlink:href="#path-1"/></mask><path d="M17.908 7.681C-1.379 19.906-7.778 50.855 12.275 66.943c25.048 20.097 48.613 5.619 61.511-10.108C88.44 38.971 63.068-20.941 17.908 7.681" id="Fill-1" fill="#481930" mask="url(#mask-2)"/></g><path d="M22.709 31.834c-14.628 9.04-19.869 31.313-5.075 42.55 18.48 14.037 36.989 3.806 46.238-8.138 15.452-19.95-6.912-55.58-41.163-34.412" id="Fill-4" fill="#5E1D3E"/><path d="M20.09 17.732c-1.215-.55-7.193-8.395-7.193-8.395s11.118-5.031 10.238-4.695c-.881.335 2.238 12.127 2.238 12.127l9.657-4.201s4.247 7.978 2.152 7.764c-2.095-.215-9.473 1.583-9.473 1.583l3.763 4.64-10.233 4.91-.028-8.088s-5.71 6.224-6.044 5.339c-.333-.885-4.004-10.621-4.004-10.621l8.926-.363z" id="Fill-6" fill="#481930"/><path d="M75.459 53.094c-.161-3.994-2.084-6.113-3.119-8.273-4.544 5.784-19.385 12.789-25.71 13.846-5.917-8.56-9.899-23.561-12.92-33.934-4.866 1.13-10.038 3.276-15.48 6.682C24.258 41.909 32.197 56.054 32.52 64.04c-8.232 3.135-20.375 5.1-32.357 6.918.559 2.105 2.356 7.086 3.341 9.067 25.143-3.808 50.272-10.808 71.956-26.932" id="Fill-8" fill="#7F4156"/><path d="M28.797 31.844a2.138 2.138 0 0 1-2.927-.8 2.163 2.163 0 0 1 .795-2.943 2.14 2.14 0 0 1 2.928.801 2.161 2.161 0 0 1-.796 2.942" id="Fill-10" fill="#CD718E"/><path d="M33.196 43.514a2.138 2.138 0 0 1-2.927-.8 2.163 2.163 0 0 1 .796-2.943 2.14 2.14 0 0 1 2.927.802 2.161 2.161 0 0 1-.796 2.941" id="Fill-12" fill="#CD718E"/><path d="M37.596 55.185a2.14 2.14 0 0 1-2.928-.8 2.163 2.163 0 0 1 .797-2.943 2.14 2.14 0 0 1 2.927.801 2.162 2.162 0 0 1-.796 2.942" id="Fill-14" fill="#CD718E"/><path d="M42.44 68.037a2.138 2.138 0 0 1-2.926-.8 2.163 2.163 0 0 1 .796-2.943 2.14 2.14 0 0 1 2.927.802 2.16 2.16 0 0 1-.796 2.941" id="Fill-16" fill="#CD718E"/><path d="M10.455 74.67a2.515 2.515 0 0 1 1.24-3.323A2.492 2.492 0 0 1 15 72.592a2.517 2.517 0 0 1-1.24 3.325 2.493 2.493 0 0 1-3.306-1.246" id="Fill-18" fill="#CD718E"/><path d="M27.285 73.168a2.317 2.317 0 0 1-3.17-.867 2.342 2.342 0 0 1 .862-3.186 2.317 2.317 0 0 1 3.17.866 2.341 2.341 0 0 1-.862 3.187" id="Fill-20" fill="#CD718E"/><path d="M56.684 61.97a2.317 2.317 0 0 1-3.17-.866 2.342 2.342 0 0 1 .862-3.186 2.318 2.318 0 0 1 3.17.866 2.341 2.341 0 0 1-.862 3.187" id="Fill-22" fill="#CD718E"/><path d="M18.884 1.422a2.537 2.537 0 0 1-.935 3.453 2.51 2.51 0 0 1-3.435-.939A2.538 2.538 0 0 1 15.45.483a2.51 2.51 0 0 1 3.435.939" id="Fill-24" fill="#FFF"/><path d="M42.515 12.453a2.538 2.538 0 0 1-.934 3.454 2.51 2.51 0 0 1-3.436-.94 2.538 2.538 0 0 1 .935-3.453 2.51 2.51 0 0 1 3.435.94" id="Fill-27" fill="#FFF"/><path d="M10.991 24.08a2.537 2.537 0 0 1-.935 3.453 2.51 2.51 0 0 1-3.435-.94 2.538 2.538 0 0 1 .935-3.453 2.511 2.511 0 0 1 3.435.94" id="Fill-29" fill="#FFF"/><path d="M69.052 55.34a2.318 2.318 0 0 1-3.17-.866 2.341 2.341 0 0 1 .862-3.187 2.317 2.317 0 0 1 3.17.867 2.342 2.342 0 0 1-.862 3.186" id="Fill-31" fill="#CD718E"/><path d="M24.002 17.018s-6.287-11.13-1.171-12.392c3.862-.954 3.392 10.894 3.392 10.894s8.057-7.007 9.098-2.367c.618 2.758-9.251 5.781-9.251 5.781l4.895 6.644-4.574 1.344-1.497-7.54s-6.574 2.415-8.195 1.682c-1.622-.735-1.176-2.746 0-3.194 1.176-.449 7.303-.852 7.303-.852" id="Fill-33" fill="#F598B5"/></g><g id="скщцт" transform="rotate(11 113.136 1174.96)"><path d="M19.007 94.57v-8.403C3.177 72.805-2.551 59.547 1.822 46.396c4.373-13.152 14.213-18.388 29.52-15.709 2.555 4.14 6.491 6.21 11.808 6.21s9.52-2.07 12.61-6.21c13.12-3.41 22.473.974 28.061 13.152 5.588 12.177-.103 26.287-17.072 42.328v8.402c-8.536 1.948-16.443 2.923-23.72 2.923-7.277 0-15.284-.975-24.022-2.923z" id="Path-44" fill="#481930"/><path d="M65.235 30.687c8.503 1.949 14.091 5.602 16.764 10.96 4.009 8.037 2.915 18.266-1.093 20.823-2.673 1.705-9.962 1.34-21.867-1.096l6.196-30.687z" id="Path-45" fill="#5E1D3E"/><g id="Group-4" transform="rotate(23 18.72 98.404)"><path d="M6.688 10.524c-.91-.41-5.389-6.273-5.389-6.273S9.63.491 8.971.743c-.66.25 1.676 9.062 1.676 9.062l7.236-3.14s3.182 5.962 1.613 5.802c-1.57-.16-7.098 1.183-7.098 1.183l2.82 3.467-7.668 3.67-.021-6.044S3.25 19.393 3 18.732c-.25-.661-3-7.936-3-7.936l6.688-.272z" id="Fill-6" fill="#481930"/><path d="M9.179 9.3S4.468.985 8.3.04c2.894-.712 2.542 8.141 2.542 8.141s6.037-5.235 6.817-1.768c.463 2.06-6.932 4.32-6.932 4.32l3.668 4.965-3.428 1.004-1.121-5.635s-4.926 1.805-6.14 1.257c-1.216-.549-.881-2.052 0-2.386.88-.336 5.472-.637 5.472-.637" id="Fill-33" fill="#F598B5"/></g><path id="Rectangle-15" fill="#743E50" d="M39.36 28.495h8.017l-.729 65.758h-6.56z"/><path id="Rectangle-15" fill="#CD718E" transform="rotate(-6 32.006 61.558)" d="M27.392 29.296l8.126-.613 1.102 65.75-3.922-.412z"/><path id="Rectangle-15" fill="#F598B5" transform="scale(-1 1) rotate(-6 0 1104.072)" d="M50.057 28.681l8.05.114 1.102 65.75-3.922-.413z"/><path d="M19.007 97.008V86.167c8.343 1.786 16.35 2.68 24.022 2.68 7.672 0 15.579-.894 23.72-2.68v10.841c-8.536 2.515-16.443 3.772-23.72 3.772-7.277 0-15.284-1.257-24.022-3.772z" id="Path-44" fill="#743E50"/><ellipse id="Oval" fill="#743E50" cx="43.368" cy="25.938" rx="6.195" ry="6.21"/><ellipse id="Oval" fill="#F598B5" cx="44.826" cy="23.746" rx="4.009" ry="4.019"/><path d="M18.95 32.88c-4.737 0-12.755 3.652-14.941 14.612-2.187 10.96 2.55 11.325 12.39 10.96 9.84-.366 8.383-7.307 8.383-12.056 0-4.75-1.093-13.517-5.831-13.517z" id="Path-46" fill="#5E1D3E"/><g id="Group-9" transform="translate(21.866 35.802)"><ellipse id="Oval-2-Copy-3" fill="#CD718E" cx="21.502" cy="48.588" rx="1.822" ry="1.827"/><ellipse id="Oval-2-Copy-6" fill="#CD718E" cx="21.502" cy="40.551" rx="1.822" ry="1.827"/><ellipse id="Oval-2-Copy-7" fill="#CD718E" cx="21.502" cy="33.244" rx="1.822" ry="1.827"/><ellipse id="Oval-2-Copy-8" fill="#CD718E" cx="21.502" cy="25.207" rx="1.822" ry="1.827"/><ellipse id="Oval-2-Copy-9" fill="#CD718E" cx="21.502" cy="1.827" rx="1.822" ry="1.827"/><ellipse id="Oval-2-Copy-10" fill="#CD718E" cx="21.502" cy="9.864" rx="1.822" ry="1.827"/><ellipse id="Oval-2-Copy-11" fill="#CD718E" cx="21.502" cy="17.17" rx="1.822" ry="1.827"/><ellipse id="Oval-2" fill="#481930" cx="1.822" cy="55.894" rx="1.822" ry="1.827"/><ellipse id="Oval-2-Copy" fill="#481930" cx="9.111" cy="57.356" rx="1.822" ry="1.827"/><ellipse id="Oval-2-Copy-2" fill="#481930" cx="17.129" cy="58.086" rx="1.822" ry="1.827"/><ellipse id="Oval-2-Copy-3" fill="#481930" cx="24.417" cy="58.086" rx="1.822" ry="1.827"/><ellipse id="Oval-2-Copy-4" fill="#481930" cx="32.435" cy="58.086" rx="1.822" ry="1.827"/><ellipse id="Oval-2-Copy-5" fill="#481930" cx="40.453" cy="56.625" rx="1.822" ry="1.827"/></g></g></g></g></g></svg>