<svg width="803" height="678" viewBox="0 0 803 678" xmlns="http://www.w3.org/2000/svg" xmlns:xlink="http://www.w3.org/1999/xlink"><defs><path d="M109 0C95.753 97.807 88.325 169.143 86.714 214.01 86.544 218.736 78 217 78 226s8.073 10.049 8 14c-1.333 72 6.333 161.667 23 269-42 24.667-68.333 35.667-79 33-10-12-30-18-30 0s25 24 30 22 20 12 43 6 39-13 48-9 21 11 36 3-1-39-8-55-33-153-33-239c0-57.333 11-147.333 33-270h-40z" id="path-1"/><path d="M52 0c6.274 82.844 10.904 146.66 13.89 191.448C66.136 195.143 71 193 74 202c3 9-6.278 11.41-6.023 15 5.1 71.832-.226 163.498-15.977 275 42.82 29.888 69.488 43.221 80 40 13 0 24-10.378 28-4s-3 26.565-22.298 19.918c-8.702 6.647-19.345 13.03-42.627 8.242C71.792 551.372 53.778 547.534 45 552c-8.778 4.466-18.726 9.769-34.124 2.565C-4.522 547.36 0 525.948 15.986 499.22S35.501 343.186 31 257.304C28 200.049 17.666 115.948 0 5l52-5z" id="path-3"/><path d="M13 0L0 116c24.264 7.333 46.753 12 67.466 14 20.713 2 44.09 2 70.13 0 13.61-39.667 39.65-58.833 78.118-57.5 38.467 1.333 63.323 22.5 74.568 63.5 20.713 6 41.722 9 63.027 9s43.202-5 65.691-15L406 0H13z" id="path-5"/></defs><g id="d_final" fill="none" fill-rule="evenodd" transform="translate(-328)"><g id="men" transform="translate(328 -117)"><path d="M170.796 767c-32.842 0-98.527-.986-87.58 12.014C94.164 792.014 169 804 258 785c89-19 249.807-.193 279 6 29.193 6.193 166.573 2 162.923-11-3.649-13-93.538-19-204.352-19-110.815 0-291.933 6-324.775 6z" id="Path-9" fill="#9f4c64"/><g id="leg_left" transform="translate(94 210)"><g id="leg"><mask id="mask-2" fill="#fff"><use xlink:href="#path-1"/></mask><use id="Mask" fill="#E1B2A1" xlink:href="#path-1"/><path d="M95-14h58c15.333 30 13.667 49.667-5 59-18.667 9.333-36.333 7-53-7v-52z" id="Rectangle-2" fill="#CC9B8A" mask="url(#mask-2)"/><path id="Rectangle-5" fill="#CC9B8A" mask="url(#mask-2)" d="M63 129l24 26 19 92-48 30z"/><path d="M-16.067 533c4 10 27 23 46 23 8 5 28 13 49 2 14-7.333 26.689-15.667 38.067-25 12.667 4 21.667 4 27 0 5.333-4 7-12.333 5-25 8.753-3.233 13.42-4.567 14-4 12.761 12.47-.919 25.88 15.933 29 27 5 16 34-8 41s-109 17-146 7-45-58-41-48z" id="Path-3" fill="#CC9B8A" mask="url(#mask-2)"/></g><g id="hairs" transform="translate(84 33)" fill="#9D796C"><path d="M8.582 336.513c-2.085 8.478-2.752 12.812-2 13 .751.188 2.751-3.812 6-12l-4-1z" id="Path-11" transform="rotate(12 9.433 343.016)"/><path d="M11.582 63.789c-2.085 8.479-2.752 12.812-2 13 .751.188 2.751-3.812 6-12l-4-1z" id="Path-11-Copy-20" transform="rotate(12 12.433 70.292)"/><path d="M26.742 210.503c-2.085 8.479-2.751 12.812-2 13 .751.188 2.751-3.812 6-12l-4-1z" id="Path-11-Copy-10" transform="rotate(-40 27.593 217.006)"/><path d="M27.642 368.377c-2.264 10.577-3.02 15.96-2.27 16.147.752.188 2.842-4.861 6.27-15.147l-4-1z" id="Path-11-Copy" transform="rotate(-8 28.367 376.453)"/><path d="M42.642 100.377c-2.264 10.577-3.02 15.96-2.27 16.147.752.188 2.842-4.861 6.27-15.147l-4-1z" id="Path-11-Copy-22" transform="rotate(-45 43.367 108.453)"/><path d="M7.642 229.377c-2.264 10.577-3.02 15.96-2.27 16.147.752.188 2.842-4.861 6.27-15.147l-4-1z" id="Path-11-Copy-11" transform="rotate(-8 8.367 237.453)"/><path d="M58.045 448.168c-2.264 10.576-3.02 15.959-2.27 16.147.752.187 2.842-4.862 6.27-15.147l-4-1z" id="Path-11-Copy-5" transform="rotate(-41 58.77 456.244)"/><path d="M58.045 7.425c-2.264 10.576-3.02 15.959-2.27 16.147.752.187 2.842-4.862 6.27-15.147l-4-1z" id="Path-11-Copy-24" transform="rotate(-41 58.77 15.5)"/><path d="M38.045 309.168c-2.264 10.576-3.02 15.959-2.27 16.147.752.187 2.842-4.862 6.27-15.147l-4-1z" id="Path-11-Copy-12" transform="rotate(-41 38.77 317.244)"/><path d="M44.013 36.848c-2.264 10.577-3.02 15.96-2.27 16.147.752.188 2.842-4.861 6.27-15.147l-4-1z" id="Path-11-Copy-25" transform="rotate(-41 44.738 44.924)"/><path d="M30.24 444.507c-2.092 6.713-2.763 10.164-2.012 10.352.752.188 2.756-2.93 6.012-9.352l-4-1z" id="Path-11-Copy-6" transform="rotate(-11 31.085 449.687)"/><path d="M22.24 97.507c-2.092 6.713-2.763 10.164-2.012 10.352.752.188 2.756-2.93 6.012-9.352l-4-1z" id="Path-11-Copy-26" transform="rotate(-11 23.085 102.687)"/><path d="M10.24 305.507c-2.092 6.713-2.763 10.164-2.012 10.352.752.188 2.756-2.93 6.012-9.352l-4-1z" id="Path-11-Copy-13" transform="rotate(-11 11.085 310.687)"/><path d="M16.132 28.63c-1.518 4.869-2.005 7.372-1.46 7.508.545.136 1.999-2.125 4.361-6.783l-2.901-.726z" id="Path-11-Copy-27" transform="rotate(27 16.745 32.387)"/><path d="M23.41 423.687c-1.722 5.525-2.274 8.364-1.656 8.519.619.154 2.268-2.41 4.948-7.696l-3.292-.823z" id="Path-11-Copy-7" transform="rotate(24 24.105 427.95)"/><path d="M29.378 151.368c-1.722 5.524-2.274 8.364-1.656 8.518.618.155 2.267-2.41 4.947-7.695l-3.291-.823z" id="Path-11-Copy-28" transform="rotate(-23 30.073 155.63)"/><path d="M3.41 284.687c-1.722 5.525-2.274 8.364-1.656 8.519.619.154 2.268-2.41 4.948-7.696l-3.292-.823z" id="Path-11-Copy-14" transform="rotate(24 4.105 288.95)"/><path d="M16.661 1.817c-2.94 7.37-3.882 11.159-2.827 11.365 1.056.206 3.872-3.216 8.447-10.267l-5.62-1.098z" id="Path-11-Copy-29" transform="rotate(24 17.849 7.504)"/><path d="M13.122 400.396c-1.52 7.102-2.028 10.717-1.524 10.843.505.126 1.908-3.264 4.21-10.171l-2.686-.672z" id="Path-11-Copy-2" transform="rotate(16 13.609 405.82)"/><path d="M16.122 125.396c-1.52 7.102-2.028 10.717-1.524 10.843.505.126 1.908-3.264 4.21-10.171l-2.686-.672z" id="Path-11-Copy-30" transform="rotate(16 16.609 130.82)"/><path d="M34.585 344.204c-1.52 7.103-2.028 10.717-1.524 10.843.505.126 1.908-3.264 4.21-10.171l-2.686-.672z" id="Path-11-Copy-15" transform="rotate(-38 35.072 349.627)"/><path d="M40.553 71.885c-1.52 7.102-2.029 10.716-1.524 10.842.504.126 1.908-3.264 4.21-10.17l-2.686-.672z" id="Path-11-Copy-31" transform="rotate(-38 41.04 77.308)"/><path d="M24.322 467.251c-.5 4.728-.497 7.154.007 7.28.505.126 1.327-1.843 2.467-5.909l-2.474-1.37z" id="Path-11-Copy-8" transform="rotate(16 25.372 470.894)"/><path d="M22.322 322.251c-.5 4.728-.497 7.154.007 7.28.505.126 1.327-1.843 2.467-5.909l-2.474-1.37z" id="Path-11-Copy-16" transform="rotate(16 23.372 325.894)"/><path d="M28.29 49.932c-.5 4.727-.498 7.154.007 7.28.504.126 1.327-1.844 2.467-5.91l-2.474-1.37z" id="Path-11-Copy-32" transform="rotate(16 29.34 53.574)"/><path d="M53.858 428.89c-.5 4.726-.498 7.153.007 7.28.504.125 1.326-1.844 2.466-5.91l-2.473-1.37z" id="Path-11-Copy-9" transform="rotate(-71 54.908 432.532)"/><path d="M32.858 185.825c-.5 4.727-.498 7.154.007 7.28.504.126 1.326-1.843 2.466-5.909l-2.473-1.37z" id="Path-11-Copy-33" transform="rotate(-71 33.908 189.468)"/><path d="M33.858 289.89c-.5 4.726-.498 7.153.007 7.28.504.125 1.326-1.844 2.466-5.91l-2.473-1.37z" id="Path-11-Copy-17" transform="rotate(-71 34.908 293.532)"/><path d="M39.825 17.57c-.5 4.727-.497 7.153.007 7.28.505.126 1.327-1.844 2.467-5.91l-2.474-1.37z" id="Path-11-Copy-34" transform="rotate(-71 40.876 21.212)"/><path d="M43.658 399.929c-2.12 9.366-2.927 14.113-2.423 14.239.505.126 2.208-4.397 5.11-13.568l-2.687-.671z" id="Path-11-Copy-3" transform="rotate(-42 43.717 407.05)"/><path d="M23.658 260.929c-2.12 9.366-2.927 14.113-2.423 14.239.505.126 2.208-4.397 5.11-13.568l-2.687-.671z" id="Path-11-Copy-18" transform="rotate(-42 23.717 268.05)"/><path d="M46.158 377.534c-1.818 4.982-2.51 7.507-2.078 7.574.433.067 1.893-2.339 4.38-7.216l-2.302-.358z" id="Path-11-Copy-4" transform="rotate(-42 46.208 381.322)"/><path d="M26.158 238.534c-1.818 4.982-2.51 7.507-2.078 7.574.433.067 1.893-2.339 4.38-7.216l-2.302-.358z" id="Path-11-Copy-19" transform="rotate(-42 26.208 242.322)"/></g></g><path id="Rectangle-3" fill="#FFF" transform="rotate(-12 101.117 364.89)" d="M19.365 265.833h163.503v198.114H19.365z"/><g id="Group-4" transform="rotate(-12 1535.937 27.097)"><path id="Rectangle-4" stroke="#CD718E" stroke-width="4" d="M2 2h18v18H2z"/><path id="Rectangle-4-Copy-4" fill="#EFE2E2" d="M38 0h83v22H38z"/><path id="Rectangle-4-Copy" stroke="#CD718E" stroke-width="4" d="M2 40h18v18H2z"/><path id="Rectangle-4-Copy-5" fill="#EFE2E2" d="M38 38h83v22H38z"/><path id="Rectangle-4-Copy-2" stroke="#CD718E" stroke-width="4" d="M2 78h18v18H2z"/><path id="Rectangle-4-Copy-6" fill="#EFE2E2" d="M38 76h83v22H38z"/><path id="Rectangle-4-Copy-3" stroke="#CD718E" stroke-width="4" d="M2 116h18v18H2z"/><path id="Rectangle-4-Copy-7" fill="#EFE2E2" d="M38 114h83v22H38z"/></g><g id="leg_right" transform="translate(520 224)"><g id="l" transform="translate(17)"><mask id="mask-4" fill="#fff"><use xlink:href="#path-3"/></mask><use id="Mask" fill="#E1B2A1" xlink:href="#path-3"/><path d="M-7-17h58c21.333 12.667 23.667 28.333 7 47S19.667 54.333-7 47v-64zm177.77 536c4-10-4 38-41 48s-122 0-146-7-35-36-8-41c16.85-3.12 3.171-16.53 15.932-29 .58-.567 5.247.767 14 4-2 12.667-.333 21 5 25 5.334 4 14.334 4 27 0 11.379 9.333 24.068 17.667 38.068 25 21 11 41 3 49-2 19 0 42-13 46-23z" id="Combined-Shape" fill="#CC9B8A" mask="url(#mask-4)"/></g><g id="hairs-copy" transform="scale(-1 1) rotate(4 -574.225 -1138.04)" fill="#9D796C"><path d="M21.582 315.513c-2.085 8.478-2.752 12.812-2 13 .751.188 2.751-3.812 6-12l-4-1z" id="Path-11" transform="rotate(12 22.433 322.016)"/><path d="M7.043 48.416c-2.085 8.479-2.751 12.812-2 13 .751.188 2.751-3.812 6-12l-4-1z" id="Path-11-Copy-20" transform="rotate(12 7.894 54.92)"/><path d="M45.863 192.49c-2.085 8.48-2.751 12.813-2 13 .751.189 2.751-3.811 6-12l-4-1z" id="Path-11-Copy-10" transform="rotate(-40 46.714 198.994)"/><path d="M40.642 347.377c-2.264 10.577-3.02 15.96-2.27 16.147.752.188 2.842-4.861 6.27-15.147l-4-1z" id="Path-11-Copy" transform="rotate(-8 41.367 355.453)"/><path d="M52.581 93.898c-2.264 10.576-3.02 15.959-2.269 16.147.751.187 2.841-4.862 6.27-15.147l-4-1z" id="Path-11-Copy-22" transform="rotate(-45 53.306 101.974)"/><path d="M11.131 217.568c-2.264 10.576-3.02 15.959-2.27 16.146.752.188 2.842-4.86 6.27-15.146l-4-1z" id="Path-11-Copy-11" transform="rotate(19 11.856 225.644)"/><path d="M71.045 427.168c-2.264 10.576-3.02 15.959-2.27 16.147.752.187 2.842-4.862 6.27-15.147l-4-1z" id="Path-11-Copy-5" transform="rotate(-41 71.77 435.244)"/><path d="M8.379 113.328c-5.07 8.403-7.23 12.698-6.478 12.886.751.187 4.512-3.799 11.282-11.96l-4.804-.926z" id="Path-11-Copy-24" transform="rotate(3 7.47 119.774)"/><path d="M51.045 288.168c-2.264 10.576-3.02 15.959-2.27 16.147.752.187 2.842-4.862 6.27-15.147l-4-1z" id="Path-11-Copy-12" transform="rotate(-41 51.77 296.244)"/><path d="M57.013 15.848c-2.264 10.577-3.02 15.96-2.27 16.147.752.188 2.842-4.861 6.27-15.147l-4-1z" id="Path-11-Copy-25" transform="rotate(-41 57.738 23.924)"/><path d="M43.24 423.507c-2.092 6.713-2.763 10.164-2.012 10.352.752.188 2.756-2.93 6.012-9.352l-4-1z" id="Path-11-Copy-6" transform="rotate(-11 44.085 428.687)"/><path d="M35.24 76.507c-2.092 6.713-2.763 10.164-2.012 10.352.752.188 2.756-2.93 6.012-9.352l-4-1z" id="Path-11-Copy-26" transform="rotate(-11 36.085 81.687)"/><path d="M23.24 284.507c-2.092 6.713-2.763 10.164-2.012 10.352.752.188 2.756-2.93 6.012-9.352l-4-1z" id="Path-11-Copy-13" transform="rotate(-11 24.085 289.687)"/><path d="M19.728 24.024c-1.518 4.87-2.005 7.372-1.46 7.508.545.137 1.999-2.124 4.361-6.783l-2.901-.725z" id="Path-11-Copy-27" transform="rotate(27 20.34 27.781)"/><path d="M36.41 402.687c-1.722 5.525-2.274 8.364-1.656 8.519.619.154 2.268-2.41 4.948-7.696l-3.292-.823z" id="Path-11-Copy-7" transform="rotate(24 37.105 406.95)"/><path d="M42.378 130.368c-1.722 5.524-2.274 8.364-1.656 8.518.618.155 2.267-2.41 4.947-7.695l-3.291-.823z" id="Path-11-Copy-28" transform="rotate(-23 43.073 134.63)"/><path d="M11.304 264.244c-1.722 5.525-2.274 8.364-1.656 8.519.618.154 2.267-2.41 4.947-7.696l-3.291-.823z" id="Path-11-Copy-14" transform="rotate(24 12 268.507)"/><path d="M27.017 177.962c-1.722 5.525-2.274 8.364-1.656 8.519.618.154 2.268-2.41 4.948-7.696l-3.292-.823z" id="Path-11-Copy-21" transform="rotate(24 27.712 182.225)"/><path d="M15.4 139.047c.746 6.67 1.428 10.083 2.047 10.238.618.155.975-3.433 1.072-10.763l-3.118.525z" id="Path-11-Copy-35" transform="rotate(7 16.96 143.906)"/><path d="M15.54 89.685c-1.722 5.524-2.274 8.364-1.656 8.518.618.155 2.268-2.41 4.947-7.695l-3.291-.823z" id="Path-11-Copy-23" transform="rotate(24 16.235 93.947)"/><path d="M6.825 5.7c-2.94 7.37-3.883 11.158-2.827 11.364 1.056.207 3.871-3.216 8.447-10.266L6.825 5.7z" id="Path-11-Copy-29" transform="rotate(24 8.012 11.387)"/><path d="M28.117 379.257c-1.52 7.102-2.028 10.716-1.524 10.842.505.126 1.908-3.264 4.21-10.17l-2.686-.672z" id="Path-11-Copy-2" transform="rotate(16 28.604 384.68)"/><path d="M3.917 171.396c-1.52 7.102-2.029 10.717-1.524 10.843.504.126 1.908-3.264 4.21-10.171l-2.686-.672z" id="Path-11-Copy-30" transform="rotate(16 4.403 176.82)"/><path d="M47.585 323.204c-1.52 7.103-2.028 10.717-1.524 10.843.505.126 1.908-3.264 4.21-10.171l-2.686-.672z" id="Path-11-Copy-15" transform="rotate(-38 48.072 328.627)"/><path d="M53.553 50.885c-1.52 7.102-2.029 10.716-1.524 10.842.504.126 1.908-3.264 4.21-10.17l-2.686-.672z" id="Path-11-Copy-31" transform="rotate(-38 54.04 56.308)"/><path d="M50.43 447.34c-.5 4.727-.498 7.154.007 7.28.505.126 1.327-1.844 2.467-5.91l-2.474-1.37z" id="Path-11-Copy-8" transform="rotate(16 51.48 450.982)"/><path d="M35.322 301.251c-.5 4.728-.497 7.154.007 7.28.505.126 1.327-1.843 2.467-5.909l-2.474-1.37z" id="Path-11-Copy-16" transform="rotate(16 36.372 304.894)"/><path d="M41.29 28.932c-.5 4.727-.498 7.154.007 7.28.504.126 1.327-1.844 2.467-5.91l-2.474-1.37z" id="Path-11-Copy-32" transform="rotate(16 42.34 32.574)"/><path d="M65.86 407.959c-.5 4.727-.498 7.154.007 7.28.504.126 1.327-1.844 2.467-5.909l-2.474-1.371z" id="Path-11-Copy-9" transform="rotate(-71 66.91 411.602)"/><path d="M45.858 164.825c-.5 4.727-.498 7.154.007 7.28.504.126 1.326-1.843 2.466-5.909l-2.473-1.37z" id="Path-11-Copy-33" transform="rotate(-71 46.908 168.468)"/><path d="M49.571 264.69c-.5 4.727-.497 7.154.007 7.28.505.126 1.327-1.844 2.467-5.91l-2.474-1.37z" id="Path-11-Copy-17" transform="rotate(-71 50.622 268.332)"/><path d="M32.858.746c-.5 4.727-.498 7.154.007 7.28.504.126 1.326-1.844 2.466-5.91L32.858.747z" id="Path-11-Copy-34" transform="rotate(-42 33.908 4.388)"/><path d="M56.658 378.929c-2.12 9.366-2.927 14.113-2.423 14.239.505.126 2.208-4.397 5.11-13.568l-2.687-.671z" id="Path-11-Copy-3" transform="rotate(-42 56.717 386.05)"/><path d="M36.658 239.929c-2.12 9.366-2.927 14.113-2.423 14.239.505.126 2.208-4.397 5.11-13.568l-2.687-.671z" id="Path-11-Copy-18" transform="rotate(-42 36.717 247.05)"/><path d="M59.158 356.534c-1.818 4.982-2.51 7.507-2.078 7.574.433.067 1.893-2.339 4.38-7.216l-2.302-.358z" id="Path-11-Copy-4" transform="rotate(-42 59.208 360.322)"/><path d="M48.021 221.856c-1.817 4.982-2.51 7.507-2.077 7.574.433.067 1.893-2.339 4.38-7.217l-2.303-.357z" id="Path-11-Copy-19" transform="rotate(-42 48.072 225.644)"/></g></g><path d="M125.75 79.659c-21.72 16.474-50.284 152.476-54.264 160.436-3.98 7.96-13.594 14.968-9.282 46.806 4.313 31.84 19.263 56.492 22.248 53.507 2.985-2.984-16.945-41.61-12.966-41.61 3.98 0 17.783 48.609 24.748 52.589 6.965 3.98-18.778-56.57-14.798-56.57 3.98 0 18.705 58.134 24.675 58.134 5.97 0-18.705-65.098-15.72-60.123 2.984 4.975 18.064 50.495 25.03 52.485 6.964 1.99-22.046-59.45-18.066-73.38 2.654-9.286 7.077-13.09 13.27-11.414 0 0 2.315.03 6.943.088-2.415-9.495-17.228-12.552-17.228-20.512 0-7.96 33.373-130.491 67.293-147.728 0 0-20.162-29.183-41.882-12.708z" id="Path-2" fill="#E1B2A1" transform="rotate(-9 114.374 213.785)"/><g id="Group-2" transform="translate(183 117)"><mask id="mask-6" fill="#fff"><use xlink:href="#path-5"/></mask><use id="Mask" fill="#FFF" xlink:href="#path-5"/><g mask="url(#mask-6)" fill="#FFB7CD"><g transform="translate(0 -18)"><path d="M12.541 72c-5 0-18-31-10-34 5.333-2 8.667 0 10 6 5.333-8 10-10 14-6 6 6-9 34-14 34z" id="Path-10"/><path d="M56.541 117c-5 0-18-31-10-34 5.333-2 8.667 0 10 6 5.333-8 10-10 14-6 6 6-9 34-14 34z" id="Path-10-Copy"/><path d="M84.541 54c-5 0-18-31-10-34 5.333-2 8.667 0 10 6 5.333-8 10-10 14-6 6 6-9 34-14 34z" id="Path-10-Copy-2"/><path d="M156.541 81c-5 0-18-31-10-34 5.333-2 8.667 0 10 6 5.333-8 10-10 14-6 6 6-9 34-14 34z" id="Path-10-Copy-3"/><path d="M304.541 104c-5 0-18-31-10-34 5.333-2 8.667 0 10 6 5.333-8 10-10 14-6 6 6-9 34-14 34z" id="Path-10-Copy-5"/><path d="M349.541 36c-5 0-18-31-10-34 5.333-2 8.667 0 10 6 5.333-8 10-10 14-6 6 6-9 34-14 34z" id="Path-10-Copy-6"/><path d="M427.541 80c-5 0-18-31-10-34 5.333-2 8.667 0 10 6 5.333-8 10-10 14-6 6 6-9 34-14 34z" id="Path-10-Copy-7"/><path d="M236.08 45.196c-3.221 0-11.597-19.974-6.443-21.907 3.437-1.289 5.585 0 6.444 3.866 3.436-5.155 6.443-6.444 9.02-3.866 3.867 3.866-5.799 21.907-9.02 21.907z" id="Path-10-Copy-4"/><path d="M305.08 162.196c-3.221 0-11.597-19.974-6.443-21.907 3.437-1.289 5.585 0 6.444 3.866 3.436-5.155 6.443-6.444 9.02-3.866 3.867 3.866-5.799 21.907-9.02 21.907z" id="Path-10-Copy-10"/><path d="M123.08 150.196c-3.221 0-11.597-19.974-6.443-21.907 3.437-1.289 5.585 0 6.444 3.866 3.436-5.155 6.443-6.444 9.02-3.866 3.867 3.866-5.799 21.907-9.02 21.907z" id="Path-10-Copy-8"/><path d="M373.08 138.196c-3.221 0-11.597-19.974-6.443-21.907 3.437-1.289 5.585 0 6.444 3.866 3.436-5.155 6.443-6.444 9.02-3.866 3.867 3.866-5.799 21.907-9.02 21.907z" id="Path-10-Copy-9"/></g></g><path d="M202.5 236.443c56.057 0 116.5-23 116.5-93 0-48.474-20.36-81.914-54-98-14.939-7.144-18.5 13-46.5 13-35 0-34.595-20.7-44.5-17-37.769 14.108-56 51.496-56 97 0 57.437 28.443 98 84.5 98z" id="Oval-2" fill-opacity=".1" fill="#000" mask="url(#mask-6)"/></g><g id="tickets" transform="rotate(13 -374.34 2811.2)"><g id="Group-6-Copy" transform="rotate(9 4.557 72.766)" fill="#663244"><path d="M128.862 68H4.5A4.5 4.5 0 0 1 0 63.5v-59A4.5 4.5 0 0 1 4.5 0h124.362c-.014.15-.02.3-.02.453 0 2.754 2.218 4.987 4.955 4.987s4.955-2.233 4.955-4.987c0-.152-.006-.304-.02-.453H177.5a4.5 4.5 0 0 1 4.5 4.5v59a4.5 4.5 0 0 1-4.5 4.5h-38.768c.014-.15.02-.3.02-.453 0-2.754-2.218-4.987-4.955-4.987s-4.955 2.233-4.955 4.987c0 .152.006.304.02.453z" id="Combined-Shape"/></g><g id="Group-6" transform="rotate(15 8.149 79.68)"><path d="M128.862 68H4.5A4.5 4.5 0 0 1 0 63.5v-59A4.5 4.5 0 0 1 4.5 0h124.362c-.014.15-.02.3-.02.453 0 2.754 2.218 4.987 4.955 4.987s4.955-2.233 4.955-4.987c0-.152-.006-.304-.02-.453H177.5a4.5 4.5 0 0 1 4.5 4.5v59a4.5 4.5 0 0 1-4.5 4.5h-38.768c.014-.15.02-.3.02-.453 0-2.754-2.218-4.987-4.955-4.987s-4.955 2.233-4.955 4.987c0 .152.006.304.02.453z" id="Combined-Shape" fill="#7F4156"/><path d="M150.293 36.595c-.04.041-.098.113-.164.199-1.46-.066-3.083-.074-4.19-.184-.49-.049-.862.09-1.215.45l-.041.043c-.146.15-.228.298-.067.43l3.773 2.337c-.244.639-.34 1.186-.106 1.426a.379.379 0 0 0 .06.05c.013.021.03.042.048.06.234.24.767.143 1.39-.107l2.276 3.872c.129.165.273.081.418-.068 0 0 .042-.043.043-.043.351-.361.486-.745.438-1.247-.106-1.137-.114-2.803-.179-4.301a2.46 2.46 0 0 0 .195-.168l4.563-4.684 5.784 9.37c.35.436.683.266 1.005-.064l.092-.095c.209-.214.252-.56.111-.887l-2.632-12.8 4.357-4.472c.447-.46 1.503-2.73.796-3.456a.748.748 0 0 0-.057-.052.754.754 0 0 0-.05-.058c-.707-.726-2.92.358-3.367.817l-4.358 4.472-12.47-2.702c-.318-.144-.654-.1-.863.114l-.093.095c-.322.33-.488.673-.063 1.032l9.13 5.936-4.564 4.685z" id="Fill-1" fill="#FFF" transform="rotate(45 155.906 33.582)"/></g></g><path d="M665.63 13.562C643.908 30.037 615.344 166.04 611.364 174c-3.98 7.96-13.595 14.967-9.282 46.806 4.312 31.839 19.263 56.492 22.248 53.507 2.985-2.985-16.946-41.61-12.966-41.61 3.98 0 14.114 42.137 26.024 45.546 6.373 1.823-3.363-10.156-9.746-24.434-5.546-12.404-8.179-25.093-6.328-25.093 3.98 0 10.544 42.593 26.567 46.078 8.237 1.791-1.922-5.656-8.846-20.537-6.545-14.065-7.4-30.02-5.325-27.507 4.273 5.171 11.448 40.696 24.214 42.646 6.294.962-2.53-8.913-8.547-23.684-6.186-15.19-9.215-33.465-9.673-41.898-.601-11.09.772-19.96 4.12-26.609 1.8-1.1 5.072-3.223 9.819-6.372-9.07-8.169-12.218-.509-12.218-8.468 0-7.96 32.165-118.863 66.085-136.1 0 0-20.161-29.182-41.882-12.708z" id="Path-2-Copy" fill="#E1B2A1" transform="scale(-1 1) rotate(13 0 -5598.82)"/></g></g></svg>