<svg xmlns="http://www.w3.org/2000/svg" xmlns:xlink="http://www.w3.org/1999/xlink" width="26" height="21" viewBox="0 0 26 21"><defs><path id="3o60a" d="M642.71 330.784a10.43 10.43 0 0 1-2.945.781 5.055 5.055 0 0 0 2.273-2.781 10.367 10.367 0 0 1-3.234 1.219 5.172 5.172 0 0 0-3.742-1.563 5.078 5.078 0 0 0-5.118 5.024c0 .381.045.761.133 1.132a14.664 14.664 0 0 1-10.625-5.25 4.937 4.937 0 0 0-.695 2.532 5 5 0 0 0 2.273 4.164 5.211 5.211 0 0 1-2.343-.625v.062a5.055 5.055 0 0 0 4.117 4.93 5.117 5.117 0 0 1-2.32.086 5.117 5.117 0 0 0 4.789 3.492 10.555 10.555 0 0 1-7.563 2.094 14.773 14.773 0 0 0 7.867 2.273c7.91.14 14.436-6.153 14.586-14.062v-.883a10.281 10.281 0 0 0 2.547-2.625"/></defs><g><g transform="translate(-617 -328)"><use fill="#f6f5fa" xlink:href="#3o60a"/></g></g></svg>