<svg xmlns="http://www.w3.org/2000/svg" xmlns:xlink="http://www.w3.org/1999/xlink" width="19" height="32" viewBox="0 0 19 32"><defs><path id="qoxya" d="M711.5 338c-4.687 0-8.5-3.812-8.5-8.498 0-4.688 3.813-8.502 8.5-8.502 4.688 0 8.5 3.813 8.5 8.502 0 4.686-3.812 8.498-8.5 8.498zm-3.518-8.498a3.523 3.523 0 0 0 3.518 3.518c1.94 0 3.52-1.579 3.52-3.518a3.523 3.523 0 0 0-3.52-3.52 3.523 3.523 0 0 0-3.518 3.52z"/><path id="qoxyb" d="M714.925 344.368a16.194 16.194 0 0 0 4.915-1.959c1.16-.702 1.508-2.176.779-3.292a2.478 2.478 0 0 0-1.549-1.057 2.56 2.56 0 0 0-1.871.307c-3.469 2.099-7.932 2.097-11.398 0a2.56 2.56 0 0 0-1.871-.307 2.477 2.477 0 0 0-1.548 1.057c-.73 1.116-.382 2.59.777 3.292a16.21 16.21 0 0 0 4.915 1.96l-4.733 4.555a2.327 2.327 0 0 0-.641 2.307c.229.823.898 1.467 1.754 1.687.856.221 1.769-.015 2.395-.618l4.65-4.476 4.652 4.477c.465.447 1.095.699 1.753.699.657 0 1.288-.252 1.752-.7a2.339 2.339 0 0 0 .728-1.687c0-.634-.262-1.24-.728-1.688l-4.731-4.557z"/></defs><g><g transform="translate(-702 -321)"><use fill="#fff" xlink:href="#qoxya"/></g><g transform="translate(-702 -321)"><use fill="#fff" xlink:href="#qoxyb"/></g></g></svg>