<svg xmlns="http://www.w3.org/2000/svg" xmlns:xlink="http://www.w3.org/1999/xlink" width="28" height="17" viewBox="0 0 28 17"><defs><path id="cmria" d="M462.73 346.657h1.672c.283-.032.55-.15.765-.339.156-.22.238-.483.234-.753 0 0 0-2.287 1.009-2.626 1.009-.34 2.344 2.212 3.736 3.19a2.62 2.62 0 0 0 1.868.575l3.736-.056s1.962-.123 1.028-1.695a12.69 12.69 0 0 0-2.802-3.276c-2.345-2.221-2.037-1.882.794-5.695 1.718-2.334 2.41-3.765 2.195-4.377-.215-.612-1.467-.433-1.467-.433h-4.212a.928.928 0 0 0-.542.094c-.161.12-.29.278-.374.461a25.11 25.11 0 0 1-1.56 3.351c-1.868 3.248-2.624 3.418-2.933 3.22-.71-.47-.532-1.883-.532-2.89 0-3.144.467-4.453-.934-4.791a7.083 7.083 0 0 0-1.971-.198 8.929 8.929 0 0 0-3.493.367c-.477.235-.85.772-.626.8.48.044.926.273 1.242.64.293.603.437 1.268.42 1.94 0 0 .253 3.699-.579 4.16-.57.32-1.345-.33-3.017-3.276a27.616 27.616 0 0 1-1.457-3.153 1.272 1.272 0 0 0-.308-.47 1.72 1.72 0 0 0-.645-.265l-4.025.02s-.598 0-.822.282c-.225.282 0 .725 0 .725s3.138 7.474 6.688 11.24a9.534 9.534 0 0 0 6.949 3.228z"/></defs><g><g transform="translate(-449 -330)"><use fill="#f6f5fa" xlink:href="#cmria"/></g></g></svg>