<svg xmlns="http://www.w3.org/2000/svg" xmlns:xlink="http://www.w3.org/1999/xlink" width="34" height="33" viewBox="0 0 34 33"><defs><path id="5s3ua" d="M41.663 83.9H43v-4.469C43 76.104 40.791 74 37.363 74H14.638C11.209 74 9 76.104 9 79.431v4.47h1.336c2.496 0 4.331 2.096 4.331 4.403v4.391c0 2.308-1.835 4.405-4.331 4.405H9v4.469c0 3.327 2.21 5.431 5.638 5.431h22.724c3.428 0 5.637-2.104 5.637-5.431v-4.47h-1.336c-2.496 0-4.33-2.097-4.33-4.404v-4.391c0-2.307 1.834-4.404 4.33-4.404zm-6.586 12.125c0 4.24-3.533 7.675-7.893 7.675h-2.36c-4.358 0-7.892-3.436-7.892-7.674v-7.752c0-4.239 3.534-7.674 7.893-7.674h2.36c4.36 0 7.892 3.435 7.892 7.674v7.752z"/><path id="5s3ub" d="M27.192 82h-2.527C21 82 18 85.234 18 88.78v7.44c0 3.546 3 6.78 6.665 6.78h2.527C30.856 103 34 99.766 34 96.22v-7.439c0-3.546-3.144-6.78-6.81-6.78zm4.511 11.048c0 2.319-2.5 4.426-5.017 4.426h-1.384c-2.516 0-5.017-2.107-5.017-4.425v-4.412c0-2.32 2.501-4.426 5.017-4.426h1.384c2.518 0 5.017 2.107 5.017 4.425z"/><path id="5s3uc" d="M25.464 94.914h-.123c-1.677 0-3.245-.968-3.245-2.69v-1.629S22.094 90 21.543 90c-.548 0-.543.595-.543.595v1.628C21 94.543 23.063 96 25.341 96h.123s.536-.008.536-.532c0-.527-.536-.554-.536-.554"/></defs><g><g transform="translate(-9 -74)"><g><use fill="#fff" xlink:href="#5s3ua"/></g><g><use fill="#fff" xlink:href="#5s3ub"/></g><g><use fill="#fff" xlink:href="#5s3uc"/></g></g></g></svg>