<svg xmlns="http://www.w3.org/2000/svg" xmlns:xlink="http://www.w3.org/1999/xlink" width="139" height="29" viewBox="0 0 139 29"><defs><path id="w5y3a" d="M56.609 39.026h1.095v-3.704c0-2.758-1.809-4.502-4.616-4.502H34.477c-2.808 0-4.617 1.744-4.617 4.502v3.704h1.094c2.044 0 3.547 1.738 3.547 3.65v3.64c0 1.913-1.503 3.651-3.547 3.651H29.86v3.704c0 2.758 1.81 4.502 4.617 4.502h18.61c2.807 0 4.616-1.744 4.616-4.502v-3.705h-1.094c-2.044 0-3.546-1.738-3.546-3.65v-3.64c0-1.912 1.502-3.65 3.546-3.65zm-5.402 10.05c0 3.514-2.891 6.362-6.46 6.362h-1.931c-3.568 0-6.46-2.848-6.46-6.361v-6.426c0-3.513 2.892-6.36 6.46-6.36h1.932c3.568 0 6.459 2.847 6.459 6.36v6.426z"/><path id="w5y3b" d="M44.745 37.21h-2.052c-2.977 0-5.413 2.668-5.413 5.593v6.138c0 2.925 2.436 5.593 5.413 5.593h2.052c2.976 0 5.529-2.668 5.529-5.593v-6.137c0-2.925-2.553-5.593-5.53-5.593zm3.672 9.12c0 1.915-2.032 3.655-4.078 3.655h-1.125c-2.045 0-4.078-1.74-4.078-3.653v-3.644c0-1.914 2.033-3.654 4.078-3.654h1.125c2.046 0 4.078 1.74 4.078 3.653z"/><path id="w5y3c" d="M43.85 48.147h-.104c-1.42 0-2.748-.813-2.748-2.26V44.52s-.002-.5-.468-.5c-.464 0-.46.5-.46.5v1.367c0 1.948 1.747 3.172 3.676 3.172h.104s.454-.007.454-.447c0-.442-.454-.465-.454-.465"/><path id="w5y3d" d="M76.373 49.889l-.3-1.39h-.072c-.494.611-.99 1.025-1.482 1.242-.492.217-1.106.326-1.844.326-.985 0-1.757-.25-2.316-.748-.558-.499-.839-1.209-.839-2.128 0-1.972 1.605-3.004 4.813-3.1l1.686-.052v-.605c0-.766-.167-1.332-.503-1.697-.335-.365-.87-.547-1.609-.547-.827 0-1.764.249-2.809.747l-.463-1.13a7.11 7.11 0 0 1 1.61-.615 7.085 7.085 0 0 1 1.753-.222c1.185 0 2.062.258 2.633.774.571.517.856 1.345.856 2.484v6.66h-1.113zm-3.403-1.042c.935 0 1.669-.253 2.203-.757.533-.505.8-1.21.8-2.119v-.882l-1.502.062c-1.193.041-2.054.224-2.582.548-.527.323-.791.826-.791 1.51 0 .534.164.94.493 1.22.33.278.788.418 1.38.418z"/><path id="w5y3e" d="M82.67 49.89l-3.77-9.76h1.613l2.138 5.789c.484 1.353.768 2.23.852 2.635h.074c.066-.316.275-.966.629-1.954a793.72 793.72 0 0 1 2.38-6.47h1.613l-3.77 9.76h-1.76z"/><path id="w5y3f" d="M89.59 37.48c0-.339.084-.588.253-.744a.893.893 0 0 1 .635-.236c.24 0 .45.08.625.24.175.16.263.407.263.74 0 .331-.088.578-.263.743a.887.887 0 0 1-.625.245.877.877 0 0 1-.635-.245c-.17-.165-.253-.412-.253-.743zm.125 12.402h1.495v-9.758h-1.495z"/><path id="w5y3g" d="M100.443 49.889l-.299-1.39h-.072c-.495.611-.99 1.025-1.483 1.242-.491.217-1.106.326-1.844.326-.984 0-1.757-.25-2.315-.748-.559-.499-.84-1.209-.84-2.128 0-1.972 1.605-3.004 4.814-3.1l1.685-.052v-.605c0-.766-.167-1.332-.503-1.697-.335-.365-.87-.547-1.608-.547-.828 0-1.764.249-2.81.747l-.463-1.13a7.11 7.11 0 0 1 1.61-.615 7.085 7.085 0 0 1 1.754-.222c1.184 0 2.061.258 2.632.774.572.517.857 1.345.857 2.484v6.66h-1.115zm-3.403-1.042c.936 0 1.67-.253 2.203-.757.534-.505.8-1.21.8-2.119v-.882l-1.5.062c-1.195.041-2.056.224-2.584.548-.527.323-.791.826-.791 1.51 0 .534.165.94.493 1.22.33.278.788.418 1.38.418z"/><path id="w5y3h" d="M110.972 47.225c0 .908-.344 1.609-1.033 2.102-.689.492-1.656.738-2.9.738-1.318 0-2.346-.204-3.083-.614v-1.372c.477.238.99.424 1.537.562.517.132 1.048.2 1.582.204.784 0 1.39-.123 1.812-.369.423-.246.635-.623.635-1.126 0-.38-.168-.706-.503-.976-.336-.27-.99-.589-1.963-.956-.924-.34-1.581-.635-1.971-.886-.39-.253-.68-.539-.87-.86-.19-.32-.285-.703-.285-1.148 0-.796.329-1.424.988-1.884.658-.46 1.561-.69 2.71-.69 1.07 0 2.114.214 3.135.642l-.534 1.202c-.997-.404-1.901-.606-2.71-.606-.713 0-1.25.11-1.614.33-.362.218-.543.522-.543.908 0 .26.067.484.204.668.135.183.354.358.657.525.301.166.882.406 1.74.721 1.178.422 1.974.846 2.388 1.273.413.428.621.965.621 1.612"/><path id="w5y3i" d="M119.442 49.889l-.298-1.39h-.073c-.495.611-.99 1.025-1.482 1.242-.492.217-1.106.326-1.844.326-.985 0-1.757-.25-2.316-.748-.558-.499-.839-1.209-.839-2.128 0-1.972 1.605-3.004 4.813-3.1l1.686-.052v-.605c0-.766-.167-1.332-.503-1.697-.335-.365-.87-.547-1.609-.547-.827 0-1.764.249-2.809.747l-.463-1.13a7.11 7.11 0 0 1 1.61-.615 7.085 7.085 0 0 1 1.753-.222c1.185 0 2.062.258 2.632.774.572.517.857 1.345.857 2.484v6.66h-1.115zm-3.402-1.042c.935 0 1.669-.253 2.203-.757.533-.505.8-1.21.8-2.119v-.882l-1.502.062c-1.193.041-2.054.224-2.582.548-.527.323-.791.826-.791 1.51 0 .534.164.94.493 1.22.33.278.788.418 1.38.418z"/><path id="w5y3j" d="M123.56 49.884h1.504V36.03h-1.504z"/><path id="w5y3k" d="M132.379 50.064c-1.468 0-2.627-.44-3.476-1.317-.849-.88-1.273-2.1-1.273-3.66 0-1.573.395-2.822 1.183-3.748.788-.927 1.847-1.389 3.177-1.389 1.244 0 2.23.401 2.954 1.206.725.804 1.088 1.866 1.088 3.183v.935h-6.843c.03 1.145.325 2.015.884 2.61.559.592 1.346.89 2.361.89a8.14 8.14 0 0 0 3.172-.66v1.318c-.486.21-.991.373-1.509.485-.475.099-1.047.147-1.718.147m-.407-8.877c-.797 0-1.434.254-1.908.763-.475.509-.754 1.212-.838 2.113h5.193c0-.93-.212-1.642-.635-2.136-.423-.494-1.027-.74-1.812-.74"/><path id="w5y3l" d="M144.913 47.225c0 .908-.345 1.609-1.033 2.102-.689.492-1.655.738-2.9.738-1.318 0-2.345-.204-3.083-.614v-1.372c.478.238.99.424 1.537.562.517.132 1.048.2 1.582.204.785 0 1.39-.123 1.812-.369.423-.246.635-.623.635-1.126 0-.38-.168-.706-.503-.976-.336-.27-.99-.589-1.963-.956-.924-.34-1.581-.635-1.971-.886-.39-.253-.68-.539-.87-.86-.19-.32-.286-.703-.286-1.148 0-.796.33-1.424.989-1.884.659-.46 1.562-.69 2.709-.69 1.07 0 2.116.214 3.136.642l-.535 1.202c-.996-.404-1.9-.606-2.71-.606-.712 0-1.25.11-1.613.33-.363.218-.544.522-.544.908 0 .26.068.484.205.668.135.183.355.358.657.525.302.166.882.406 1.74.721 1.178.422 1.975.846 2.388 1.273.414.428.62.965.62 1.612"/><path id="w5y3m" d="M147.05 48.941c0-.399.093-.7.277-.904.184-.205.448-.307.792-.307.35 0 .625.102.82.307.197.204.296.505.296.904 0 .385-.1.682-.3.89-.2.207-.472.311-.816.311-.308 0-.562-.093-.766-.28-.202-.186-.303-.494-.303-.921"/><path id="w5y3n" d="M156.641 39.95a6 6 0 0 1 1.187.106l-.207 1.372a5.201 5.201 0 0 0-1.088-.133c-.804 0-1.492.32-2.062.96-.571.641-.857 1.44-.857 2.396v5.235h-1.504v-9.759h1.241l.173 1.808h.072c.368-.636.812-1.126 1.332-1.47a3.034 3.034 0 0 1 1.713-.515"/><path id="w5y3o" d="M161.013 40.13v6.33c0 .795.185 1.39.553 1.78.369.393.946.589 1.731.589 1.04 0 1.8-.28 2.28-.837.48-.558.72-1.469.72-2.734V40.13h1.504v9.758h-1.24l-.218-1.308h-.082c-.308.48-.735.848-1.283 1.104-.546.254-1.17.382-1.87.382-1.21 0-2.114-.282-2.716-.845-.6-.564-.902-1.467-.902-2.707V40.13z"/></defs><g><g transform="translate(-29 -30)"><g><use fill="#fff" xlink:href="#w5y3a"/></g><g><use fill="#fff" xlink:href="#w5y3b"/></g><g><use fill="#fff" xlink:href="#w5y3c"/></g><g><use fill="#fff" xlink:href="#w5y3d"/></g><g><use fill="#fff" xlink:href="#w5y3e"/></g><g><use fill="#fff" xlink:href="#w5y3f"/></g><g><use fill="#fff" xlink:href="#w5y3g"/></g><g><use fill="#fff" xlink:href="#w5y3h"/></g><g><use fill="#fff" xlink:href="#w5y3i"/></g><g><use fill="#fff" xlink:href="#w5y3j"/></g><g><use fill="#fff" xlink:href="#w5y3k"/></g><g><use fill="#fff" xlink:href="#w5y3l"/></g><g><use fill="#fff" xlink:href="#w5y3m"/></g><g><use fill="#fff" xlink:href="#w5y3n"/></g><g><use fill="#fff" xlink:href="#w5y3o"/></g></g></g></svg>