<svg width="371" height="301" viewBox="0 0 371 301" xmlns="http://www.w3.org/2000/svg" xmlns:xlink="http://www.w3.org/1999/xlink"><defs><path id="path-1" d="M.68.017h261.394V80H.68z"/><path id="path-3" d="M.691.829h12.862v18.373H.69z"/><path id="path-5" d="M.323.529h50.523v48.973H.323z"/></defs><g id="d_quest2-copy" fill="none" fill-rule="evenodd" transform="translate(-302 -249)"><g id="question_3" transform="translate(302 249)"><path d="M154.358 241.307S-4.636 143.504 29.913 61.732c33.665-79.678 127.927-23.039 139.468.96 9.62-16.32 28.856-70.078 104.843-47.038 75.986 23.04 41.248 132.92-14.965 175.417-56.212 42.498-76.64 75.253-104.9 50.236" id="Fill-1" fill="#BE5E7C"/><path d="M139 240c0 7.18-13.431 13-30 13-16.569 0-30-5.82-30-13s13.431-13 30-13c16.569 0 30 5.82 30 13" id="Fill-3" fill="#FFAAC0"/><path d="M130 239c0 5.522-10.52 10-23.5 10S83 244.522 83 239s10.52-10 23.5-10 23.5 4.478 23.5 10" id="Fill-5" fill="#FF92B3"/><path d="M119.564 235.752l-8.016-11.35.58-54.74C125.567 166.586 136 143.953 136 116.484c0-13.561-.62-35.579-4.812-45.013-8.387-5.957-33.493-5.957-43.946-.036C83.304 80.739 82 103.389 82 116.485c0 27.469 10.434 50.102 23.871 53.176l.576 54.162h-.12l-8.057 12.042c-.997.693-1.567 1.49-1.567 2.342 0 2.647 5.505 4.793 12.297 4.793 6.792 0 12.297-2.146 12.297-4.793 0-.898-.634-1.737-1.733-2.455" id="Fill-7" fill="#FF92B3"/><path d="M131 75c0 3.314-9.626 6-21.5 6S88 78.314 88 75s9.626-6 21.5-6 21.5 2.686 21.5 6" id="Fill-9" fill="#CD718E"/><path d="M83.106 114.256S90.092 110 107.288 110c17.196 0 25.794 2.66 27.407 3.192 1.611.532-2.688 54.808-24.182 54.808-21.496 0-28.482-37.78-27.407-53.744" id="Fill-11" fill="#481930"/><path d="M134 116.5c0 3.037-11.193 5.5-25 5.5s-25-2.463-25-5.5c0-3.038 11.193-5.5 25-5.5s25 2.462 25 5.5" id="Fill-13" fill="#7F4156"/><path d="M88.105 79s9.226 4.132 20.967 3.306c-8.386 11.57-13.418 58.678-5.871 69.422 7.548 10.744 15.096 4.96 16.773 5.786 1.679.826 2.517 6.612-7.548 7.438-10.064.826-33.546-8.265-24.32-85.952" id="Fill-15" fill="#FFF" opacity=".4"/><path d="M95 92c0 4.418-2.014 8-4.5 8-2.485 0-4.5-3.582-4.5-8s2.015-8 4.5-8c2.486 0 4.5 3.582 4.5 8" id="Fill-17" fill="#FFF" opacity=".4"/><path d="M108.022 170v56.103s-10.153 11.55-7.615 13.2c2.538 1.65 12.691 4.125 16.076 1.65s-10.999 0-10.153-4.125c.846-4.126 3.384-10.725 3.384-10.725V170h-1.692z" id="Fill-19" fill="#FFF" opacity=".4"/><path d="M115.214 137.495c-3.181 4.826.226 13.943-5.677 13.943-6.489 0-3.244 6.562 3.244 6.562C125.756 158 129 142.448 129 131.754c0-11.483-10.543.82-13.786 5.741" id="Fill-21" fill="#E48467" opacity=".4"/><path d="M58.926 250.835c-1.145 7.254-15.248 10.97-31.5 8.3-16.251-2.671-28.497-10.717-27.352-17.97 1.145-7.254 15.248-10.97 31.5-8.3 16.251 2.671 28.497 10.717 27.352 17.97" id="Fill-23" fill="#FFAAC0"/><path d="M49.944 248.191c-.874 5.428-11.856 8.174-24.529 6.136-12.671-2.038-22.234-8.091-21.36-13.519.876-5.426 11.857-8.174 24.53-6.135 12.672 2.039 22.235 8.091 21.36 13.518" id="Fill-25" fill="#FF92B3"/><path d="M41.087 243.128l-6.13-12.481 9.35-53.977c13.82-.906 27.793-21.607 32.196-48.738 2.174-13.395 5.09-35.24 2.445-45.223-7.362-7.213-32.257-11.193-43.572-7.002-5.396 8.565-10.32 30.73-12.42 43.665-4.402 27.132 2.316 51.14 15.148 56.307l-8.112 53.588-.12-.019-9.919 10.617c-1.098.526-1.792 1.224-1.928 2.064-.425 2.615 4.69 5.608 11.425 6.684 6.734 1.076 12.537-.17 12.962-2.786.144-.886-.35-1.815-1.325-2.699" id="Fill-27" fill="#FF92B3"/><path d="M76.98 85.825c-.505 3.084-10.307 4.095-21.894 2.26-11.587-1.837-20.57-5.826-20.066-8.91.505-3.084 10.308-4.095 21.894-2.26 11.586 1.837 20.57 5.827 20.066 8.91" id="Fill-29" fill="#CD718E"/><path d="M24.625 116.582s7.101-2.835 24.054-2.564c18.731.298 26.153 3.264 26.282 4.938.82 10.699-11.245 58.25-32.168 54.873-20.923-3.377-21.742-41.69-18.168-57.247" id="Fill-31" fill="#481930"/><path d="M73 121.79c-.097 3.285-9.642 5.594-23.352 5.157-13.708-.437-24.745-3.454-24.647-6.737.096-3.285 11.287-5.594 24.996-5.157 13.71.437 23.098 3.454 23.002 6.737" id="Fill-33" fill="#7F4156"/><path d="M34.13 83s8.317 5.542 19.87 6.568c-9.998 10.139-22.383 55.995-16.749 67.82 5.635 11.824 13.897 7.283 15.397 8.364 1.5 1.082 1.397 6.942-8.525 6.18-9.92-.764-31.318-13.457-9.993-88.932" id="Fill-35" fill="#FFF" opacity=".4"/><path d="M36.955 96.057a3.5 3.5 0 1 1-6.91-1.114 3.5 3.5 0 0 1 6.91 1.114" id="Fill-37" fill="#FFF" opacity=".4"/><path d="M39.39 176l-8.809 55.49s-11.465 9.848-9.312 11.874c2.155 2.026 11.418 6.052 15.024 4.13 3.606-1.923-10.456-1.71-9.004-5.659 1.452-3.947 4.901-10.082 4.901-10.082l8.81-55.49-1.61-.263z" id="Fill-39" fill="#FFF" opacity=".4"/><path d="M56.975 154.449c-4.037 4.351-7.334 4.77-13.37 3.798-6.631-1.068-3.287 4.57 3.345 5.638 9.156 1.475 18.015-11.518 19.755-22.32 1.87-11.6-5.613 8.446-9.73 12.884" id="Fill-41" fill="#E48467" opacity=".5"/><g id="Group-45" transform="translate(98 221)"><mask id="mask-2" fill="#fff"><use xlink:href="#path-1"/></mask><path d="M262.074 40.009C262.074 62.095 203.56 80 131.377 80 59.194 80 .68 62.095.68 40.01.68 17.922 59.194.017 131.377.017c72.182 0 130.697 17.905 130.697 39.992" id="Fill-43" fill="#EBE0E0" mask="url(#mask-2)"/></g><path d="M335 254.5c0 18.502-47.234 33.5-105.5 33.5S124 273.002 124 254.5c0-18.502 47.234-33.5 105.5-33.5S335 235.998 335 254.5" id="Fill-46" fill="#C4A1AC"/><path d="M146.67 164.114c-6.67-2.517-10.996 37.503-7.331 40.577 3.666 3.074 14.661-17.829 14.661-17.829s-2.443-20.903-7.33-22.748" id="Fill-48" fill="#923546"/><path d="M214 156.21c1.225-.216 50.069-24.02 58.247-24.205 8.179-.184 22.232 4.277-6.363 28.288C237.288 184.303 214 156.21 214 156.21" id="Fill-50" fill="#923546"/><path d="M212.21 11.95C211.45 6.9 203.335 2 203.335 2l-2.217 7.303s-1.452-2.004-1.507-5.901c-.054-3.898-3.547 4.261-3.547 4.261s-.469-3.954-2.273-4.135c-.831-.083-1.22.556-1.4 1.27-.73-.078-1.464.067-1.672.878-.452 1.757 3.096 3.558 3.096 3.558s-8.856.473-5.219 1.866c3.638 1.393 5.016 3.448 5.016 3.448L186 14.116s1.801 9.312 6.276 11.765c4.474 2.452 7.172-.24 7.172-.24s.868 3.034-2.186 4.342c-2.822 1.21 3.385 3.172 6.83-2.49-.043.359-.488-.078-.438.296a4.327 4.327 0 0 0 4.785 3.723c13.376 21.29 55.937 88.907 58.412 91.228 2.939 2.757 6.62 1.194 6.62 1.194s-2.645 4.82-1.401 7.078c1.243 2.256 5.668 2.899 5.668 2.899s-1.433 1.925-.507 2.576c.927.651 2.007.49 2.007.49s10.312 26.198 17.113 26.91c10.1 1.059.697 3.26 2.757 4.112 2.06.851.487 1.67 1.21 2.913.723 1.243 4.282-1.386 4.282-1.386l-1.878 2.752s3.05 4.531 8.94 3.594c.014.02.03.043.044.062.014-.023.024-.047.037-.07.027-.005.052-.006.08-.011-.014-.019-.03-.043-.043-.063 2.907-5.212-.293-9.638-.293-9.638l-3.229.817s3.693-2.439 2.777-3.547c-.918-1.107-2.228.09-2.317-2.14-.09-2.23-5.392 5.849-2.907-4.006 1.674-6.636-19.347-25.35-19.347-25.35s.523-.958.232-2.053c-.291-1.095-2.591-.412-2.591-.412s.921-4.378-.768-6.324c-1.688-1.946-7.122-1.12-7.122-1.12s2.735-2.923 1.16-6.633c-1.325-3.127-50.191-66.539-65.5-86.37a4.31 4.31 0 0 0 .357-2.38 4.33 4.33 0 0 0-3.44-3.667c6.733-1.18 7.682-7.183 5.548-4.918-2.28 2.418-4.827.557-4.827.557s3.455-1.607 2.696-6.656" id="Fill-52" fill="#5E1D3E"/><path d="M207.574 29.234a2 2 0 1 1-3.148-2.468 2 2 0 0 1 3.148 2.468" id="Fill-54" fill="#FFA185"/><path d="M194.973 9s.342-4.191-1.392-3.993c-1.735.198-.657 1.736-.657 1.736s-1.078-1.538-1.84-.62C190.322 7.04 194.973 9 194.973 9" id="Fill-56" fill="#FFA185"/><path d="M209 21.366l-2.631-1.364c-7.92 2.675-9.334-9.851-8.68-10.757.973-1.348 1.747-6.134.221-5.1-1.524 1.035.786 6.666-5.805 6.64 0 0-4.254-1.162-3.344-.43l.91.732s-2.534-.53-1.623.202c.91.732 3.345.43 5.164 1.894 1.82 1.465 6.45 6.493 4.675 8.561l-5.094-5.127s-2.828-3.03-2.631-1.364l.196 1.667s-2.925-3.864-2.73-2.197c.118.993.487 1.647.767 2.02-.541-.574-1.525-1.47-1.38-.253.196 1.666 2.827 3.03 2.827 3.03s-3.443-1.263-2.435.302c.476.74 1.109 1.266 1.647 1.62-.347-.067-.623.077-.54.78.156 1.331 2.841 1.809 3.913 1.946-.875-.087-2.697-.213-1.996.351.91.733 3.64 2.93 5.977 1.793a37.275 37.275 0 0 0 3.125-1.704c.01.356.064.827.12 1.3.099.834 1.009 1.567 1.009 1.567s-3.763 3.004-2.952 2.903c.812-.1 2.337-1.136 2.337-1.136s-1.23 3.535-.517 2.6c.644-.843 4.777-6.257 3.598-8.61L209 21.367z" id="Fill-58" fill="#BE5C57"/><path d="M210 33s53.241 90.075 58.673 86.919C274.106 116.763 210 33 210 33" id="Fill-60" fill="#BE5C57"/><g id="Group-64" transform="translate(199)"><mask id="mask-4" fill="#fff"><use xlink:href="#path-3"/></mask><path d="M2.625 10.391s.75-7.778 1.675-7.038c.925.739 2.049 3.162 2.049 3.162s-.2-1.683.725-.943c.925.739 1.124 2.423 1.124 2.423s1.55-1.046 1.65-.204c.1.841.4 3.366.4 3.366s1.449-1.887 1.548-1.045c.1.841-.325 4.31-.325 4.31s-.426 3.468-2.075 3.671c-1.65.204.1.842.1.842s6.398-2.498 3.125-8.925C9.348 3.583 4 .828 4 .828S1.7 9.651.974 10.595c-.725.943-.126 5.992 2.548 7.37 2.674 1.377 4.423 2.015 2.475-.306-1.95-2.32-3.8-3.8-3.373-7.268" id="Fill-62" fill="#481930" mask="url(#mask-4)"/></g><path d="M277.343 123.255c-3.635.756 1.002 7.685 3.383 6.638 2.381-1.048 4.788-8.336-3.383-6.638" id="Fill-65" fill="#481930"/><path d="M251.99 146.194c-25.864-4.826-59.544 6.173-73.189 11.729-13.646 5.556-58.304 35.186-54.581 66.051 3.72 30.865 3.72 31.483 8.683 37.038 4.961 5.556 24.56 20.495 32.252 24.692 20.19 11.015 59.188-2.078 72.569-6.79 15.885-5.595 60.164-7.408 78.771-13.58 18.608-6.174 28.532-11.112 33.494-23.458 4.962-12.347 0-14.816-6.823-19.754-6.823-4.939-13.025-23.458-22.329-34.569-9.304-11.11-19.227-32.1-68.847-41.359" id="Fill-67" fill="#DD7657"/><path d="M343.166 221.919c-5.571-4.045-10.73-17.171-17.5-27.919-14.278 10.9-26.613 24.704-41.876 31.686-18.223 9.095-43.071 5.789-61.294 15.71-3.314 10.749-27.334 16.537-30.647 13.23-3.314-3.309 4.97-5.788 10.768-13.23 4.548-5.837 10.768-28.94 4.97-36.38-3.314 16.536-10.768 38.86-26.506 47.956-8.284 4.133-13.253-3.307-19.88-6.615-9.111-4.96-9.94.827-17.393 16.536-6.24 3.397-12.634-4.992-15.808-11.444 1.108 5.045 2.348 6.61 4.9 9.476 4.961 5.572 24.56 20.556 32.253 24.766 20.19 11.049 59.189-2.084 72.57-6.81 15.884-5.612 60.164-7.43 78.771-13.623 18.608-6.19 28.533-11.144 33.495-23.526 4.962-12.384 0-14.86-6.823-19.813" id="Fill-69" fill="#BE5C57"/><path d="M205.22 203.043c-3.892.557-16.166 18.051-29.844 26.143-13.678 8.092-27.979 14.939-27.356 28.01.622 13.072 5.665 24.313 13.056 31.123 2.668 2.458 26.114 6.225 32.331 7.47 6.217 1.245 28.6-3.113 36.062-10.582 7.46-7.47 9.948-24.898-9.326-28.633-19.275-3.734-33.575 8.092-32.953-.623.621-8.714 11.813-11.826 15.543-19.918 3.73-8.092 11.192-34.235 2.487-32.99" id="Fill-71" fill="#E48467"/><path d="M140.313 209.722c4.172-4.047-4.16 9.624.96 23.285 3.666 9.781 1.28 23.594-5.12 22.973-6.4-.62-8.064-20.863-6.72-25.147 2.24-7.14 1.919-12.417 10.88-21.11" id="Fill-73" fill="#8E4849"/><path d="M255.246 151.33c-1.864-2.492-17.079-4.541-32.913-2.492-19.25 2.491-69.606 15.369-82.647 47.132-4.735 11.533 16.586-4.99 16.586-4.99-3.105 2.491-16.53 20.763-5.973 31.351 4.156 4.168 13.412 5.342 24.057 4.324 22.55-13.219 19.883-20.746 33.33-26.526 5.806-2.496 4.975 5.821 4.975 14.97 3.575-1.987 9.177-5.14 11.611-7.485 15.524-14.947 14.828-22.653 31.595-27.012 16.766-4.36 38.5 2.491 39.121-8.097.621-10.588-22.976-21.176-39.742-21.176" id="Fill-75" fill="#E48467"/><path d="M202.161 212.138c3.889-1.942-6.763 17.193-11.067 23.333-4.304 6.14-17.83 29.474-35.045 22.106-10.796-4.621 9.837-18.422 19.06-23.948 9.222-5.526 22.134-19.035 27.052-21.491" id="Fill-77" fill="#E99177"/><path d="M222.103 260.21c-7.516-.571-57.624-.612-53.906 8.555 3.717 9.165 13.012 14.053 32.84 11.609 19.827-2.444 29.122-19.553 21.066-20.165" id="Fill-79" fill="#E99177"/><path d="M238 152.5c0 .828-2.015 1.5-4.5 1.5s-4.5-.672-4.5-1.5 2.015-1.5 4.5-1.5 4.5.672 4.5 1.5" id="Fill-81" fill="#FFA185"/><path d="M196.966 162.64c.302.809-1.45 2.074-3.918 2.826-2.466.752-4.71.704-5.014-.105-.302-.81 1.45-2.076 3.918-2.827 2.466-.751 4.712-.704 5.014.106" id="Fill-83" fill="#FFA185"/><path d="M161.921 178.223c.343.507-.464 1.713-1.8 2.695-1.338.98-2.7 1.365-3.042.859-.343-.507.464-1.712 1.8-2.694 1.338-.982 2.7-1.366 3.042-.86" id="Fill-85" fill="#FFA185"/><path d="M150.921 185.223c.343.507-.464 1.713-1.8 2.694-1.337.982-2.7 1.366-3.042.86-.342-.506.464-1.713 1.801-2.694 1.337-.982 2.698-1.366 3.041-.86" id="Fill-87" fill="#FFA185"/><path d="M224 153c0 .552-.895 1-2 1-1.104 0-2-.448-2-1 0-.553.896-1 2-1 1.105 0 2 .447 2 1" id="Fill-89" fill="#FFA185"/><path d="M154.89 180.46c.36.597-.192 1.546-1.235 2.121-1.044.574-2.182.556-2.544-.041-.362-.596.191-1.546 1.234-2.12 1.044-.575 2.182-.557 2.544.04" id="Fill-91" fill="#FFA185"/><path d="M250.996 153.771c-.074.815-1.026 1.354-2.128 1.204-1.102-.149-1.936-.931-1.864-1.746.073-.815 1.026-1.354 2.129-1.204 1.101.15 1.936.931 1.863 1.746" id="Fill-93" fill="#FFA185"/><path d="M185.97 161.848c.19.746-.54 1.643-1.628 2.002-1.088.36-2.123.048-2.312-.699-.19-.746.54-1.642 1.628-2.002 1.088-.36 2.123-.046 2.312.7" id="Fill-95" fill="#FFA185"/><path d="M217.952 155.16c.295 1.002-.788 2.19-2.418 2.654-1.63.465-3.19.028-3.486-.974-.295-1.002.788-2.19 2.418-2.654 1.63-.464 3.19-.029 3.486.974" id="Fill-97" fill="#FFA185"/><path d="M210.952 154.16c.295 1.002-.788 2.19-2.418 2.654-1.63.465-3.19.028-3.486-.973-.295-1.003.788-2.192 2.418-2.655 1.63-.464 3.19-.029 3.486.974" id="Fill-99" fill="#FFA185"/><g id="Group-103" transform="translate(320 114)"><mask id="mask-6" fill="#fff"><use xlink:href="#path-5"/></mask><path d="M27.858.665C12.982-.961-2.88 12.225.885 28.615c4.704 20.472 22.694 22.693 35.71 19.926C51.384 45.398 62.69 4.472 27.859.665" id="Fill-101" fill="#481930" mask="url(#mask-6)"/></g><path d="M345.995 116.142c-12.074-1.456-24.746 8.492-21.471 21.175 4.092 15.843 18.84 18.35 29.206 15.845 17.315-4.183 20.538-33.611-7.735-37.02" id="Fill-104" fill="#5E1D3E"/><path d="M355.084 109.057c-.406-.758-.289-7.057-.289-7.057s8.94 2.756 8.344 2.572c-.597-.184-4.48 5.588-4.48 5.588l6.341.688s-1.095 7.265-2.096 6.323c-1-.943-5.578-2.987-5.578-2.987l.048 3.816-7.342-1.63 3.312-4.048s-5.53.83-5.34.255c.192-.575 2.287-6.898 2.287-6.898l4.793 3.378z" id="Fill-106" fill="#481930"/><path d="M369.23 150c1.55-2.14 1.422-4.04 1.77-5.59-4.716 1.118-15.257-1.401-18.96-3.477.441-6.9 4.516-16.34 7.196-22.98-2.977-1.433-6.53-2.464-10.738-2.953-1.175 7.95-2.854 18.589-5.954 22.87-5.54-1.788-12.623-5.806-19.564-9.833-.572 1.325-1.68 4.657-1.98 6.094 14.56 8.455 30.42 15.244 48.23 15.869" id="Fill-108" fill="#7F4156"/><path d="M353.273 119.982a1.5 1.5 0 1 1 .454-2.965 1.5 1.5 0 0 1-.454 2.965" id="Fill-110" fill="#CD718E"/><path d="M351.273 127.982a1.5 1.5 0 1 1 .453-2.964 1.5 1.5 0 0 1-.453 2.964" id="Fill-112" fill="#CD718E"/><path d="M348.273 134.982a1.5 1.5 0 1 1 .454-2.964 1.5 1.5 0 0 1-.454 2.964" id="Fill-114" fill="#CD718E"/><path d="M345.273 143.982a1.5 1.5 0 1 1 .454-2.965 1.5 1.5 0 0 1-.454 2.965" id="Fill-116" fill="#CD718E"/><path d="M326.045 134.137a1.5 1.5 0 1 1 2.91.726 1.5 1.5 0 0 1-2.91-.726" id="Fill-118" fill="#CD718E"/><path d="M335.273 139.983a1.5 1.5 0 1 1 .453-2.964 1.5 1.5 0 0 1-.453 2.964" id="Fill-120" fill="#CD718E"/><path d="M355.273 145.983a1.5 1.5 0 1 1 .454-2.965 1.5 1.5 0 0 1-.454 2.965" id="Fill-122" fill="#CD718E"/><path d="M355.793 109.371s-.866-5.34 1.79-5.37c2.655-.033-.99 5.615-.99 5.615s6.11.183 6.399 1.962c.288 1.78-6.91-.427-6.91-.427l-.736 4.849-2.399-.737 2.334-4.358s-4.51.309-5.055-.704c-.544-1.013-.033-2.547.767-2.301.8.245 4.8 1.471 4.8 1.471" id="Fill-124" fill="#FFA185"/><path d="M339.523 172.723s4.94-7.815 6.565-7.71c2.624.17 4.063 2.361 9.693.888 10.458-2.734 14.344-13.41 11.112-12.51-3.232.9-2.191 6.119-8.014 8.603 2.982-2.53 7.448-8.267 6.35-15.686-.917-6.196-3.91 14.766-10.122 13.778 4.604-3.06 6.086-17.784 2.94-14.651-2.494 2.483-.328 7.612-3.326 11.591-4.99 6.624-10.556 3.95-12.476 1.656-4.159-4.968-4.159-9.108-6.654-8.28-4.22 1.4.832 5.796 4.99 9.108-.8 2.848-4.992 4.825-4.992 4.825s-5.274 10.485 3.934 8.388" id="Fill-126" fill="#FFA185"/><path d="M335.934 162.025c-8.629.43-58.925 23.448-69.47 27.767-10.545 4.319-51.483 27.767-43.42 53.065 8.064 25.3 12.406 35.173 34.116 37.641 21.709 2.468 47.14-4.937 52.722-5.554 5.583-.617 31.634-8.638 26.052-33.937-5.583-25.299-19.229-23.448-19.229-23.448s26.672-38.874 27.292-41.959c.621-3.085 4.342-14.193-8.063-13.575" id="Fill-128" fill="#E48467"/><path d="M318.86 171.215s-64.219 28.948-73.482 34.77c-9.88 6.209-26.553 22.972-8.028 37.873 17.252 13.877 71.629 10.555 80.274-.62 8.645-11.177 2.47-26.699-19.143-27.94 4.323-1.863 43.225-47.808 20.378-44.083" id="Fill-130" fill="#E99177"/><path d="M278.95 196.584c.345.888-1.145 2.464-3.327 3.523-2.182 1.057-4.23 1.196-4.574.309-.344-.888 1.146-2.464 3.328-3.523 2.182-1.057 4.23-1.196 4.574-.309" id="Fill-132" fill="#FFA185"/><path d="M241.608 217.518c.657.742.469 2.007-.42 2.825-.887.819-2.14.88-2.796.139-.657-.742-.47-2.006.42-2.825.887-.818 2.14-.88 2.796-.14" id="Fill-134" fill="#FFA185"/><path d="M244.824 222.254c.603.721-.396 2.76-2.231 4.553-1.837 1.793-3.813 2.66-4.417 1.94-.603-.723.396-2.76 2.232-4.554 1.836-1.793 3.813-2.66 4.416-1.94" id="Fill-136" fill="#FFA185"/><path d="M266.935 202.621c.278.672-.363 1.61-1.431 2.095-1.07.485-2.161.334-2.44-.337-.277-.672.364-1.61 1.433-2.094 1.068-.486 2.16-.335 2.438.336" id="Fill-138" fill="#FFA185"/><path d="M291.966 191.814c.201.737-.516 1.64-1.601 2.02-1.087.378-2.13.089-2.331-.648-.202-.736.516-1.64 1.602-2.02 1.085-.378 2.13-.089 2.33.648" id="Fill-140" fill="#FFA185"/><path d="M263.665 206.506c.76.832.183 2.4-1.288 3.501-1.471 1.102-3.281 1.32-4.042.487-.76-.832-.183-2.4 1.288-3.501 1.472-1.102 3.281-1.32 4.042-.487" id="Fill-142" fill="#FFA185"/><path d="M255.665 209.506c.76.832.183 2.4-1.288 3.501-1.471 1.102-3.281 1.32-4.042.487-.76-.833-.183-2.4 1.288-3.501 1.472-1.102 3.281-1.32 4.042-.487" id="Fill-144" fill="#FFA185"/><path d="M286.95 243.585c.345.887-1.145 2.463-3.327 3.522-2.182 1.057-4.23 1.196-4.574.309-.344-.888 1.146-2.464 3.328-3.522 2.182-1.059 4.23-1.196 4.574-.31" id="Fill-146" fill="#E48467"/><path d="M292.935 238.622c.278.67-.363 1.608-1.431 2.094-1.07.485-2.161.334-2.44-.337-.277-.672.364-1.61 1.432-2.095 1.07-.485 2.161-.334 2.44.338" id="Fill-148" fill="#E48467"/><path d="M276.935 244.622c.278.67-.363 1.608-1.431 2.094-1.07.485-2.161.334-2.44-.337-.277-.672.364-1.61 1.432-2.095 1.07-.485 2.161-.334 2.44.338" id="Fill-150" fill="#E48467"/><path d="M307.966 239.814c.201.737-.516 1.64-1.601 2.02-1.087.378-2.13.089-2.331-.648-.202-.737.516-1.64 1.602-2.02 1.085-.378 2.13-.089 2.33.648" id="Fill-152" fill="#E48467"/><path d="M294.665 243.506c.76.832.183 2.4-1.288 3.502-1.471 1.101-3.281 1.318-4.042.487-.76-.834-.183-2.4 1.288-3.502 1.472-1.102 3.281-1.32 4.042-.487" id="Fill-154" fill="#E48467"/><path d="M263.986 246.556c.171 1.077-1.251 2.149-3.175 2.394-1.926.245-3.625-.43-3.797-1.506-.171-1.077 1.251-2.148 3.176-2.393 1.925-.246 3.625.428 3.796 1.505" id="Fill-156" fill="#E48467"/><path d="M288.824 123c-3.302 0-10.99 10-8.242 10 2.747 0 12.82-10 8.242-10" id="Fill-158" fill="#DD7657"/><path d="M292.94 128.036c-2.9-.577-10.842 5.888-9.856 6.868.986.982 14.784-5.886 9.856-6.868" id="Fill-160" fill="#DD7657"/><path d="M294.41 135.211c-3.701-1.151-11.706 2.733-8.78 3.644 2.927.91 11.708-2.732 8.78-3.644" id="Fill-162" fill="#DD7657"/><path d="M293.484 138.284c-2.306-1.545-8.312 3.716-7.388 3.716.924 0 10.158-1.858 7.388-3.716" id="Fill-164" fill="#DD7657"/></g></g></svg>