<svg width="343" height="290" viewBox="0 0 343 290" xmlns="http://www.w3.org/2000/svg" xmlns:xlink="http://www.w3.org/1999/xlink"><defs><path id="path-1" d="M0 .763h15.828v51.986H0z"/></defs><g id="d_quest2-copy-2" fill="none" fill-rule="evenodd" transform="translate(-340 -243)"><g id="question_4" transform="translate(340 243)"><path d="M37.251 35.98c-1.644-1.326-1.254 17.291-1.583 28.397-.335 11.354-.616 23.226.902 23.064.75-.081 1.996-50.4.681-51.46" id="Fill-1" fill="#FFF"/><path d="M30.49 67.43c-.102 2.229 1.43 16.024-1.306 17.594-2.736 1.57-7.762 1.457-7.96.48-.197-.979-.246-16.249.362-18.395.661-2.328 9.094-3.788 8.905.32m.189-4.108c-2.35-1.563-8.51 1.635-8.905-.322-.394-1.956 2.11-31.816-.232-28.29-1.234 1.858-3.252 51.387-2.077 52.167 1.175.78 9.529 2.259 12.067-.29 2.54-2.548 1.497-21.704-.853-23.265" id="Fill-3" fill="#FFF"/><path d="M82.78 57.16c-.468-2.18.57-17.416.829-18.379.26-.963 5.284-.75 7.912.994 2.628 1.743.207 15.412.166 17.642-.077 4.114-8.398 2.11-8.906-.257M93.967 38.37c-2.37-2.707-10.8-1.774-12.023-1.072-1.223.705-2.414 50.259-1.303 52.192 2.108 3.671 1.542-26.288 2.062-28.215.52-1.926 6.46 1.663 8.907.257 2.446-1.407 4.725-20.455 2.357-23.162" id="Fill-5" fill="#FFF"/><path d="M69.444 85.52c-3.786-.057-4.674-9.48-5.543-17.908-.443-4.31 2.017-28.856 4.906-28.16 6.85 1.653 8.678 46.19.637 46.068m-1.347-49.14c-3.914 2.599-10.958 47.303.931 52.104 11.89 4.801 6.548-57.067-.93-52.103" id="Fill-7" fill="#FFF"/><path d="M56.365 66.46c.128 2.385 3.251 15.847.505 17.808-2.748 1.963-9.005 2.749-9.319 1.729-.313-1.02-1.338-19.779-.917-22.13.456-2.55 9.496-1.803 9.731 2.593m-.235-4.396c-2.668-1.414-9.104-.552-9.731-2.593-.464-1.51-.625-15.954-1.535-21.749-.037-.235 11.362 1.006 12.798-.901 1.436-1.908-13.808-1.584-14.084-1.064-1.117 2.111 1.204 51.44 2.538 52.148 1.334.707 10.988.76 13.421-2.222 2.434-2.984-.738-22.206-3.407-23.62" id="Fill-9" fill="#FFF"/><g id="Group-13" transform="translate(0 34.224)"><mask id="mask-2" fill="#fff"><use xlink:href="#path-1"/></mask><path d="M11.874 50.003c-2.652 1.807-8.608.392-8.885-.585-.277-.976-.853-18.822-.404-21.047.487-2.413 9.15-1.497 10.296 2.815.584 2.194 1.645 17.01-1.007 18.817m-9.42-25.815C2.047 22.743.719 6.258 2.503 2.55c.07-.144 6.292-.83 7.612 2.592.609 1.577.274 18.397-1.107 20.15-.078.099-.134.184-.196.273-2.98-.468-5.98-.046-6.356-1.377m10.257 2.888c-.548-.432-1.166-.741-1.813-.982.583-3.088 2.55-17.87.596-22.704C10.147.055.953.191.55 2.146-.662 8.009.332 50.5 1.585 51.2c1.252.7 10.42 2.985 12.795.202s1.835-21.565-1.668-24.327" id="Fill-11" fill="#FFF" mask="url(#mask-2)"/></g><path d="M143.588 37.25c-3.323-1.222-1.387 16.47-1.75 28.751-.372 12.556-2.456 23.027 1.068 22.416.822-.142 2.435-50.523.682-51.168" id="Fill-14" fill="#481930"/><path d="M129.434 84.217c-3.341 2.157-5.952-9.077-6.558-17.952-.31-4.54-1.238-28.137 5.695-26.847 5.513 1.026 5.853 41.577.863 44.799m-1.497-48.048c-8.506.177-12.338 46.25-.035 51.719 12.303 5.47 9.457-51.915.035-51.72" id="Fill-16" fill="#481930"/><path d="M114.329 39.972c-8.475-7.578-17.042 6.313-12.512 6.06 1.068-.06 3.514-8.312 10.532-4.18 6.646 3.913 1.788 14.393.784 15.516-4.03 4.513-8.283 4.565-11.007 13.288-.858 2.75-.41 11.81 4.101 15.842 3.971-5.58 7.85.12 10.676-.599-.169-.589-1.006-2.339-1.264-2.956-1.05.749-4.76-5.119-8.682.14-2.84-1.513-3.282-12.134-1.748-14.742 3.912-6.649 6.167-4.632 10.138-10.211 5.335-7.497 2.364-15.134-1.018-18.158" id="Fill-18" fill="#481930"/><path d="M162.32 84.07c-2.528 1.723-7.544.763-8.308.168-4.713-3.674-2.185-14.734-1.691-16.84 1.124-4.811 7.444-4.95 9.999-.833 1.842 2.967 2.528 15.784 0 17.506m-8.816-23.88c-2.484-2.842-2.238-15.814.483-18.636 2.104-2.182 5.558-1.942 6.817 1.319.58 1.503 2.725 15.85-1.164 17.663-3.888 1.814-5.27.648-6.136-.345m9.776 2.752c-.523-.411-1.111-.707-1.729-.935 4.935-2.947 2.43-17.03.568-21.638-1.284-3.18-7.595-4.01-9.798-.484-4.168 6.67-3.363 21.275.479 22.368-5.998 5.624-5.593 19.458-.125 23.682 2.978 2.302 9.93 2.845 12.194.193 2.264-2.653 1.749-20.552-1.59-23.186" id="Fill-20" fill="#481930"/><path d="M75.323 253.075s83.724-147.702 90.926-148.603c7.202-.9 36.911-54.037 38.712-56.74 1.8-2.7 13.504-4.502 32.409-5.403 18.906-.9 25.207 5.404 25.207 5.404s64.82 199.037 61.218 205.342c-3.6 6.304-248.472 0-248.472 0" id="Fill-22" fill="#7F4156"/><path d="M208.24 176.216c3.022-5.098 9.324-24.911 11.124-22.21 1.801 2.702-1.8 12.61 3.601 7.205 5.402-5.403 9.003-47.733 11.704-45.03 2.7 2.701 8.102-2.703 7.202-9.908-.9-7.204-2.7-48.633 1.8-48.633 2.014 0 2.701 29.72 4.502 28.82 1.8-.9-3.601-22.516.9-22.516s8.102 27.019 11.704 29.72c3.6 2.703-.9-11.707 3.6-10.807 4.502.9 45.914 124.286 42.313 124.286-3.601 0 7.202 44.13 7.202 44.13l-39.612-8.105-7.202-52.236-23.406-4.503-35.431-10.213z" id="Fill-24" fill="#481930"/><path d="M205.86 51.335c3.602 3.603 9.904 4.504 9.003 6.305-.9 1.801-9.002 30.62-13.503 30.62-4.502 0-12.604 18.013-10.804 24.318 1.8 6.304 18.006-18.913 10.804.9-4.275 11.759-8.103 46.833-16.205 45.031-8.103-1.8-11.704 12.609-8.103 12.609 3.602 0 13.504-1.801 13.504 1.801 0 3.603 0 9.907-9.002 9.907-9.003 0-11.704 13.51-14.404 17.112-2.701 3.602-23.407 1.801-23.407 7.205s-9.003 33.323-9.003 33.323l-41.412 4.503s28.808-35.124 25.207-34.224c-3.6.901-17.105 18.013-16.204 10.808.9-7.205 11.703-29.72 18.005-31.522 6.302-1.801 15.304-16.211 12.604-16.211-2.701 0-5.402.9-.9-9.006 4.5-9.907 9.902-10.808 12.603-9.907 2.7.9 12.604-15.31 7.202-16.211-5.401-.901 13.504-30.621 15.305-27.92 1.8 2.702-12.604 23.417-6.302 20.715 6.302-2.702 34.21-46.833 30.609-45.932-3.601.9-9.903 13.51-8.103 6.304 1.8-7.205 22.507-40.528 22.507-40.528" id="Fill-26" fill="#9E5C6C"/><path d="M19.646 270.563s44.15-158.946 45.406-162.13c1.257-3.18 2.78-3.313 2.78-3.313l.401 4.572-46.235 161.433-2.352-.562z" id="Fill-28" fill="#B14B6C"/><path d="M69.989 104.105c-3.187-2.675-8.584-2.05-7.252 2.503 1.333 4.555-.88 11.289-1.725 12.297-.845 1.008-4.227 5.041 1.495 6.408 5.723 1.366 4.39-3.187 4.228-5.042-.162-1.853 1.205-7.58 2.896-9.595 1.69-2.016 4.39-3.187.358-6.57" id="Fill-30" fill="#B14B6C"/><path d="M225.667 59.441s-4.502 31.522-8.103 33.323c-3.6 1.801-17.138 44.764-12.603 50.435 3.6 4.503 3.6-20.715 7.202-16.211 3.6 4.503-10.803 33.323-5.402 34.223 5.402.9 17.105-56.739 18.906-56.739 1.8 0 6.301 0 6.301-13.51 0-13.509 4.502-24.316 2.701-24.316-1.8 0-6.302-1.801-9.002-7.205" id="Fill-32" fill="#9E5C6C"/><path d="M2.402 290L.6 280.093s66.62-47.733 169.25-51.335c102.63-3.603 172.85 28.82 172.85 28.82L332.798 290H2.402z" id="Fill-34" fill="#BE5E7C"/><path d="M223.866 45.873c-9.03.472-17.105 1.506-13.504 4.518 3.601 3.011 14.404 6.024 16.205 5.27 1.8-.753 4.501 8.283 9.903 8.283.9 0 .9-8.282.9-8.282s8.102-3.013 9.003-.754c.9 2.26 2.7 3.012 3.6 0 .901-3.012 10.804-1.506 10.804-3.764 0-2.26-8.102-6.777-36.91-5.271" id="Fill-36" fill="#E48467"/><path d="M230.168 0s9.003 8.106 2.7 15.31c-4.779 5.465-5.4 13.51 2.702 23.417-2.701-9.007-6.666-12.153.9-21.615 7.202-9.006-1.8-14.41-6.302-17.112" id="Fill-38" fill="#FFAAC0"/><path d="M220.793 27.662s4.875 4.39 1.463 8.292c-2.588 2.958-2.926 7.314 1.462 12.68-1.462-4.878-3.61-6.581.488-11.705 3.9-4.878-.975-7.804-3.413-9.267" id="Fill-40" fill="#FF92B3"/><path d="M244.2 20.714s4.875 6.41 1.463 12.106c-2.588 4.32-2.926 10.683 1.462 18.515-1.462-7.12-3.61-9.61.488-17.09 3.9-7.122-.975-11.394-3.413-13.53" id="Fill-42" fill="#FF92B3"/><path d="M40.308 260.86c-2.536-.442-12.255-39.752-16.346-53.406-3.805-12.7-35.064-68.759-11.658-73.262C31.56 130.488 31.4 186.093 38.564 205c5.25 13.85 22.292 44.774 19.269 49.676-2.574 4.174-11.247 7.277-17.525 6.184" id="Fill-44" fill="#EBE0E0"/><path d="M59.176 250.842c-3.567-.23-21.695 7.516-21.752 10.062-.06 2.701 6.386 3.393 13.48 1.202 10.881-3.36 14.483-10.864 8.272-11.264" id="Fill-46" fill="#B14B6C"/><path d="M87.93 244.24c-3.49-.772-22.589 4.111-23.034 6.62-.472 2.66 5.794 4.329 13.138 3.248 11.267-1.657 15.973-8.523 9.896-9.867" id="Fill-48" fill="#B14B6C"/><path d="M103.614 248.32c-1.625-.378-10.716 2.91-10.98 4.397-.279 1.576 2.633 2.422 6.111 1.626 5.336-1.22 7.698-5.362 4.869-6.022" id="Fill-50" fill="#B14B6C"/><path d="M43.74 216.891a10.13 10.13 0 0 1-5.328 6.463c-3.601 1.801-8.102.9-10.815-2.916 4.614 16.95 10.768 40.083 12.711 40.422 6.278 1.093 14.95-2.01 17.525-6.184 2.32-3.763-7.176-22.849-14.093-37.785" id="Fill-52" fill="#CEBAC8"/><path d="M14.105 168.416c5.998 0 12.608-.64 16.215-5.53a177.67 177.67 0 0 0-1.173-5.51c-3.688 5.042-10.265 5.636-16.843 5.636-1.597 0-3.192 2.834-4.161 5.36.425 1.263.87 2.53 1.33 3.797 1.212-2.05 3.204-3.753 4.632-3.753" id="Fill-54" fill="#6983BC"/><path d="M14.105 168.416c-1.428 0-3.42 1.702-4.633 3.753a197.39 197.39 0 0 0 1.512 4.047c1.204-2.746 4.378-4.92 5.822-4.197 6.123 2.45 10.996.73 14.62-3.168-.351-2.01-.72-4.005-1.106-5.966-3.607 4.89-10.217 5.531-16.215 5.531" id="Fill-56" fill="#8E334E"/><path d="M12.304 163.012c6.578 0 13.155-.594 16.843-5.636a114.854 114.854 0 0 0-1.266-5.018c-2.986 4.623-7.019 7.428-14.676 6.151-2.702-.675-4.897 2.704-6.205 6.336.36 1.167.745 2.346 1.143 3.527.97-2.526 2.564-5.36 4.161-5.36" id="Fill-58" fill="#FFF"/><path d="M66.725 252.391c-2.487-.668-7.745-40.45-10.593-54.416-2.648-12.993-31.224-71.888-5.116-71.888 11.703 0 16.46 50.828 19.88 70.756 2.205 12.85 18.249 45.944 14.797 50.553-2.938 3.926-12.815 6.649-18.968 4.995" id="Fill-60" fill="#EBE0E0"/><path d="M76.96 215.933c-.243.373-.489.745-.737 1.117-4.351 6.53-13.374 3.705-17.19-2.348 2.719 16.737 5.914 37.211 7.692 37.689 6.153 1.653 16.03-1.07 18.968-4.994 2.231-2.979-3.677-17.847-8.733-31.464" id="Fill-62" fill="#CEBAC8"/><path d="M65.109 159.504a269.43 269.43 0 0 0-1.318-6.83c-7.168-3.091-16.112 1.008-22.768-3.553.494 2.804 1.169 5.737 1.952 8.714 7.772 1.822 15.004.033 22.134 1.67" id="Fill-64" fill="#FFF"/><path d="M65.109 159.504c-7.13-1.636-14.362.153-22.134-1.669a164.23 164.23 0 0 0 1.19 4.275c7.184 2.496 15.237.56 22.06 3.847a406.604 406.604 0 0 0-1.116-6.453" id="Fill-66" fill="#6983BC"/><path d="M44.166 162.11c.588 2.016 1.209 4.037 1.857 6.041 6.754 2.386 15.024.223 21.227 4.267a518.901 518.901 0 0 0-1.025-6.461c-6.823-3.288-14.876-1.351-22.06-3.847" id="Fill-68" fill="#8E334E"/><path d="M100.688 251.341S84.11 107.633 83.399 104.754c-.71-2.877-2.135-3.177-2.135-3.177l-1.074 3.866 18.18 146.093 2.318-.195z" id="Fill-70" fill="#CEBAC8"/><path d="M81.666 117.45l.522.13s-.268 13.065.922 17.97c.76 3.134-2.689 5.823-4.968 3.378-2.28-2.447 3.524-21.479 3.524-21.479m-4.902 22.526c4.559 4.892 9.05-1.654 8.03-4.012-2.041-4.717-1.75-19.56-1.75-19.56l-2.518-.177s-7.791 19.424-3.762 23.749" id="Fill-72" fill="#7F4156"/><path d="M79.256 98.147c4.18-1.894 8.573 1.59 6.617 5.327-1.955 3.737-.877 9.774-.227 10.74.65.967 3.248 4.833-2.39 5.305-5.64.473-3.684-3.265-3.249-4.833.436-1.568.007-6.637-1.293-8.57-1.299-1.934-4.006-5.907.542-7.969" id="Fill-74" fill="#9E5C6C"/><path d="M290.143 217.011l10.525 23.431.004-.001c5.8 12.659 18.129 19.448 27.642 15.171 9.514-4.277 12.624-18.007 7.013-30.751l.004-.002-10.525-23.431-34.663 15.583z" id="Fill-76" fill="#B14B6C"/><path d="M335.327 224.86l.005-.001-10.526-23.432-4.747 2.136c7.153 8.432 16.577 34.558 5.536 40.505-11.703 6.305-22.381.597-22.72.42 6.346 9.999 16.998 14.919 25.44 11.125 9.512-4.278 12.624-18.008 7.012-30.752" id="Fill-78" fill="#9D4363"/><path d="M303.623 210.951l6.042 13.452v-.001c3.296 7.283 7.514 12.465 9.452 11.595 1.938-.871.865-7.468-2.391-14.769l-6.042-13.45-7.06 3.173z" id="Fill-80" fill="#BE5E7C"/><path d="M305.484 211.658s-49.251-102.446-48.544-104.307c.707-1.862 4.558-3.594 5.135-2.31.577 1.285 47.902 104.597 47.902 104.597s-2.632 2.727-4.493 2.02" id="Fill-82" fill="#C68981"/><path d="M197.758 237.764c-7.202.9-22.159 2.273-14.404 10.807 9.003 9.907 103.53 17.112 108.032 0 4.501-17.111-93.628-10.807-93.628-10.807" id="Fill-84" fill="#B14B6C"/><path d="M130.4 263.947c-4.576.846-14.094 2.242-8.88 8.244 6.052 6.968 66.686 9.703 69.047-2.865 2.36-12.568-60.167-5.379-60.167-5.379" id="Fill-86" fill="#B14B6C"/><path d="M294.087 186.429s-37.854-77.217-37.147-79.079c.707-1.861 3.658-.891 4.235.394.577 1.284 32.011 72.38 32.011 72.38s2.701 6.305.9 6.305" id="Fill-88" fill="#DCA591"/><path d="M196.108 217.045s-10.727 19.736-2.255 25.13c8.471 5.395 19.639 6.552 40.552 7.502 20.913.952 37.59-.793 42.953-10.66 2.743-5.047 2.876-17.712-8.661-25.364-11.537-7.652-72.59 3.392-72.59 3.392" id="Fill-90" fill="#BE5C57"/><path d="M197.038 218.438s-16.935 1.259-15.484 4.015c1.451 2.757 10.803 3.603 10.803 3.603s-7.496 9.361-1.957 7.85c5.54-1.51 9.569-8.562 9.569-8.562s-4.03 7.051 1.54 6.934c5.568-.118 6.813-7.111 9.628-5.777 2.814 1.335-12.266 12.8-2.49 13.986 9.775 1.187 10.96-8.591 12.353-8.621 1.393-.029.147 6.964 2.932 6.905 2.784-.059-.148-6.964 2.637-7.023 2.784-.059 12.824 13.663 18.334 10.76 5.51-2.903-7.138-8.21-7.138-8.21s4.266 4.09 8.412 2.61c4.148-1.482-.146-6.965-.146-6.965s4.118-2.873 4.177-.087c.058 2.785-8.06 14.104 1.656 12.505 9.717-1.599 3.913-12.623 6.697-12.683 2.785-.058 1.598 9.72 9.893 6.758 8.295-2.962-4.324-6.875-2.961-8.297 1.363-1.423 12.655-2.98 16.89-.282 4.235 2.698 7.202-6.304.9-6.304-5.741 0 7.203-8.106-1.8-8.106-5.302 0 1.8-6.304-13.53-.688-11.84 4.338-70.915 5.68-70.915 5.68" id="Fill-92" fill="#7F4156"/><path d="M214.802 211.88s-13.36-6.095-29.744 9.58c13.952 1.098 30.659.745 48.964 10.112 33.061-17.42 45.71-12.114 45.71-12.114s-2.933-6.905-12.737-9.485c-9.806-2.58-52.193 1.908-52.193 1.908" id="Fill-94" fill="#FFA185"/><path d="M195.587 205.909c-2.564 1.447-6.392 4.316-1.09 9.777 2.65 2.732 54.64 8.6 71.343 1.279 16.702-7.32-2.916-15.266-2.916-15.266l-67.337 4.21z" id="Fill-96" fill="#CD718E"/><path d="M192.94 198.998c-2.754 1.452-6.872 4.326-1.185 9.779 2.843 2.727 58.68 8.514 76.632 1.167 17.952-7.346-3.108-15.262-3.108-15.262l-72.338 4.316z" id="Fill-98" fill="#BE5C57"/><path d="M188.764 199.087c-5.657-4.061 4.98-27.975 46.807-26.072 30.636 1.395 43.568 18.415 43.689 24.159.265 12.534-73.524 14.094-90.496 1.913" id="Fill-100" fill="#DD7657"/><path d="M238.27 173.95l-19.592 5.881-52.898 47.04s-1.632 29.67-9.796 39.199c-5.877 6.86-13.635 7.76-20.492 6.78-6.857-.98 22.45-48.92 22.45-48.92l62.696-48.018 17.632-4.794v2.833z" id="Fill-102" fill="#B14B6C"/><path id="Fill-104" fill="#CD718E" d="M216.719 173.95l13.715-12.74 7.836 9.8-19.592 6.861-55.837 47.04-13.715 41.159-38.204-41.16 45.22-5.88z"/><path d="M110.922 224.91s1.882 40.286 18.612 46.882c14.21 5.599 19.593-5.722 19.593-5.722l-38.205-41.16z" id="Fill-106" fill="#BE5E7C"/><path d="M115.528 229.873l-4.605-4.962s1.88 40.286 18.612 46.88c4.062 1.6 7.4 1.816 10.1 1.31-19.718 1.228-25.601-24.843-24.107-43.228" id="Fill-108" fill="#CD718E"/><path d="M144.07 225.89c-5.878.98-10.776 1.96-4.898 6.86s15.674-1.96 14.694-4.9c-.98-2.94-9.796-1.96-9.796-1.96" id="Fill-110" fill="#481930"/><path id="Fill-112" fill="#BE5E7C" d="M127.744 231.724l11.452 10.153 3.579-2.526-12.273-9.037z"/><path d="M24.008 199.938s2.7-1.801 1.8-6.304c-.9-4.504 2.701-1.802 2.701-1.802s1.8 4.503 4.501 4.503c2.701 0 7.405 15.844.9 18.013-5.4 1.801-9.902-6.305-9.902-14.41" id="Fill-114" fill="#C4A1AC"/><path d="M38.412 204.719a20.418 20.418 0 0 0-1.409-4.47c-2.736 4.464-8.49 6.78-13.895 4.228.2.8.45 1.578.745 2.328.758.412 1.498.826 2.004 1.238 4.208 1.372 9.687.126 12.555-3.324" id="Fill-116" fill="#9E5C6C"/><path d="M58.484 192.226s2.526-1.598 2.07-6.115c-.455-4.517 2.527-1.599 2.527-1.599s1.252 4.577 3.642 4.76c2.389.183 5.352 16.177-.568 17.881-4.915 1.416-8.285-6.908-7.67-14.927" id="Fill-118" fill="#C4A1AC"/><path d="M58.218 195.671c.045.665.126 1.318.225 1.961 3.259 3.512 8.365 2.425 11.987-.244a24.214 24.214 0 0 0-.495-3.182c-3.119 3.45-8.686 4.84-11.717 1.465" id="Fill-120" fill="#9E5C6C"/><path d="M299.488 251.273c0-4.503 12.604-5.403 17.105 1.802 8.103-1.802 17.105 8.105 17.105 8.105s-34.21 12.609-34.21-9.907" id="Fill-122" fill="#BE5E7C"/><path d="M247.63 181.797c0 .884-1.973 1.602-4.407 1.602-2.433 0-4.407-.718-4.407-1.602 0-.885 1.974-1.603 4.407-1.603 2.434 0 4.408.718 4.408 1.603" id="Fill-124" fill="#FFA185"/><path d="M255.756 198.912c0 .386-.861.698-1.923.698-1.063 0-1.924-.312-1.924-.698 0-.388.861-.7 1.924-.7 1.062 0 1.923.312 1.923.7" id="Fill-126" fill="#FFA185"/><path d="M234.009 182.197c0 .664-.897 1.203-2.004 1.203-1.106 0-2.004-.539-2.004-1.203 0-.663.898-1.202 2.004-1.202 1.107 0 2.004.539 2.004 1.202" id="Fill-128" fill="#FFA185"/><path d="M264.438 187.355c0 .63-.852 1.142-1.902 1.142-1.05 0-1.902-.513-1.902-1.142 0-.63.852-1.142 1.902-1.142 1.05 0 1.902.511 1.902 1.142" id="Fill-130" fill="#FFA185"/><path d="M259.617 183.288c-.07.627-.972 1.041-2.016.926-1.043-.116-1.834-.717-1.765-1.343.069-.627.971-1.041 2.015-.926 1.045.115 1.835.717 1.766 1.343" id="Fill-132" fill="#FFA185"/><path d="M229.84 185.277c.292 1.009-.78 2.207-2.395 2.674-1.614.468-3.159.028-3.451-.981-.292-1.01.78-2.206 2.394-2.674 1.615-.467 3.16-.028 3.452.981" id="Fill-134" fill="#FFA185"/><path d="M262.317 193.827c.293 1.01-.78 2.207-2.394 2.674-1.614.467-3.16.028-3.451-.98-.293-1.01.78-2.207 2.394-2.675 1.614-.467 3.16-.028 3.451.981" id="Fill-136" fill="#FFA185"/><path d="M240.087 188.79c.291 1.01-.78 2.207-2.394 2.675-1.615.467-3.16.028-3.453-.98-.291-1.01.78-2.207 2.395-2.675 1.614-.467 3.16-.028 3.452.98" id="Fill-138" fill="#FFA185"/><path id="Fill-140" fill="#CEBAC8" d="M132.04 236.863l-.9-.9 90.025-63.944 1.8-.901z"/><path id="Fill-142" fill="#EBE0E0" d="M133.84 238.665l-.9-.901 91.826-65.745h-.9z"/><path id="Fill-144" fill="#FFAAC0" d="M130.045 234.417l-.707-.255 93.82-63.299-.9-.03z"/></g></g></svg>