<svg width="356" height="299" viewBox="0 0 356 299" xmlns="http://www.w3.org/2000/svg" xmlns:xlink="http://www.w3.org/1999/xlink"><defs><path d="M73.047 13.446C44.46 21.381-23.015 73.623 8.353 149.362c31.367 75.74 174.48 150.442 268.581 91.302 94.102-59.138 72.537-139.028 52.933-162.89C314.223 58.732 262.368.719 160.39.714 134.562.71 105.535 4.43 73.047 13.445" id="path-1"/><path d="M73.047 13.446C44.46 21.381-23.015 73.623 8.353 149.362c31.367 75.74 174.48 150.442 268.581 91.302 94.102-59.138 72.537-139.028 52.933-162.89C314.223 58.732 262.368.719 160.39.714 134.562.71 105.535 4.43 73.047 13.445" id="path-3"/><path d="M73.047 13.446C44.46 21.381-23.015 73.623 8.353 149.362c31.367 75.74 174.48 150.442 268.581 91.302 94.102-59.138 72.537-139.028 52.933-162.89C314.223 58.732 262.368.719 160.39.714 134.562.71 105.535 4.43 73.047 13.445" id="path-5"/></defs><g id="d_quest1" fill="none" fill-rule="evenodd" transform="translate(-288 -262)"><g id="question_1" transform="translate(288 262)"><g id="Group-5" fill="#BE5E7C"><path d="M73.047 13.447C44.46 21.381-23.015 73.624 8.353 149.362c31.367 75.739 174.48 150.441 268.581 91.302 94.102-59.139 72.537-139.028 52.933-162.89-19.605-23.864-96.063-108.94-256.82-64.327" id="Fill-1"/><path d="M73.047 13.447C44.46 21.381-23.015 73.624 8.353 149.362c31.367 75.739 174.48 150.441 268.581 91.302 94.102-59.139 72.537-139.028 52.933-162.89-19.605-23.864-96.063-108.94-256.82-64.327" id="Fill-3"/></g><g id="Group-15"><g id="Group-8"><mask id="mask-2" fill="#fff"><use xlink:href="#path-1"/></mask><path d="M58.73-5.542c.923.066 46.193 33.319 46.193 33.319L82.605 77.322-3.921 38.596S18.841-8.376 58.73-5.542" id="Fill-6" fill="#7F4156" mask="url(#mask-2)"/></g><g id="Group-11"><mask id="mask-4" fill="#fff"><use xlink:href="#path-3"/></mask><path d="M5.417 162.558s1.095-18.64 4.38-18.64c3.286 0 7.668 0 7.668-4.385v-4.386s-3.287-1.096-5.476-4.385c-.86-1.29-4.382 1.096-4.382-1.097 0-2.192 3.286-2.192 3.286-2.192s-.824-14.856 5.476-18.64c10.953-6.578 10.953 16.446 10.953 16.446s3.286-1.096 3.286 1.096c0 2.194-3.286 1.098-3.286 1.098s0 7.674-6.571 7.674c-1.096 2.193-1.096 5.482 2.19 6.58 3.285 1.096 4.381 0 5.476 0 1.096 0 3.286-15.352 10.953-15.352s7.667 7.676 7.667 7.676 0-15.35 9.857-15.35 9.857 12.06 9.857 12.06 2.19 1.097 1.095 2.194l-1.095 1.096s1.095 8.772 0 10.965c-1.095 2.192-4.38 2.192-4.38 3.289 0 1.096 6.57 0 6.57 0s1.096-10.965 8.763-9.869c7.666 1.097 6.571 9.869 6.571 9.869s8.763-9.869 9.857-19.736c-3.285-2.194-6.571-7.675-4.38-6.579 2.19 1.096 3.286 5.483 5.475 2.193 1.216-1.825 2.191-12.06 3.286-12.06 1.096 0-2.19 8.771-1.095 9.867s3.286-13.157 4.38-10.964c1.097 2.193-4.38 12.06-2.189 12.06 1.549 0 2.19-9.867 3.286-8.771 1.095 1.097-3.286 9.868-2.191 9.868 1.095 0 3.286-8.771 3.286-6.58 0 2.194-2.191 7.676-4.381 10.966-.86 1.29-7.667 12.06-7.667 13.157 0 1.097 3.285-1.097 6.571 1.097 3.286 2.193 4.382 5.482 4.382 5.482s0-24.122 7.666-25.219c7.666-1.096 8.762 14.254 8.762 14.254s0-6.578 6.572-7.675c6.571-1.096 8.762 7.675 8.762 7.675s3.286-4.385 3.286-8.771c-1.095-1.096-4.382-2.194-5.477-5.483-2.19 0-2.19-2.192 0-2.192-1.095-3.29-.86-7.481 0-8.772 2.191-3.289 4.382-4.385 7.667-4.385 5.476 0 6.572 6.578 6.572 6.578v5.482s1.25-.646 1.72.774-1.72.323-1.72.323-2.19 7.675-4.382 7.675c-1.095 3.289 3.286 7.675 5.477 7.675 2.19 0 9.857-8.771 16.428-7.675 6.572 1.096 0 130.474 0 130.474S2.131 266.717 5.418 162.558" id="Fill-9" fill="#B14B6C" mask="url(#mask-4)"/></g><g id="Group-14"><mask id="mask-6" fill="#fff"><use xlink:href="#path-5"/></mask><path d="M379.809 163.54s-1.095-18.64-4.38-18.64c-3.286 0-7.668 0-7.668-4.385v-4.387s3.286-1.096 5.476-4.385c.86-1.29 4.381 1.096 4.381-1.097 0-2.192-3.286-2.192-3.286-2.192s.825-14.856-5.475-18.64c-10.953-6.578-10.953 16.447-10.953 16.447s-3.286-1.096-3.286 1.096c0 2.193 3.286 1.097 3.286 1.097s0 7.674 6.571 7.674c1.096 2.193 1.096 5.483-2.19 6.58-3.285 1.096-4.381 0-5.476 0-1.096 0-3.576-13.26-10.953-15.351-6.187-1.754-8.148 5.115-8.148 5.115s.481-12.79-9.376-12.79-9.857 12.061-9.857 12.061-2.19 1.096-1.095 2.193l1.095 1.096c-.245-.12-5.771 6.463 0 10.965 1.931 1.506 5.51-.768 4.53 6.1-.155 1.086-6.862 0-6.862 0s-.954-13.776-8.62-12.68c-7.667 1.098-6.572 9.87-6.572 9.87s-8.333-21.721-2.016-41.325c3.286-2.193 6.572-7.675 4.38-6.579-2.19 1.096-3.285 5.483-5.476 2.194-1.214-1.826-2.19-12.061-3.285-12.061-1.095 0 2.19 8.771 1.096 9.867-1.096 1.096-1.937-13.299-3.032-11.106-1.095 2.193 2.1 11.348.98 11.776-1.531.584-3.806-9.928-4.901-8.832-1.095 1.096 4.762 10.356 3.667 10.356-1.095 0-4.647-7.412-3.667-3.487.532 2.128 2.572 4.583 4.762 7.872.86 1.29-1.821 26.473-.176 34.746.215 1.074-3.285-1.097-6.571 1.096-3.285 2.193-3.897-2.5-3.897-2.5s-.484-16.14-8.15-17.237c-7.666-1.096-8.762 14.254-8.762 14.254s0-6.578-6.572-7.675c-6.571-1.096-8.762 7.675-8.762 7.675s-6.963-.943-3.286-8.771c2.205-.022 4.05-2.62 5.145-5.91 2.191 0 2.523-1.765.332-1.765 1.095-3.29 1.342-8.623.649-10.01-1.96-3.925-4.557-4.978-7.842-4.906-9.328.203-7.046 13.82-7.046 13.82s-1.25-.646-1.72.773c-.47 1.42 1.72.323 1.72.323s.184 5.69 4.382 7.675c1.095 3.29-3.286 7.675-5.477 7.675-2.19 0-9.857-8.771-16.428-7.675-6.572 1.096 0 130.474 0 130.474s162.097 7.674 158.81-96.485" id="Fill-12" fill="#B14B6C" mask="url(#mask-6)"/></g></g><g id="Group-73" transform="translate(45 25)"><path d="M.511 223.914c.981-2.946 13.735-64.817 13.735-64.817l183.46-47.14 106.938 36.337 5.886 101.154L90.77 274 .51 223.914z" id="Fill-16" fill="#7F4156"/><path d="M.511 223.914c.981-2.946 13.735-64.817 13.735-64.817L90.77 208.2l213.874-59.907 5.886 101.154L90.77 274 .51 223.914z" id="Fill-18" fill="#481930"/><path d="M65.651 34.773C58.79 48.33 46.091 55.702 37.29 51.238c-8.804-4.464-10.378-19.074-3.518-32.631C40.632 5.049 53.331-2.323 62.134 2.14c8.803 4.465 10.378 19.074 3.517 32.632" id="Fill-20" fill="#9E5C6C"/><path id="Fill-22" fill="#C4A1AC" d="M172.199 58.925L96.094 77.469l16.874 74.25 73.553-24.516z"/><path id="Fill-24" fill="#FDF7F7" d="M171.013 50.358L87.826 70.71l15.99 73.854 82.704-17.36z"/><path d="M104.779 104.079c-.626-.73 28.177-45.154 47.114-35.613 17.284 8.708 0 25.025 0 25.025s21.154.962 15.385 20.212c-5.77 19.25-50.96 3.85-62.5-9.624" id="Fill-26" fill="#BE5E7C"/><path d="M49.808 8.23c19.205-.545 33.635 1.195 49.159 3.335 20.886 2.879 35.307 27.784 37.645 30.657 4.274 5.253 7.799 36.347 4.407 38.482-3.392 2.136-4.57-7.716-7.635-9.27-1.734-.88 5.723 22.182 1.105 23.695-4.618 1.515-5.518-2.797-5.518-2.797s-1.258 5.532-4.945 5.205c-3.686-.327-11.518-30.52-14.894-31.461-3.377-.941 5.404 21.2 3.222 25.258-6.868 12.767-13.016-33.308-20.38-35.501-7.365-2.192-20.305 3.585-37.774-6.045C40.107 42.02 35.522 36.46 35.522 36.46s-2.635-20.747 14.286-28.23" id="Fill-28" fill="#DCA591"/><path d="M114.316 19.642c-3.071-.44-2.944 1.964-1.963 3.928.981 1.964 16.679 19.641 16.679 22.588 0 2.946 3.504 36.734 11.773 35.355 5.886-.983-.982-32.41-2.944-37.32-1.962-4.91-16.678-23.57-23.545-24.551" id="Fill-30" fill="#C68981"/><path id="Fill-32" fill="#481930" d="M116.278 164.349l6.995 3.586 73.453-18.83-5.247-1.793z"/><path d="M53.49 9.82s-5.887 1.965-9.812 8.84c-3.265 5.72-2.943 10.802-2.943 10.802s11.773 5.893 24.527 8.84c12.754 2.945 25.508 4.91 30.413 1.963 5.387-3.235.981-7.856.981-7.856s3.925.982 5.887-1.965c2.177-3.268-1.962-5.892-1.962-5.892s2.943 1.964 5.886-1.964c1.766-2.357-2.943-5.893-2.943-5.893s4.905 2.947 6.867-.982C104.505 7.857 53.49 9.821 53.49 9.821" id="Fill-34" fill="#E1B2A1"/><g id="Group-44" transform="translate(106.937 71.692)" fill="#FECFBE"><path d="M2.434 13.756c-3.913 1.027-.064 7.692 1.68 6.794 1.744-.899 1.819-7.714-1.68-6.794" id="Fill-36"/><path d="M19.117 16.863c-6.162.174-4.116 6.953-.362 6.99 1.962.02 3.98-7.092.362-6.99" id="Fill-38"/><path d="M26.019 14.731c-6.163.174-2.772 7.82.981 7.857 1.962.02 2.636-7.959-.981-7.857" id="Fill-40"/><path d="M32.962.981c-3.925-.077-2.927 7.763.826 7.875 1.961.058 2.792-7.803-.826-7.875" id="Fill-42"/></g><path d="M16.208 174.81c-1.55 1.553 3.925 1.964 4.906 3.928.98 1.965-8.83 48.122-4.906 48.122.981 0 5.887-47.14 7.849-46.157 1.962.982 7.848 6.706 7.848 3.928 0-.982-12.753-12.767-15.697-9.821" id="Fill-45" fill="#BE5E7C"/><path d="M29.943 226.86C27 228.824 26.02 219.986 27 212.13c.501-4.019 6.348-24.812 8.83-23.57 5.886 2.946-2.943 36.337-5.887 38.301m5.887-41.247c-4.109 1.542-17.66 36.337-7.849 43.211 9.81 6.875 15.697-46.157 7.849-43.211" id="Fill-47" fill="#BE5E7C"/><path d="M78.016 257.305c-3.285 1.315-2.943-7.857-1.962-15.714.501-4.018 6.347-24.812 8.83-23.57 5.886 2.947-1.963 37.32-6.868 39.284m6.867-42.23c-4.107 1.542-18.64 38.301-8.83 45.176 9.811 6.874 16.679-48.122 8.83-45.176" id="Fill-49" fill="#BE5E7C"/><path d="M31.905 233.735c0 .982 4.906 4.91 6.868 2.946 1.962-1.964 8.83-41.247 8.83-41.247l3.924 1.964s-10.38 43.782-8.83 42.23c3.925-3.93 10.792-43.212 10.792-43.212s-5.886-3.929-6.867-2.946c-.982.982-6.868 35.354-8.83 38.3-1.962 2.947-1.962 2.947-3.924.983-1.963-1.964-1.963.982-1.963.982" id="Fill-51" fill="#BE5E7C"/><path d="M61.338 228.824c-.532 2.13-1.963 16.696-4.906 17.678-2.943.982-6.867-3.929-6.867-4.91 0-.983 2.92-15.726 3.924-17.678 1.089-2.118 8.83.982 7.849 4.91m.98-3.928c-1.961-1.964-7.848-2.946-7.848-4.91s6.868-24.552 3.924-21.606c-1.55 1.553-11.772 43.211-10.791 44.193.98.983 7.848 7.857 10.791 5.893 2.944-1.964 5.887-21.606 3.925-23.57" id="Fill-53" fill="#BE5E7C"/><path d="M72.13 203.29c-1.317.44-12.617 46.904-10.792 48.122 2.943 1.964 4.905-20.623 5.886-21.606.981-.982 1.962 27.499 3.924 27.499 1.963 0-2.943-29.463-1.962-29.463.981 0 13.735-18.66 11.773-18.66-1.962 0-11.773 17.678-12.754 15.714-.98-1.964 6.868-22.588 3.924-21.606" id="Fill-55" fill="#BE5E7C"/><path d="M207.378 241.039c-2.518 2.487-5.756-6.1-7.895-13.723-1.094-3.897-3.759-25.334-.99-25.153 6.567.432 12.645 35.163 8.885 38.876m-10.026-41.591c-3.19 3.016-2.348 42.54 9.358 45.069 11.706 2.528-3.265-50.83-9.358-45.07" id="Fill-57" fill="#C4A1AC"/><path d="M147.672 253.376c-3.697.463-5.85-8.6-7.849-16.695-1.022-4.14-1.7-26.46 1.208-26.175 6.899.671 14.49 41.888 6.641 42.87m-7.751-45.767c-3.458 3.068-4.487 45.662 7.751 48.714 12.238 3.05-1.146-54.577-7.751-48.714" id="Fill-59" fill="#C4A1AC"/><path d="M171.656 247.34c.37.91 6.395 2.693 7.47.133 1.076-2.562-7.387-41.532-7.387-41.532l4.375.335s6.907 44.465 7.757 42.44c2.152-5.12-6.31-44.09-6.31-44.09s-6.933-1.413-7.47-.132c-.538 1.28 6.98 35.333 6.274 38.803-.705 3.47-.705 3.47-3.263 2.392-2.557-1.076-1.446 1.651-1.446 1.651" id="Fill-61" fill="#C4A1AC"/><path d="M224.017 221.475c.51 2.136 5.96 15.716 3.801 17.948-2.157 2.232-8.074 2.057-8.527 1.186-.454-.87-4.492-17.667-4.501-19.862-.011-2.383 8.286-3.21 9.227.728m-.941-3.938c-2.647-.835-8.322 1.013-9.227-.729-.67-1.287-3.212-14.324-4.997-19.414-.072-.207 10.439-.979 11.42-2.943.98-1.964-12.744.862-12.907 1.38-.66 2.093 9.621 46.325 10.945 46.742 1.322.418 10.45.788 12.155-2.315 1.705-3.102-4.743-21.885-7.39-22.721" id="Fill-63" fill="#C4A1AC"/><path d="M246.592 234.396c-2.195 2.27-8.215 2.092-8.676 1.207-.46-.887-4.568-17.972-4.578-20.208-.011-2.422 8.517-3.266 10.48.662.997 1.998 4.968 16.068 2.774 18.339m-14.212-23.007c-.682-1.31-5.24-16.937-4.26-20.866.038-.152 5.895-2.053 7.849.982.9 1.399 3.924 17.678 2.943 19.642-.056.112-.093.205-.134.303-2.965.143-5.77 1.147-6.398-.06m10.456.739c-.614-.306-1.271-.483-1.942-.585-.053-3.093-1.1-17.732-3.944-22.003-1.962-2.946-10.792-.982-10.792.982 0 5.893 9.414 46.653 10.76 47.078 1.346.424 10.632.8 12.366-2.356 1.734-3.156-2.523-21.152-6.448-23.116" id="Fill-65" fill="#C4A1AC"/><path d="M122.33 260.25c-2.536 0-5.07-35.537-5.07-40.612 0-3.051 11.833-7.615 12.678-5.924.844 1.693 7.607 44.845 5.07 44.845-2.535 0-3.38-44.845-7.607-43.152-1.755.702-8.451 3.384-8.451 5.077 0 1.692 5.07 39.767 3.38 39.767" id="Fill-67" fill="#C4A1AC"/><path d="M183.972 202.308c-.817.545 7.848 44.194 9.81 44.194 1.963 0-4.905-18.66-2.943-19.642 1.962-.982 6.868-2.946 6.868-2.946s.98-1.964 0-1.964c-.981 0-6.868 3.928-7.849 1.964-.98-1.964-2.943-23.57-5.886-21.606" id="Fill-69" fill="#C4A1AC"/><path d="M243.817 183.649c-2.194 0 8.178 49.979 9.81 51.068 2.944 1.964 7.85 0 10.793-2.946 2.943-2.947 1.962-2.947 2.943-1.965.98.983.98 4.91 1.962 3.929.981-.982-9.81-54.997-10.792-54.015-.98.983 8.83 45.176 7.849 47.14-.981 1.964-7.849 8.839-10.792 5.893-2.943-2.947-9.81-49.104-11.773-49.104" id="Fill-71" fill="#C4A1AC"/></g></g></g></svg>