<svg width="365" height="282" viewBox="0 0 365 282" xmlns="http://www.w3.org/2000/svg" xmlns:xlink="http://www.w3.org/1999/xlink"><defs><path id="path-1" d="M0 .157h339.636V238H0z"/><path id="path-3" d="M.818.531h218.778v94.222H.818z"/><path id="path-5" d="M.554.696h261.338v44.58H.554z"/></defs><g id="d_quest2-copy-3" fill="none" fill-rule="evenodd" transform="translate(-299 -261)"><g id="question_5" transform="translate(299 261)"><g id="Group-3" transform="translate(0 44)"><mask id="mask-2" fill="#fff"><use xlink:href="#path-1"/></mask><path d="M176.859.428C128.62-1.818 48.886 9.169 14.886 61.928c-34 52.759-16.985 167.02 127.5 175.814 148.75 9.054 340-223.091 34.473-237.314" id="Fill-1" fill="#BE5E7C" mask="url(#mask-2)"/></g><path d="M67.451 42L60 43.113l34.99 230.325c2.618 1.317 5.304 2.07 8.01 2.562L67.451 42z" id="Fill-4" fill="#481930"/><path d="M60.664 35.848a6.999 6.999 0 1 1 6.673 12.305 6.999 6.999 0 0 1-6.673-12.305" id="Fill-6" fill="#5E1D3E"/><g id="Group-10" transform="translate(63)"><mask id="mask-4" fill="#fff"><use xlink:href="#path-3"/></mask><path d="M219.596 10.893c-1.955-.34-6.372-3.066-15.384-10.363-23.124 4.33-11.85 26.235-21.079 39.247-9.227 13.01-44.61-3.328-57.428 13.686-12.819 17.016-18.938 20.627-34.03 23.313-4.076.725-33.83-8.375-57.423-9.13-6.814 21.845-31.889 11.64-31.889 11.64s-4.432 10.68 1.718 12.732c2.238.747 7.947 1.513 14.419 2.982 3.573-1.131 8.546-1.005 12.5-2 58-.982 141.713-31.958 156.717-34.621 24.157-2.805 59.783-37.879 31.879-47.486z" id="Fill-8" fill="#FFF" mask="url(#mask-4)"/></g><path d="M315.856 25.505c-.246-.826-.65-1.663-1.164-2.505-14.266 24.897-40.918 45.025-70.852 40.627-12.09-1.208-24.564-3.567-36.196-2.414a23.7 23.7 0 0 0-2.647 1.467c-36 23.665-72.949 22.719-112.74 29.345-3.967.99-7.672 1.986-11.257 3.113 6.191 1.395 13.654 3.65 21.141 7.787 6.154.258 12.346-.132 18.539-1.434 18.947-3.787 36.948-5.68 55.896-6.627 18-.946 23.684-21.771 39.79-25.558 29.37-6.626 64.66 23.902 93.081 4.97 4.447-3.076 8.714-10.21 12.553-13.489-.309-.334-6.742-5.52-7.077-5.953-7.284-9.386 4.36-17.856.933-29.33" id="Fill-11" fill="#FFF"/><path d="M246 65c29.92 4.39 54.741-17.304 69-42.152-6.623-10.854-33.567-22.5-31.666-17.761 1.176 2.934 1.815 6.368-.834 5.913-3.5 20-7.772 42.711-32 45.5-15.047 2.649-29.665-1.606-42.5 4.486 7.75-.768 20.417.57 38 4.014z" id="Fill-13" fill="#EBE0E0"/><path d="M251.8 86.532c22.664-14.3 48.162.953 69.882 10.486 8.145 3.795 16.703 4.632 24.576 2.274.497-.95 1.11-1.966 1.865-3.057 7.562-10.926-9.666-33.058-17.322-39.98-7.303-6.604-8.655 3.583-11.301 1.736-4.04 6.33-7.446 10.281-12.22 12.811C274.465 88.2 244.776 62.327 215.5 69c-16.054 3.813-21.057 24.547-39 25.5-19.696-.612-35.613 2.187-54.5 6-6.173 1.312-13.865 2.76-20 2.5 5.516 3.08 12.041 7.425 17.077 12.991 32.297-5.908 64.747-10.963 98.726-7.533 14.166.953 21.72-15.253 33.997-21.926z" id="Fill-15" fill="#5A74BC"/><path d="M269.296 162.59c-27.427-2.843-47.288-23.689-73.77-31.27-4.728-1.894-10.402-1.894-16.077.948-16.078 6.633-29.318 17.056-47.287 20.846-20.202 5.06-38.907-1.885-58.778-4.143-.815 1.41-.629 2.786 3.536 2.528 8.169-.507 32.404 14.124 32.404 14.124s5.84-2.129 21.221-2.8c22.218-.97 36.404-25.607 57.21-30.512 9.026-2.128 33.131 36.234 69.811 53.203 36.68 16.969 59.272 10.737 80.019 8.554 19.31-2.032-.515-25.02-1.538-37.309-22.251-.093-44.502 8.22-66.751 5.83" id="Fill-17" fill="#862B44"/><path d="M131.854 153.205c17.993-3.747 31.25-14.051 47.35-20.609 5.682-2.81 11.363-2.81 16.098-.937 26.516 7.495 46.403 28.104 73.865 30.914 22.28 2.362 44.559-5.856 66.839-5.764-.076-.904-.052-1.75.103-2.525.203-1.005.507-1.767.891-2.343-23.49-16.535-55.98-9.238-83.931-10.914-19.887-.937-35.986-14.988-55.873-18.736-32.238-5.874-62.199 10.045-93.963 12.752-12.733 7.447-27.739 11.355-27.739 11.355s-1.71 1.372-2.494 2.712c19.897 2.232 38.627 9.098 58.854 4.095" id="Fill-19" fill="#8E334E"/><g id="Group-23" transform="translate(103 108)"><mask id="mask-6" fill="#fff"><use xlink:href="#path-5"/></mask><path d="M247.903.857c-3.109 7.189-10.86 7.636-22.735 6.1-34.996-1.878-55.096 6.61-90.092 4.732-16.08 0-32.159-7.51-48.238-7.51-23.643 0-46.744 3.231-70.123 6.43C14.027 16.916 7.093 23.338 0 27.5c34-2 61.3-18.887 93.5-13 19.863 3.755 36.137 18.061 56 19 27.918 1.68 60.537-5.57 84 11 3.886-5.842 16.977 6.95 25.326-2.759C268 31.073 254.182-.358 248.784.723a9.725 9.725 0 0 1-.88.134z" id="Fill-21" fill="#5A74BC" mask="url(#mask-6)"/></g><path d="M346 97.891c-7.875 2.344-17.184 2.115-25.332-1.657-21.727-9.476-47.233-24.637-69.904-10.424-12.28 6.633-19.838 22.742-34.007 21.795-33.99-3.41-66.45 1.615-98.757 7.487a63.121 63.121 0 0 1 1.911 2.19 18.12 18.12 0 0 1-.583 1.552c23.35-3.23 46.422-6.491 70.034-6.491 8.663 0 17.327 2.205 25.99 4.236 15.05-2.341 22.724-.328 36.821 3.421 5.679-.217 11.32-.682 16.94-1.296 7.97-2.437 16.08-4.873 24.58-7.309 16.706-4.41 33.298 3.697 50.29-5.335-.705-1.706.238-4.787 2.017-8.169" id="Fill-24" fill="#6484DA"/><path d="M84 49.685c4.584 2.4-6.87 14.807-8.037 16.002a57.44 57.44 0 0 0-3.829 4.36c1.29-4.5 5.991-23.44 11.867-20.362m2.06 14.713c.705 3.833-10.864 11.801-13.871 12.624.558-1.388 12.757-18.702 13.872-12.624m91.117-18.391c-10.03-5.402-20.038 12.575-28.803 15.04-6.289 1.768-22.589-11.295-27.466-11.923-21.977-2.832-24.322 18.393-39.892 25.248 6.484-3.897 8.189-5.062 9.3-8.104 2.05-5.61-.75-7.598-4.636-7.47C88.933 53.37 90.076 45.803 84 45.072c-5.641-.68-9.535 7.391-11.111 11.967-2.507 7.281-3.106 10.978-5.705 18.18-.682-.038.708 11.582 1.206 10.737 20.435-1.077 25.554-30.754 47.465-31.065 9.524-.136 21.755 9.662 31.844 9.507 10.308-.16 14.708-13.523 24.986-8.939 5.716 2.548 6.098-8.587 4.493-9.452" id="Fill-26" fill="#FFF"/><path d="M104.136 181.282c-4.008 2.617-10.063-4.44-12.025-9.76-.97-2.631-1.273-5.48-2.524-7.971 1.594.933 3.179 1.885 4.74 2.874 3.581 2.272 15.155 11.368 9.809 14.857m108.275-1.853c-1.822-.025-1.823 2.83 0 2.854 2.212 2.237 1.945 3.95-.8 5.136a18.147 18.147 0 0 1-3.618 1.578 22.863 22.863 0 0 1-5.613 1.094c-4.601.308-13.193-.356-12.535-7.253.235-2.458 8.468-10.624-.336-16.938-9.394-6.736-21.942-1.851-28.772 4.282-5.825 5.232-11.003 18.344-19.181 18.097-8.376-.254-16.081-11.63-21.855-17.127-10.052-9.573-18.542-11.48-30.816-17.462-3.645-1.777-9.862-6.76-14.742-5.483-1.768.463-3.08 9.354-1.287 9.551 6.615.731 13.035 2.676 15.26 9.704 1.374 4.343 2.145 8.473 4.769 12.309 3.466 5.065 13.448 13.887 19.373 7.276 5.773-6.44-5.987-15.48-10.35-18.823-2.961-2.27-6.09-4.286-9.284-6.197 4.536 1.805 9.018 3.746 13.311 6.085 6.284 3.425 11.395 7.862 16.582 12.744 8.065 7.59 18.502 13.008 29.1 8.514 5.217-2.211 10.4-6.972 14.623-10.625 4.987-4.313 15.138-11.872 21.056-5.513 3.99 4.288-2.933 10.273.92 15.271 3.09 4.005 9.52 4.725 14.164 4.442 4.501-.274 11.41-1.734 13.897-6.082 1.872-3.274-.059-7.384-3.866-7.434" id="Fill-28" fill="#862B44"/><path d="M139.956 114.026c.569.951-4.54 6.733-6.385 4.44-1.467-1.82 1.506-3.79 1.506-3.79s-3.294-1.745-1.586-3.228c1.71-1.484 5.563 1.068 6.465 2.578" id="Fill-30" fill="#4856A6"/><path d="M139.212 113c-1.001 2.286-2.239 3.785-3.437 4.356-1.01.482-2.337.442-2.735-.383-.1.477-.026.983.372 1.48 1.891 2.354 7.126-3.586 6.543-4.563-.062-.103-.656-.778-.743-.89" id="Fill-32" fill="#403F98"/><path d="M176.973 112.584c.46 1.01-5.103 6.238-6.676 3.753-1.25-1.975 1.848-3.624 1.848-3.624s-3.04-2.092-1.225-3.392c1.816-1.3 5.323 1.66 6.053 3.263" id="Fill-34" fill="#4856A6"/><path d="M176.352 111c-1.177 1.976-2.502 3.215-3.7 3.617-1.008.339-2.27.174-2.57-.613-.14.423-.12.89.211 1.377 1.575 2.32 7.14-2.56 6.68-3.501-.048-.1-.55-.771-.621-.88" id="Fill-36" fill="#403F98"/><path d="M216.988 117.437c.332 1.087-6.51 5.41-7.804 2.665-1.027-2.184 2.579-3.328 2.579-3.328s-2.94-2.594-.771-3.598c2.168-1.003 5.47 2.535 5.996 4.261" id="Fill-38" fill="#4856A6"/><path d="M216.472 116c-1.611 2.092-3.255 3.297-4.615 3.553-1.145.216-2.477-.2-2.663-1.17-.226.467-.285 1.014-.011 1.642 1.292 2.98 8.138-1.711 7.805-2.89-.034-.125-.458-.995-.516-1.135" id="Fill-40" fill="#403F98"/><path d="M257.962 120.229c.537.972-4.82 6.557-6.592 4.193-1.408-1.88 1.658-3.733 1.658-3.733s-3.25-1.873-1.475-3.29c1.775-1.418 5.557 1.284 6.41 2.83" id="Fill-42" fill="#4856A6"/><path d="M257.265 119c-1.068 2.317-2.339 3.811-3.537 4.353-1.009.456-2.313.36-2.674-.506-.115.488-.062 1.013.312 1.54 1.773 2.504 7.133-3.41 6.596-4.44-.057-.108-.616-.829-.697-.947" id="Fill-44" fill="#403F98"/><path d="M105 209.98c0 .739 4.134 23.657 5.044 22.918.91-.74 36.546-9.47 42.251-10.095 5.705-.624 38.765 18.473 44.986 5.905 6.22-12.568-29.659-26.693-39.8-27.602C143.587 199.861 105 209.98 105 209.98" id="Fill-46" fill="#FFA1B9"/><path d="M160.296 200.105c-3.447-.318-8.56.114-14.296.943 2.162 8.927 13.429 10.45 21.383 7.74 2.538-1.296 4.646-2.608 6.617-4.49-5.535-2.37-10.668-3.913-13.704-4.193" id="Fill-48" fill="#B14B6C"/><path d="M121 206c-.947.199-1.862.394-2.756.587-3.927 7.525-5.727 16.342-2.784 24.413 1.513-.348 3.268-.74 5.19-1.16-3.217-7.494-3.989-16.274.35-23.84" id="Fill-50" fill="#B14B6C"/><path d="M134.1 203c-1.06.192-2.116.387-3.168.584-3.286 7.616-2.136 16.002 1.607 23.416 2.188-.451 4.369-.894 6.461-1.312-4.751-6.766-8.98-14.185-4.9-22.688" id="Fill-52" fill="#B14B6C"/><path d="M143.701 202c-.807.123-1.628.254-2.453.388-.604 8-.507 16.586 5.035 22.612.98-.193 1.897-.37 2.717-.522-3.715-6.486-6.501-14.657-5.299-22.478" id="Fill-54" fill="#B14B6C"/><path d="M176.01 206c-8.144 4.46-15.99 10.106-21.01 18.43 1.297.332 2.922.883 4.793 1.57 3.516-8.487 11.717-13.891 19.207-18.518a95.824 95.824 0 0 0-2.99-1.482" id="Fill-56" fill="#B14B6C"/><path d="M186.29 211c-8.157 4.252-16.057 9.184-21.29 16.531 2.184.814 4.506 1.668 6.878 2.469 4.308-7.272 11.912-11.85 19.122-15.595-1.435-1.18-3.031-2.315-4.71-3.405" id="Fill-58" fill="#B14B6C"/><path d="M194.624 218c-5.849 3.248-10.533 8.35-14.624 13.883 7.729 1.816 14.7 1.87 17.241-3.3 1.713-3.484.393-7.122-2.617-10.583" id="Fill-60" fill="#B14B6C"/><path d="M108.006 236.801c-.098.75.978 24.51 1.98 23.881 1.002-.626 29.689-10.513 43.672-3.8 26.425 12.683 47.342 3.81 49.257-9.903 1.977-14.166-30.96-1.295-41.234-7.183-23.18-13.287-53.675-2.995-53.675-2.995" id="Fill-62" fill="#FF92AC"/><path d="M127 233a88.84 88.84 0 0 0-2.51.24c-8.09 5.47-8.202 16.068-6.828 24.76 1.167-.317 2.43-.645 3.778-.967-2.125-8.109-1.605-18.552 5.56-24.033" id="Fill-64" fill="#A1466A"/><path d="M136 233.023a78.978 78.978 0 0 0-2.778-.018c-3.292 7.434-6.887 15.49-4.385 22.995a89.866 89.866 0 0 1 6.492-.917c-1.854-7.188-2.533-15.149.671-22.06" id="Fill-66" fill="#A1466A"/><path d="M144 254c-2.181-6.907-3.467-14.287-.85-20.674a70.416 70.416 0 0 0-3.04-.326c-2.745 6.977-2.9 14.463.056 20.934A50.755 50.755 0 0 1 144 254" id="Fill-68" fill="#A1466A"/><path d="M175 241c-1.587.118-3.113.2-4.56.23-5.706 4.694-9.665 11.66-9.43 19.114 4.023 1.38 7.88 2.242 11.515 2.656-2.176-7.23-.86-15.398 2.475-22" id="Fill-70" fill="#A1466A"/><path d="M184.17 240c-.722.062-1.446.128-2.17.195.76 7.718 4.702 15.46 10.724 19.805a23.189 23.189 0 0 0 4.276-2.624c-6.101-3.768-10.642-10.468-12.83-17.376" id="Fill-72" fill="#A1466A"/><path d="M188 240.134c3.455 4.652 9.076 8.421 15.164 9.866.348-.936.61-1.9.752-2.891.977-6.773-6.69-7.493-15.916-6.975" id="Fill-74" fill="#A1466A"/><path d="M162.68 239.858c-5.636-2.912-9.506-5.858-16.659-5.858-.16 2.373.608 5.036 1.435 7.408 4.163 5.574 12.6 4.32 15.544-1.413-.104-.047-.222-.085-.32-.137" id="Fill-76" fill="#A1466A"/><path d="M106.959 212.024c-1.266.134-24.959 2.084-24.959 2.565 0 .48 1.55 6.411 1.55 6.411l24.816-5.13s2.125-4.222-1.407-3.846" id="Fill-78" fill="#DCA591"/><path d="M109.253 240.023c-1.078.124-21.256 1.97-21.253 2.39.002.42 1.357 5.587 1.357 5.587l21.116-4.629s1.788-3.696-1.22-3.348" id="Fill-80" fill="#DCA591"/><path d="M109.918 252.197c-1.01.4-20.018 7.413-19.918 7.815.1.4 2.613 4.988 2.613 4.988l19.264-9.919s.858-4-1.959-2.884" id="Fill-82" fill="#DCA591"/></g></g></svg>