<svg width="384" height="280" viewBox="0 0 384 280" xmlns="http://www.w3.org/2000/svg" xmlns:xlink="http://www.w3.org/1999/xlink"><defs><path d="M152.454 57.858C134.329 21.836 66.212-39.478 13.23 42.69-43.612 130.85 100.015 275.6 153.277 268.124 259.423 253.228 332.867 57.858 267.785 15.2 251.23 4.349 236.487 0 223.488 0c-38.097 0-61.207 37.361-71.034 57.858z" id="path-1"/><path d="M152.454 57.858C134.329 21.836 66.212-39.478 13.23 42.69-43.612 130.85 100.015 275.6 153.277 268.124 259.423 253.228 332.867 57.858 267.785 15.2 251.23 4.349 236.487 0 223.488 0c-38.097 0-61.207 37.361-71.034 57.858" id="path-3"/><path d="M152.454 57.858C134.329 21.836 66.212-39.478 13.23 42.69-43.612 130.85 100.015 275.6 153.277 268.124 259.423 253.228 332.867 57.858 267.785 15.2 251.23 4.349 236.487 0 223.488 0c-38.097 0-61.207 37.361-71.034 57.858" id="path-5"/><path d="M152.454 57.858C134.329 21.836 66.212-39.478 13.23 42.69-43.612 130.85 100.015 275.6 153.277 268.124 259.423 253.228 332.867 57.858 267.785 15.2 251.23 4.349 236.487 0 223.488 0c-38.097 0-61.207 37.361-71.034 57.858" id="path-7"/><path d="M152.454 57.858C134.329 21.836 66.212-39.478 13.23 42.69-43.612 130.85 100.015 275.6 153.277 268.124 259.423 253.228 332.867 57.858 267.785 15.2 251.23 4.349 236.487 0 223.488 0c-38.097 0-61.207 37.361-71.034 57.858z" id="path-9"/><path d="M152.454 57.858C134.329 21.836 66.212-39.478 13.23 42.69-43.612 130.85 100.015 275.6 153.277 268.124 259.423 253.228 332.867 57.858 267.785 15.2 251.23 4.349 236.487 0 223.488 0c-38.097 0-61.207 37.361-71.034 57.858" id="path-11"/><path d="M152.454 57.858C134.329 21.836 66.212-39.478 13.23 42.69-43.612 130.85 100.015 275.6 153.277 268.124 259.423 253.228 332.867 57.858 267.785 15.2 251.23 4.349 236.487 0 223.488 0c-38.097 0-61.207 37.361-71.034 57.858" id="path-13"/><path d="M152.454 57.858C134.329 21.836 66.212-39.478 13.23 42.69-43.612 130.85 100.015 275.6 153.277 268.124 259.423 253.228 332.867 57.858 267.785 15.2 251.23 4.349 236.487 0 223.488 0c-38.097 0-61.207 37.361-71.034 57.858" id="path-15"/><path d="M152.454 57.858C134.329 21.836 66.212-39.478 13.23 42.69-43.612 130.85 100.015 275.6 153.277 268.124 259.423 253.228 332.867 57.858 267.785 15.2 251.23 4.349 236.487 0 223.488 0c-38.097 0-61.207 37.361-71.034 57.858" id="path-17"/><path d="M152.454 57.858C134.329 21.836 66.212-39.478 13.23 42.69-43.612 130.85 100.015 275.6 153.277 268.124 259.423 253.228 332.867 57.858 267.785 15.2 251.23 4.349 236.487 0 223.488 0c-38.097 0-61.207 37.361-71.034 57.858" id="path-19"/><path d="M152.454 57.858C134.329 21.836 66.212-39.478 13.23 42.69-43.612 130.85 100.015 275.6 153.277 268.124 259.423 253.228 332.867 57.858 267.785 15.2 251.23 4.349 236.487 0 223.488 0c-38.097 0-61.207 37.361-71.034 57.858" id="path-21"/><path d="M152.454 57.858C134.329 21.836 66.212-39.478 13.23 42.69-43.612 130.85 100.015 275.6 153.277 268.124 259.423 253.228 332.867 57.858 267.785 15.2 251.23 4.349 236.487 0 223.488 0c-38.097 0-61.207 37.361-71.034 57.858" id="path-23"/><path d="M152.454 57.858C134.329 21.836 66.212-39.478 13.23 42.69-43.612 130.85 100.015 275.6 153.277 268.124 259.423 253.228 332.867 57.858 267.785 15.2 251.23 4.349 236.487 0 223.488 0c-38.097 0-61.207 37.361-71.034 57.858" id="path-25"/><path d="M152.454 57.858C134.329 21.836 66.212-39.478 13.23 42.69-43.612 130.85 100.015 275.6 153.277 268.124 259.423 253.228 332.867 57.858 267.785 15.2 251.23 4.349 236.487 0 223.488 0c-38.097 0-61.207 37.361-71.034 57.858" id="path-27"/><path d="M152.454 57.858C134.329 21.836 66.212-39.478 13.23 42.69-43.612 130.85 100.015 275.6 153.277 268.124 259.423 253.228 332.867 57.858 267.785 15.2 251.23 4.349 236.487 0 223.488 0c-38.097 0-61.207 37.361-71.034 57.858" id="path-29"/><path d="M152.454 57.858C134.329 21.836 66.212-39.478 13.23 42.69-43.612 130.85 100.015 275.6 153.277 268.124 259.423 253.228 332.867 57.858 267.785 15.2 251.23 4.349 236.487 0 223.488 0c-38.097 0-61.207 37.361-71.034 57.858" id="path-31"/><path d="M152.454 57.858C134.329 21.836 66.212-39.478 13.23 42.69-43.612 130.85 100.015 275.6 153.277 268.124 259.423 253.228 332.867 57.858 267.785 15.2 251.23 4.349 236.487 0 223.488 0c-38.097 0-61.207 37.361-71.034 57.858" id="path-33"/><path d="M152.454 57.858C134.329 21.836 66.212-39.478 13.23 42.69-43.612 130.85 100.015 275.6 153.277 268.124 259.423 253.228 332.867 57.858 267.785 15.2 251.23 4.349 236.487 0 223.488 0c-38.097 0-61.207 37.361-71.034 57.858" id="path-35"/></defs><g id="d_quest2" fill="none" fill-rule="evenodd" transform="translate(-299 -261)"><g id="question_2" transform="translate(299 261)"><g id="Group-7" transform="translate(35)"><path d="M153.097 268.133C99.824 275.536-43.608 130.594 13.354 42.513 66.444-39.586 134.48 21.82 152.556 57.864c13.217-27.472 50.366-85.245 115.39-42.502 65.023 42.744-8.683 238.016-114.849 252.77" id="Fill-1" fill="#BE5E7C"/><path d="M153.277 268.124C100.014 275.598-43.611 130.849 13.23 42.69c52.98-82.169 121.098-20.855 139.223 15.168 13.18-27.49 50.251-85.314 115.331-42.657 65.081 42.657-8.362 238.027-114.508 252.923" id="Fill-3" fill="#BE5E7C"/><path d="M212.93 165.606c-9.65 11.39 7.711 29.125 12.28 42.058 5.264 14.896-14.035 16.649-18.421 16.649-49.126 1.752-81.584-18.4-134.219-26.287-8.937-1.339-17.55-1.742-26.117-1.058 35.021 43.357 81.299 74.738 106.824 71.156 53.15-7.459 93.207-49.019 116.673-105.147-7.018-3.505-42.327-12.048-57.02 2.629" id="Fill-5" fill="#B14B6C"/></g><g id="Group-62" transform="translate(35)"><g id="Group-10"><mask id="mask-2" fill="#fff"><use xlink:href="#path-1"/></mask><path d="M54.934 32.271S92.326 69.62 97.085 73.694c4.76 4.073 10.877 8.148 14.276 8.148 3.4 0 24.691-3.157 32.974-1.697 11.556 2.037 12.169 7.443 16.655 9.167 4.42 1.698 7.819 3.055 13.597 8.148 2.972 2.62 15.297 4.414 16.656 10.526 1.36 6.111-10.198 14.26-28.893 3.734-9.27-5.219-12.917-7.47-13.597-4.074-.68 3.395 16.316 15.618 26.514 28.52 10.197 12.902 14.276 21.051 9.518 25.805-4.759 4.752-9.518 6.79-17.676 1.357 2.04 6.111-1.416 10.587-5.44 11.544-7.137 1.698-12.916-4.074-12.916-4.074s.68 4.753-4.079 6.79c-4.759 2.037-8.158 1.358-11.557-1.358-3.4-2.716-5.78-6.45-5.78-6.45s.68 6.79-3.398 8.826c-4.08 2.039-8.498 1.02-13.937-3.055-5.44-4.074-31.952-29.878-40.79-58.398 0 0-24.815-24.107-53.028-43.46-27.237-18.682-53.029-49.57-53.029-49.57l91.78 8.148z" id="Fill-8" fill="#C78C74" mask="url(#mask-2)"/></g><g id="Group-13"><mask id="mask-4" fill="#fff"><use xlink:href="#path-3"/></mask><path d="M39.298 59.433c16.317 13.582 36.032 21.73 49.629 36.67 2.72 3.395 4.079 9.506 10.198 10.864 16.995 3.396 31.952-2.717 46.909-10.186 4.079-2.037 11.557-6.79 14.277-3.395 9.517 12.223 25.834 22.409 30.848 16.945a4.769 4.769 0 0 0 .084-2.345c-1.36-6.112-13.684-7.906-16.656-10.526-5.778-5.093-9.178-6.45-13.596-8.148-4.488-1.724-5.1-7.13-16.657-9.167-8.282-1.46-29.573 1.697-32.973 1.697-3.399 0-9.517-4.075-14.276-8.148-4.759-4.075-85.045-88.59-85.045-88.59L-25.68 7.886c9.98 13.46 51.588 40.498 64.98 51.547" id="Fill-11" fill="#DC9886" mask="url(#mask-4)"/></g><g id="Group-16"><mask id="mask-6" fill="#fff"><use xlink:href="#path-5"/></mask><path d="M177.987 102.893c3.429 2.854 8.3 5.215 12.996 4.285-1.613-3.986-8.077-5.997-12.565-7.762-.356 1.173-.921 2.5-.431 3.477" id="Fill-14" fill="#E1B2A1" mask="url(#mask-6)"/></g><g id="Group-19"><mask id="mask-8" fill="#fff"><use xlink:href="#path-7"/></mask><path d="M95.725 138.203c6.799-12.223 5.439-16.976 1.36-23.766-2.347-3.906-11.558-6.79-16.316-2.716-3.4 3.395-4.51 8.793-2.04 18.334 5.303 12.969 10.082 14.867 17.775 24.108 1.026-1.535 3.557-4.29 4.66-5.773-4.08-.68-6.799-4.075-5.439-10.187" id="Fill-17" fill="#DC9886" mask="url(#mask-8)"/></g><g id="Group-22"><mask id="mask-10" fill="#fff"><use xlink:href="#path-9"/></mask><path d="M313.615 54.34s-93.819 61.115-102.656 62.474c-8.838 1.358-25.8-1-25.8-1s-5.473 2.118-12.272.2c-6.797-1.917-18.355-9.387-21.074-8.028-2.72 1.358-23.795 9.507-28.554 13.581-4.759 4.074-25.834 17.655-21.076 21.729 4.76 4.074 8.159 2.038 8.159 2.038s-10.877 5.431-10.197 9.506c.68 4.074 4.759 4.074 10.876.679 0 0-1.36 4.753 2.04 5.432 3.4.68 9.518 2.038 16.997-.679 7.477-2.716 16.995-6.111 19.715-6.79 2.72-.679 14.956-2.717 24.474-1.358 9.517 1.358 14.889 4.753 28.554 4.753 10.198 0 14.662-4.868 21.075-6.79 20.396-6.111 89.06-36.669 89.06-36.669l.68-59.077z" id="Fill-20" fill="#DCA591" mask="url(#mask-10)"/></g><g id="Group-25"><mask id="mask-12" fill="#fff"><use xlink:href="#path-11"/></mask><path d="M108.982 135.148c-1.341.223-12.237 8.148-9.518 10.864 2.72 2.717 12.918-6.11 12.918-6.11s.68-5.433-3.4-4.754" id="Fill-23" fill="#BE5E7C" mask="url(#mask-12)"/></g><g id="Group-28"><mask id="mask-14" fill="#fff"><use xlink:href="#path-13"/></mask><path d="M106.943 148.05c-1.342.222-12.237 8.148-9.519 10.864 2.72 2.717 12.918-6.11 12.918-6.11s.68-5.433-3.4-4.754" id="Fill-26" fill="#BE5E7C" mask="url(#mask-14)"/></g><g id="Group-31"><mask id="mask-16" fill="#fff"><use xlink:href="#path-15"/></mask><path d="M114.212 153.177c-1.25.062-12.056 6.158-9.856 8.93 2.198 2.772 12.461-4.223 12.461-4.223s1.198-4.896-2.605-4.707" id="Fill-29" fill="#B54E72" mask="url(#mask-16)"/></g><g id="Group-34"><mask id="mask-18" fill="#fff"><use xlink:href="#path-17"/></mask><path d="M113.741 141.938c-5.014 2.504-6.119 21.73-2.72 30.557 2.513 6.526 9.67 8.382 12.918 6.112 6.799-4.753.68-42.102-10.198-36.669" id="Fill-32" fill="#E1B2A1" mask="url(#mask-18)"/></g><g id="Group-37"><mask id="mask-20" fill="#fff"><use xlink:href="#path-19"/></mask><path d="M128.698 135.827c-4.424 1.105-5.44 4.753-3.4 13.581 2.04 8.827 2.933 25.567 9.625 28.062 6.692 2.496 18.929.457 11.45-15.84-7.477-16.296-9.517-27.84-17.675-25.803" id="Fill-35" fill="#E1B2A1" mask="url(#mask-20)"/></g><g id="Group-40"><mask id="mask-22" fill="#fff"><use xlink:href="#path-21"/></mask><path d="M147.733 133.79c-5.159.429-7.477 7.47-2.04 18.333 5.44 10.866 1.36 12.903 6.12 20.373 1.713 2.689 18.355 8.828 15.636-10.866-2.72-19.692-11.557-28.52-19.716-27.84" id="Fill-38" fill="#E1B2A1" mask="url(#mask-22)"/></g><g id="Group-43"><mask id="mask-24" fill="#fff"><use xlink:href="#path-23"/></mask><path d="M176.967 148.05c-4.895.733-8.159 4.073-8.159 9.507 0 5.432 3.785 9.805 10.878 8.827 10.246-1.413 10.878-20.371-2.72-18.334" id="Fill-41" fill="#E1B2A1" mask="url(#mask-24)"/></g><g id="Group-46"><mask id="mask-26" fill="#fff"><use xlink:href="#path-25"/></mask><path d="M176.967 148.05c-4.895.733-8.159 4.073-8.159 9.507 0 5.432 3.785 9.805 10.878 8.827 10.246-1.413 10.878-20.371-2.72-18.334" id="Fill-44" fill="#E1B2A1" mask="url(#mask-26)"/></g><g id="Group-49"><mask id="mask-28" fill="#fff"><use xlink:href="#path-27"/></mask><path d="M112.382 150.087c1.019 1.697 5.724 2.446 8.157-.68 2.38-3.055-1.359-7.47-6.118-6.111-4.759 1.358-2.822 5.489-2.04 6.79" id="Fill-47" fill="#F1CEC2" mask="url(#mask-28)"/></g><g id="Group-52"><mask id="mask-30" fill="#fff"><use xlink:href="#path-29"/></mask><path d="M126.658 145.333c3.4 2.717 7.906.453 8.839-3.395.932-3.848-3.865-6.726-8.002-4.011-4.136 2.714-2.024 6.457-.837 7.406" id="Fill-50" fill="#F1CEC2" mask="url(#mask-30)"/></g><g id="Group-55"><mask id="mask-32" fill="#fff"><use xlink:href="#path-31"/></mask><path d="M145.014 145.333c3.4 2.717 10.198 1.359 10.877-4.074.492-3.929-5.381-8.146-9.517-5.433-4.137 2.715-2.547 8.558-1.36 9.507" id="Fill-53" fill="#F1CEC2" mask="url(#mask-32)"/></g><g id="Group-58"><mask id="mask-34" fill="#fff"><use xlink:href="#path-33"/></mask><path d="M172.888 157.556s1.36-2.716 5.438-4.074c4.08-1.358 6.8 0 6.8 0s.679 6.112-4.08 8.149c-4.76 2.037-8.158-4.075-8.158-4.075" id="Fill-56" fill="#F1CEC2" mask="url(#mask-34)"/></g><g id="Group-61"><mask id="mask-36" fill="#fff"><use xlink:href="#path-35"/></mask><path d="M206.54 119.869c8.158 0 20.395 14.939 12.237 23.088-8.158 8.148-17.676 7.47-29.234 4.753-13-3.055-18.355-2.716-18.355-2.716s4.759-6.79-2.719-9.507c3.399-4.075 0-11.544-4.759-11.544 4.078-4.074 0-10.186-5.439-10.186.68-1.358-2.04-3.395-2.04-3.395s11.195 6.412 19.716 7.47c8.521 1.057 30.593 2.037 30.593 2.037" id="Fill-59" fill="#E1B2A1" mask="url(#mask-36)"/></g></g><g id="Group-91" transform="translate(0 163)"><path d="M383.429 16.182l-20.466 51.57s-15.103-5.65-38.782-8.237c-23.68-2.587-47.463-1.688-47.463-1.688s-26.2-36.988-23.858-46.679c2.343-9.69 21.01-21.046 130.569 5.034" id="Fill-63" fill="#ECD5D7"/><path d="M259.395 30.204c7.103 13.195 17.323 27.623 17.323 27.623s23.784-.9 47.463 1.688c23.679 2.587 38.782 8.237 38.782 8.237l12.612-31.78c-37.373-11.325-78.574-20.887-116.18-5.768" id="Fill-65" fill="#5E79BC"/><path d="M267.29 43.622a348.542 348.542 0 0 0 9.428 14.205s23.784-.9 47.463 1.688c23.679 2.588 38.782 8.236 38.782 8.236l5.09-12.828C336.57 42.725 300.108 34.271 267.29 43.622" id="Fill-67" fill="#782940"/><path d="M253.129 9.677c-2.63 7.037 4.294 17.678 8.767 25.511 4.353 7.623 8.36 21.72-2.372 40.041 21.66 6.583 36.032-21.728 36.032-21.728s6.4-6.873-2.461-15.527c-13.109-12.8-39.09-10.703-39.966-28.297" id="Fill-69" fill="#C4A1AC"/><path d="M291.704 52.782c-5.946-9.943-17.864-8.9-27.505-12.674 3.03 8.102 4.057 20.213-4.675 35.121 16.19 4.92 28.308-9.654 33.396-17.33.19-1.68-.145-3.398-1.216-5.117" id="Fill-71" fill="#5165B0"/><path d="M265.66 59.583c-.931 4.773-2.833 10.009-6.136 15.647 8.255 2.508 15.448-.052 21.193-4.18-2.692-5.61-8.666-9.384-15.057-11.467" id="Fill-73" fill="#481930"/><path d="M.636 60.7l38.575 55.42s32.438-27.27 131.507-7.037c29.734 6.072 70.125 11.938 105.188-2.924 8.601-27.963 20.182-53.377 20.182-53.377s-1.754 4.398-11.398 7.917c-12.146 4.432-33.787 6.773-67.101 2.538C165.776 56.65 74.279 30.79.636 60.7" id="Fill-75" fill="#FFF"/><path d="M169.841 73.895C117.238 59.82 73.616 54.63 11.236 75.929L39.21 116.12s32.438-27.27 131.507-7.037c29.734 6.072 70.125 11.938 105.188-2.924 3.42-11.116 7.308-21.823 10.754-30.698-27.394 16.028-86.206 6.625-116.819-1.566" id="Fill-77" fill="#6983BC"/><path d="M150.553 88.85C106.718 75.654 61.94 84.39 27.805 100.613L39.21 117s32.438-27.27 131.507-7.038c29.734 6.073 70.125 11.939 105.188-2.923 1.346-4.375 3.842-12.267 5.278-16.43-24.548 20.233-83.506 12.426-130.63-1.76" id="Fill-79" fill="#A53F5C"/><path d="M296.056 52.851c.02-.042.032-.07.032-.07s-.012.027-.032.07" id="Fill-81" fill="#C69C6D"/><path d="M296.056 52.851c.02-.042.032-.07.032-.07s-.012.027-.032.07" id="Fill-83" fill="#C69C6D"/><path d="M81.338 5.578c-12.293.85-34.61 3.787-33.36 12.896 1.513 11.032 8.237 34.697 14.59 35.309 6.354.612 29.238.604 32.752-4.52 2.134-3.11 3.175-21.698 3.507-32.549.24-7.834-5.793-11.945-17.49-11.136" id="Fill-85" fill="#6983BC"/><path d="M80.966 7.25c-11.46.793-31.522 3.613-30.357 12.104 1.41 10.283 7.227 30.218 13.15 30.789 5.923.571 25.655 1.258 28.932-3.519 1.988-2.9 4.268-18.877 4.578-28.993.224-7.303-5.4-11.135-16.303-10.38" id="Fill-87" fill="#FFF"/><path d="M60.652 28.03c.332 1.938 13.48 16.423 17.801 15.68 4.32-.743 34.181-37.673 28.49-41.494-4.61-3.095-7.455 3.822-8.993 6.581-.956 1.717-17.497 31-20.534 28.844-3.037-2.155-9.43-13.551-12.023-13.105-2.593.447-5.037 1.76-4.74 3.493" id="Fill-89" fill="#481930"/></g></g></g></svg>